<svg width="24" height="24" viewBox="0 0 24 24" fill="none" xmlns="http://www.w3.org/2000/svg">
<path d="M21.1263 7.68471C21.3696 7.54644 21.4521 7.23537 21.3092 6.99471C18.986 3.08195 14.3501 1.18378 9.94994 2.34365C5.54976 3.50352 2.45193 7.44027 2.35938 11.9898C2.38152 14.6775 3.4649 17.2326 5.37107 19.1072C7.27724 20.9818 9.85005 22.0224 12.5235 22C16.3263 22.0133 19.824 19.8993 21.5828 16.5209C21.7119 16.2728 21.6125 15.967 21.362 15.8424L13.5828 11.9708L21.1263 7.68471ZM3.35925 11.9958C3.44264 7.90708 6.23647 4.35667 10.2048 3.31062C13.9152 2.33258 17.8114 3.76553 20.0149 6.84029L20.1769 7.07396L12.2723 11.5653C11.9242 11.763 11.9381 12.2692 12.2965 12.4476L20.448 16.5045C18.7958 19.2903 15.7851 21.0114 12.521 21C10.1069 21.0202 7.78932 20.0829 6.07225 18.3942C4.35518 16.7056 3.37928 14.404 3.35925 11.9958ZM12.1593 4.47998C13.2749 4.47998 14.1793 5.38436 14.1793 6.49998C14.1793 7.61559 13.2749 8.51998 12.1593 8.51998C11.0437 8.51998 10.1393 7.61559 10.1393 6.49998C10.1393 5.38436 11.0437 4.47998 12.1593 4.47998ZM11.1393 6.49998C11.1393 7.06331 11.5959 7.51998 12.1593 7.51998C12.7226 7.51998 13.1793 7.06331 13.1793 6.49998C13.1793 5.93665 12.7226 5.47998 12.1593 5.47998C11.5959 5.47998 11.1393 5.93665 11.1393 6.49998Z" fill="white"/>
</svg>
