<svg width="1063" height="320" viewBox="0 0 1063 320" fill="none" xmlns="http://www.w3.org/2000/svg">
<path d="M492.537 276.591L447.258 189.12H418.101V276.934H373.508V40.5903C390.316 36.474 412.956 33.7298 438.339 33.7298C506.601 33.7298 530.27 71.8054 530.27 109.538C530.27 143.497 513.805 166.137 487.735 178.486L543.305 276.591H492.537ZM418.101 153.445H439.711C466.81 153.445 484.991 141.782 484.991 112.282C484.991 85.5264 469.898 70.0903 438.339 70.0903C431.822 70.0903 424.961 70.4333 418.101 70.7764V153.445Z" fill="#9BC3D3"/>
<path d="M296.906 276.591L251.627 189.12H222.47V276.934H177.877V40.5903C194.685 36.474 217.325 33.7298 242.709 33.7298C310.97 33.7298 334.639 71.8054 334.639 109.538C334.639 143.497 318.174 166.137 292.104 178.486L347.674 276.591H296.906ZM222.47 153.445H244.081C271.18 153.445 289.36 141.782 289.36 112.282C289.36 85.5264 274.267 70.0903 242.709 70.0903C236.191 70.0903 229.331 70.4333 222.47 70.7764V153.445Z" fill="#9BC3D3"/>
<path d="M44.5931 175.742V238.858H142.698C142.698 249.835 140.983 266.986 138.925 276.934H0V39.5612H143.384C143.041 50.538 141.669 67.3462 139.611 77.6369H44.5931V138.009H132.75C132.75 149.329 131.035 165.794 128.977 175.742H44.5931Z" fill="#9BC3D3"/>
<path d="M1011.68 276.591L966.4 189.12H937.243V276.934H892.649V40.5902C909.458 36.4739 932.097 33.7297 957.481 33.7297C1025.74 33.7297 1049.41 71.8054 1049.41 109.538C1049.41 143.497 1032.95 166.137 1006.88 178.486L1062.45 276.591H1011.68ZM937.243 153.445H958.853C985.952 153.445 1004.13 141.782 1004.13 112.282C1004.13 85.5264 989.039 70.0903 957.481 70.0903C950.964 70.0903 944.103 70.4333 937.243 70.7764V153.445Z" fill="#9BC3D3"/>
<path fill-rule="evenodd" clip-rule="evenodd" d="M570.071 222.092C592.53 277.209 645.343 316.718 707.768 319.797C790.798 315.696 857.085 246.861 857.085 162.839C857.085 123.906 842.823 88.2671 819.296 60.7854L817.293 70.5577C816.39 75.9822 815.921 81.8989 816.67 87.144C818.743 101.661 819.782 108.917 827.039 114.102C834.299 119.286 844.664 136.911 837.407 146.244C830.148 155.576 809.411 146.244 799.045 135.878C788.673 125.509 786.601 113.065 784.528 106.845C782.453 100.624 779.347 93.3674 770.012 94.4037C760.682 95.4371 751.35 98.5517 752.383 112.032C753.423 125.509 751.35 130.691 763.788 140.023C776.235 149.355 780.38 150.085 780.38 150.085C780.38 150.085 794.897 162.836 785.565 180.461C776.232 198.09 752.305 252.002 752.305 252.002C752.305 252.002 731.649 294.516 716.093 293.476C700.543 292.44 681.879 258.223 684.99 241.634C688.102 225.047 696.395 194.978 663.214 186.685L638.332 180.461C638.332 180.461 594.785 171.132 603.081 132.766C611.374 94.4037 646.628 85.0714 662.181 87.1469C677.734 89.2165 705.105 101.661 705.105 101.661C705.105 101.661 732.685 106.845 738.906 96.4792C745.129 86.1077 726.256 71.5911 705.105 72.6274C683.954 73.6665 683.954 72.6274 671.51 71.5911C659.069 70.5548 644.552 55.0019 651.809 43.5971C659.069 32.1922 672.549 29.0805 681.879 35.3039C691.211 41.5216 697.223 43.5971 705.105 39.449C710.698 36.5052 705.531 24.1596 699.467 13.5334L696.453 6.8815C618.709 16.3499 558.475 82.5357 558.475 162.839C558.475 164.732 558.55 166.61 558.619 168.489C569.416 172.191 578.624 182.43 573.011 208.455L570.071 222.092Z" fill="#CEDEE7"/>
<path fill-rule="evenodd" clip-rule="evenodd" d="M564.575 242.658C551.355 220.315 543.549 194.425 542.86 166.801L542.776 164.162L542.758 162.836C542.758 77.5106 611.124 7.89463 695.948 5.77286L696.449 6.8815C618.708 16.3499 558.473 82.5386 558.473 162.836C558.473 164.732 558.549 166.61 558.615 168.489C559.25 186.891 563.128 205.037 570.069 222.092C592.529 277.209 645.341 316.718 707.767 319.797C705.168 319.928 702.551 320 699.923 320C643.057 320 593.151 289.641 565.554 244.282L564.575 242.658Z" fill="#DEEDF2"/>
<path fill-rule="evenodd" clip-rule="evenodd" d="M837.407 146.244C830.148 155.576 809.41 146.244 799.045 135.878C788.676 125.509 786.601 113.065 784.528 106.845C782.453 100.624 779.344 93.3674 770.011 94.4037C760.682 95.4399 751.347 98.5517 752.383 112.032C753.422 125.509 751.347 130.691 763.791 140.023C772.263 146.377 776.889 148.745 778.979 149.604L779.341 149.749C779.752 149.911 780.036 149.998 780.198 150.041L780.36 150.082C780.367 150.083 780.373 150.084 780.38 150.085C780.38 150.085 794.897 162.836 785.564 180.461C782.29 186.65 777.213 197.308 772.009 208.539L771.059 210.586L769.638 213.671L768.692 215.727L768.254 216.682L767.38 218.586C762.301 229.694 757.279 240.828 752.314 251.988L752.305 252.002L752.262 252.095C751.191 254.269 731.226 294.487 716.096 293.476C700.543 292.44 681.881 258.226 684.99 241.634C685.63 238.215 686.495 234.223 687.167 229.965L687.361 228.68C689.729 212.528 688.869 193.096 663.217 186.685L638.332 180.461C638.332 180.461 594.785 171.132 603.081 132.766C611.374 94.4037 646.628 85.0714 662.178 87.1468C677.73 89.2165 705.105 101.661 705.105 101.661C705.105 101.661 732.685 106.845 738.906 96.4791C745.129 86.1076 726.256 71.5939 705.105 72.6273C691.992 73.2728 687.008 73.1194 682.151 72.6592L681.207 72.5694C678.532 72.2973 675.742 71.9442 671.51 71.5939C659.069 70.5519 644.555 55.0019 651.809 43.597C659.069 32.1922 672.549 29.0833 681.878 35.3039C691.211 41.5216 697.223 43.597 705.105 39.449C710.582 36.5688 705.742 24.669 699.843 14.1991L699.466 13.5333L696.129 6.16937C746.66 9.96713 790.505 37.6341 816.441 77.9534C816.239 81.0912 816.253 84.2232 816.67 87.1439C818.743 101.661 819.782 108.917 827.039 114.105C830.411 116.513 834.446 121.61 837.083 127.316L837.506 128.271C839.24 132.306 840.224 136.573 839.743 140.376C839.474 142.527 838.742 144.527 837.407 146.244ZM558.616 168.489C568.472 169.589 582.928 179.567 575.257 208.261C573.932 213.211 570.956 217.987 570.07 222.092C563.128 205.037 559.251 186.891 558.616 168.489Z" fill="#9BC3D3"/>
<path fill-rule="evenodd" clip-rule="evenodd" d="M699.92 5.67443C747.652 5.67443 790.446 27.0889 819.294 60.7854C842.828 88.2671 857.084 123.909 857.084 162.839C857.084 246.861 790.797 315.696 707.77 319.8C705.298 319.676 702.869 319.401 700.432 319.166C782.926 311.669 860.679 247.802 841.366 162.839C839.676 155.397 840.793 147.714 839.745 140.376C840.223 136.573 839.238 132.306 837.505 128.271C833.487 110.392 826.357 93.3595 816.44 77.9506L816.443 77.913V77.9535C790.504 37.6312 746.656 9.96428 696.125 6.16652L695.945 5.77574C697.271 5.74101 698.585 5.66864 699.917 5.66864L699.92 5.67443Z" fill="#DEEDF2"/>
<path fill-rule="evenodd" clip-rule="evenodd" d="M601.247 250.083C599.684 250.098 598.121 250.106 596.558 250.109V246.992C598.11 246.992 599.664 246.98 601.218 246.963L601.247 250.083ZM587.593 246.899C588.963 246.925 590.329 246.948 591.698 246.963L591.898 246.966L591.863 250.083C590.417 250.065 588.972 250.042 587.527 250.014L587.171 250.005L587.24 246.887L587.593 246.899ZM610.635 249.88C609.156 249.93 607.673 249.967 606.194 250.002L605.942 250.005L605.876 246.89C607.395 246.857 608.914 246.816 610.432 246.769L610.533 246.766L610.635 249.88ZM578.4 246.589C579.729 246.647 581.057 246.705 582.389 246.748L582.583 246.757L582.479 249.872C580.915 249.818 579.352 249.755 577.789 249.684L577.931 246.569L578.4 246.589ZM620.005 249.493C618.517 249.571 617.023 249.637 615.535 249.701L615.318 249.71L615.191 246.595L616.656 246.531C617.703 246.485 618.751 246.436 619.799 246.381H619.845L620.005 249.493ZM568.926 246.033C570.376 246.138 571.826 246.236 573.279 246.323L573.091 249.432C571.627 249.344 570.163 249.247 568.7 249.142L568.408 249.122L568.634 246.013L568.926 246.033ZM629.369 248.928C627.933 249.027 626.5 249.119 625.064 249.209L624.688 249.232L624.5 246.12C626.054 246.025 627.603 245.923 629.152 245.816L629.369 248.928ZM559.779 245.243C561.183 245.385 562.587 245.518 563.996 245.64L563.721 248.746C562.161 248.61 560.604 248.462 559.046 248.303L559.362 245.203L559.779 245.243ZM638.721 248.187C637.187 248.323 635.653 248.448 634.116 248.572L633.803 245.469C635.344 245.348 636.884 245.219 638.423 245.084H638.446L638.721 248.187ZM550.475 244.155C551.836 244.337 553.199 244.508 554.563 244.67L554.742 244.693L554.377 247.791C552.821 247.606 551.267 247.409 549.714 247.2L550.128 244.109L550.475 244.155ZM648.062 247.284C646.508 247.449 644.953 247.605 643.396 247.756L643.095 244.653C644.609 244.508 646.123 244.355 647.637 244.195L647.735 244.184L648.062 247.284ZM657.383 246.225C655.832 246.416 654.277 246.595 652.723 246.775L652.37 243.677C653.904 243.504 655.438 243.318 656.972 243.133L657.001 243.13L657.383 246.225ZM541.088 242.731C542.55 242.977 544.012 243.214 545.476 243.44L545.06 246.531C543.558 246.301 542.059 246.058 540.561 245.802L540.414 245.776L540.941 242.705L541.088 242.731ZM666.678 245.009C665.149 245.22 663.621 245.426 662.09 245.628L661.629 242.543C663.172 242.34 664.712 242.134 666.252 241.92L666.678 245.009ZM532.181 241.023C533.565 241.315 534.949 241.596 536.338 241.865L535.782 244.934C534.241 244.637 532.703 244.323 531.168 243.993L531.82 240.945L532.181 241.023ZM675.958 243.643C674.522 243.865 673.086 244.082 671.651 244.297L671.321 244.343L670.866 241.26C672.345 241.043 673.825 240.817 675.301 240.589L675.477 240.56L675.958 243.643ZM522.919 238.817C524.357 239.196 525.802 239.561 527.249 239.908L526.569 242.951C525.081 242.595 523.598 242.222 522.12 241.83L521.995 241.796L522.8 238.785L522.919 238.817ZM685.209 242.132C683.678 242.392 682.147 242.65 680.615 242.899L680.083 239.83C681.475 239.602 682.867 239.367 684.26 239.13L684.682 239.057L685.209 242.132ZM694.437 240.476C692.903 240.765 691.366 241.046 689.826 241.321L689.276 238.253C690.806 237.978 692.336 237.698 693.864 237.413L694.437 240.476ZM514.113 236.215C515.514 236.672 516.918 237.112 518.328 237.529L517.453 240.519C516.079 240.114 514.709 239.688 513.343 239.246L512.944 239.112L513.919 236.151L514.113 236.215ZM703.639 238.678C702.259 238.959 700.878 239.234 699.494 239.506L699.043 239.593L698.446 236.536C699.972 236.238 701.496 235.934 703.02 235.624L703.639 238.678ZM712.815 236.745C711.435 237.046 710.057 237.341 708.676 237.636L708.23 237.729L707.588 234.678C709.11 234.359 710.63 234.029 712.15 233.699L712.815 236.745ZM505.313 232.984C506.703 233.555 508.101 234.096 509.511 234.614L508.477 237.558C507.018 237.022 505.568 236.46 504.129 235.87L505.25 232.958L505.313 232.984ZM721.959 234.666C720.564 234.996 719.166 235.318 717.771 235.636L717.392 235.723L716.7 232.683C718.205 232.342 719.71 231.995 721.213 231.641L721.242 231.633L721.959 234.666ZM496.948 229.12C498.282 229.815 499.634 230.475 501 231.106L499.718 233.948C498.3 233.294 496.893 232.605 495.506 231.885L496.896 229.091L496.948 229.12ZM731.069 232.449C729.627 232.814 728.183 233.173 726.738 233.523L726.519 233.578L725.78 230.547C727.213 230.2 728.646 229.844 730.073 229.488L730.308 229.43L731.069 232.449ZM740.144 230.09C738.635 230.495 737.124 230.895 735.613 231.288L734.826 228.272C736.331 227.878 737.837 227.482 739.336 227.079L740.144 230.09ZM489.132 224.466C490.357 225.302 491.607 226.095 492.878 226.854L491.292 229.537C489.96 228.745 488.652 227.912 487.372 227.039L487.265 226.967L489.031 224.393L489.132 224.466ZM749.181 227.586C747.765 227.991 746.35 228.388 744.931 228.784L744.668 228.857L743.834 225.852C745.238 225.464 746.636 225.071 748.034 224.671L748.324 224.587L749.181 227.586ZM758.177 224.932C756.681 225.386 755.184 225.835 753.685 226.278L752.802 223.287L753.882 222.969C754.953 222.651 756.024 222.326 757.095 222.002L757.268 221.947L758.177 224.932ZM482.017 218.743C483.088 219.768 484.209 220.743 485.364 221.675L483.418 224.112C482.188 223.128 481.001 222.086 479.858 220.995L479.8 220.937L481.957 218.688L482.017 218.743ZM767.127 222.127C765.64 222.607 764.149 223.082 762.658 223.545L761.726 220.572C763.144 220.126 764.563 219.675 765.975 219.223L766.169 219.16L767.127 222.127ZM776.028 219.165C774.668 219.629 773.307 220.092 771.947 220.543L771.585 220.665L770.601 217.707C771.953 217.258 773.307 216.801 774.662 216.337L775.018 216.216L776.028 219.165ZM784.874 216.045C783.444 216.566 782.009 217.076 780.573 217.585L780.457 217.626L779.421 214.685C780.862 214.175 782.307 213.66 783.745 213.136L783.809 213.113L784.874 216.045ZM476.185 211.819C476.998 213.046 477.884 214.23 478.833 215.362L476.486 217.411C475.443 216.174 474.473 214.878 473.579 213.53C473.579 213.53 476.127 211.729 476.185 211.819ZM793.66 212.757C792.305 213.278 790.947 213.793 789.59 214.305L789.274 214.421L788.183 211.5C789.462 211.023 790.736 210.539 792.01 210.053C792.186 209.984 792.444 209.686 792.542 209.848C793.084 210.733 793.289 211.787 793.66 212.757ZM802.384 209.295C801.047 209.845 799.704 210.383 798.36 210.916L798.03 211.049L796.881 208.151L797.779 207.792C798.916 207.338 800.051 206.881 801.186 206.417L801.203 206.412L802.384 209.295ZM472.407 203.899C472.836 205.263 473.362 206.597 473.97 207.888L471.174 209.269C470.508 207.879 469.941 206.432 469.472 204.959L469.394 204.704L472.372 203.783L472.407 203.899ZM811.036 205.653C809.652 206.255 808.266 206.846 806.876 207.434L806.72 207.497L805.513 204.626L806.772 204.093C807.69 203.702 808.605 203.309 809.522 202.912L809.797 202.796L811.036 205.653ZM819.607 201.821C818.296 202.426 816.982 203.022 815.667 203.613L815.332 203.76L814.058 200.915C815.413 200.31 816.762 199.699 818.111 199.077L818.302 198.99L819.607 201.821ZM471.081 195.033V195.279C471.093 196.671 471.194 198.058 471.391 199.433L468.311 199.913C468.08 198.327 467.964 196.726 467.964 195.123V195.021L471.081 195.033ZM828.083 197.783C826.771 198.428 825.457 199.062 824.137 199.693L823.856 199.826L822.516 197.013C823.914 196.347 825.312 195.67 826.708 194.987L828.083 197.783ZM836.46 193.528C835.073 194.257 833.681 194.975 832.289 195.684L830.873 192.905C832.181 192.24 833.484 191.565 834.787 190.885L835.009 190.769L836.457 193.528H836.46ZM844.715 189.041C843.349 189.808 841.98 190.564 840.605 191.313L839.111 188.575L840.023 188.08C841.08 187.501 842.136 186.913 843.184 186.323L844.715 189.041ZM472.332 186.204L472.225 186.598C471.889 187.906 471.611 189.238 471.414 190.581L468.326 190.15C468.551 188.572 468.89 187.003 469.304 185.463L469.324 185.382L472.332 186.21V186.204ZM852.832 184.294C851.529 185.081 850.227 185.86 848.91 186.63L848.794 186.699L847.222 184.007C848.559 183.226 849.888 182.43 851.217 181.628L852.832 184.294ZM475.62 177.801L475.368 178.305C474.818 179.434 474.303 180.583 473.837 181.747L473.765 181.929L470.861 180.791C471.446 179.298 472.112 177.839 472.83 176.406L472.838 176.391L475.62 177.801ZM860.789 179.263C859.481 180.126 858.161 180.977 856.835 181.816L855.168 179.182C856.476 178.351 857.779 177.515 859.073 176.664L860.789 179.263ZM868.547 173.919C867.273 174.84 865.985 175.743 864.697 176.635L862.925 174.067C864.17 173.21 865.403 172.339 866.63 171.456L866.717 171.392L868.547 173.919ZM480.338 169.997L479.985 170.504C479.236 171.592 478.518 172.695 477.832 173.821L475.169 172.2C475.996 170.84 476.871 169.511 477.782 168.211L477.788 168.203L480.336 169.997H480.338ZM876.05 168.217C874.886 169.146 873.717 170.061 872.533 170.961L872.33 171.115L870.449 168.634C871.624 167.736 872.793 166.825 873.954 165.901L874.099 165.783C874.753 166.593 875.401 167.404 876.05 168.217ZM486.041 162.798C485.031 163.947 484.049 165.12 483.097 166.315L480.645 164.39C481.629 163.146 482.651 161.933 483.696 160.743L486.041 162.798ZM883.251 162.104C882.108 163.131 880.953 164.144 879.787 165.14L879.697 165.215L877.679 162.839L878.406 162.216C879.312 161.435 880.212 160.645 881.098 159.843L881.159 159.788L883.251 162.104ZM492.415 156.138L491.819 156.719C490.969 157.55 490.132 158.393 489.306 159.247L489.153 159.406L486.906 157.246C487.972 156.135 489.063 155.046 490.172 153.972L490.253 153.894L492.415 156.138ZM890.034 155.501C888.957 156.636 887.854 157.744 886.731 158.835L884.531 156.627L885.121 156.051C885.99 155.194 886.847 154.326 887.689 153.446L887.776 153.35L890.034 155.501ZM499.29 149.958C498.166 150.906 497.056 151.871 495.961 152.852L495.799 152.997L493.715 150.675C494.875 149.633 496.045 148.62 497.232 147.616L497.281 147.572L499.29 149.958ZM896.266 148.337C895.305 149.558 894.315 150.754 893.293 151.926L893.235 151.995L890.882 149.949C891.872 148.814 892.839 147.648 893.776 146.461L893.811 146.409L896.266 148.337ZM506.538 144.177C505.322 145.098 504.115 146.03 502.919 146.985L500.931 144.582C502.158 143.601 503.403 142.64 504.659 141.688L506.541 144.177H506.538ZM901.696 140.486C900.894 141.824 900.046 143.132 899.163 144.412L899.102 144.498L896.541 142.721C897.389 141.497 898.199 140.249 898.966 138.972L899.024 138.883L901.696 140.486ZM514.075 138.761C512.845 139.601 511.624 140.457 510.414 141.326L510.272 141.427L508.454 138.894C509.686 138.011 510.927 137.14 512.177 136.28L512.31 136.188L514.075 138.761ZM905.934 131.86C905.37 133.326 904.739 134.765 904.044 136.173L904 136.272L901.201 134.891C901.858 133.56 902.466 132.19 903.002 130.798L903.022 130.74L905.934 131.86ZM521.839 133.661C520.588 134.448 519.341 135.25 518.099 136.063L517.928 136.173L516.22 133.568C517.468 132.749 518.724 131.939 519.989 131.142L520.177 131.021L521.839 133.661ZM529.793 128.847C528.473 129.617 527.156 130.399 525.845 131.192L524.181 128.552C525.469 127.77 526.763 127.006 528.059 126.248L528.224 126.152L529.793 128.847ZM908.362 122.473C908.146 124.081 907.832 125.674 907.422 127.243L904.408 126.453L904.507 126.062L904.602 125.672C904.877 124.517 905.1 123.35 905.257 122.178L905.271 122.062L908.362 122.473ZM537.907 124.291L536.656 124.971C535.568 125.57 534.089 126.395 534.089 126.395L533.831 126.54L532.306 123.819C533.64 123.069 534.98 122.331 536.324 121.602L536.422 121.55C536.914 122.464 537.412 123.376 537.907 124.291ZM546.154 119.972C544.769 120.673 543.389 121.383 542.014 122.103L540.567 119.341C541.948 118.617 543.331 117.908 544.718 117.205L544.747 117.19L546.154 119.972ZM550.435 117.842L550.319 117.9L548.95 115.098L549.066 115.04L550.435 117.842ZM908.247 112.718C908.499 114.319 908.637 115.934 908.661 117.555L905.543 117.619C905.526 116.143 905.4 114.67 905.167 113.213L908.241 112.698C908.245 112.704 908.247 112.711 908.247 112.718ZM905.294 103.476C905.983 104.894 906.579 106.359 907.071 107.855L904.128 108.889C903.67 107.476 903.111 106.099 902.454 104.767L905.248 103.389L905.294 103.476ZM899.887 95.3706C900.929 96.5863 901.902 97.8484 902.79 99.1683L900.208 100.911L900 100.607C899.23 99.4979 898.402 98.4294 897.522 97.4055L897.476 97.3476L899.841 95.3127L899.887 95.3706ZM892.969 88.7737C894.161 89.7289 895.319 90.7218 896.431 91.7668L896.489 91.8247L894.352 94.0911C893.248 93.0542 892.101 92.0643 890.914 91.1242L892.853 88.684L892.969 88.7737ZM885.037 83.3694C886.375 84.1568 887.689 84.9846 888.974 85.8501L887.232 88.435C885.998 87.603 884.74 86.8095 883.457 86.0556L883.359 85.9978L884.942 83.3086L885.04 83.3665L885.037 83.3694ZM876.588 78.984C877.948 79.6064 879.297 80.2577 880.629 80.9437L880.768 81.0132L879.341 83.7863C878.005 83.0996 876.654 82.4433 875.288 81.8179L875.202 81.7774L876.495 78.9406L876.588 78.984ZM867.809 75.3976C869.259 75.9273 870.7 76.4802 872.13 77.062L870.967 79.9509C869.566 79.3835 868.159 78.8451 866.74 78.3299L866.654 78.2951L867.725 75.3658L867.809 75.3976ZM858.766 72.4393C860.265 72.8793 861.759 73.3424 863.247 73.8258L862.286 76.7928C860.827 76.3192 859.362 75.8657 857.892 75.4323L858.737 72.4335C858.748 72.4335 858.754 72.4364 858.766 72.4393ZM849.656 70.0309C851.133 70.3841 852.606 70.7517 854.071 71.1367L854.192 71.1656L853.399 74.1818L852.849 74.0371C851.549 73.7013 850.244 73.3771 848.936 73.0645L849.616 70.0252L849.656 70.0309ZM840.405 68.0626C841.948 68.3549 843.485 68.6647 845.019 68.9889L844.371 72.0398C842.857 71.72 841.34 71.4151 839.82 71.1251C839.82 71.1251 840.307 68.0452 840.405 68.0626ZM831.626 66.5574C832.946 66.76 834.26 66.9713 835.58 67.1942L835.771 67.226L835.247 70.3001C833.719 70.0412 832.188 69.7962 830.656 69.5649L831.125 66.4821L831.626 66.5574Z" fill="#1BB3BC"/>
<path fill-rule="evenodd" clip-rule="evenodd" d="M840.504 276.146H850.702V265.949H840.504V276.146Z" fill="#9E3667"/>
<path fill-rule="evenodd" clip-rule="evenodd" d="M813.673 6.16946C813.691 7.00894 813.541 7.84359 813.233 8.62448C812.924 9.40537 812.463 10.1168 811.876 10.717C811.288 11.3172 810.587 11.7941 809.813 12.1197C809.039 12.4454 808.208 12.6132 807.368 12.6134C806.529 12.6136 805.697 12.4462 804.923 12.1209C804.149 11.7956 803.448 11.319 802.86 10.719C802.273 10.1191 801.811 9.40792 801.502 8.62717C801.193 7.84643 801.043 7.01184 801.061 6.17236C801.096 4.52331 801.776 2.95371 802.955 1.79994C804.134 0.646179 805.718 6.10352e-05 807.367 6.10352e-05C809.016 6.10352e-05 810.6 0.646179 811.779 1.79994C812.958 2.95371 813.638 4.52041 813.673 6.16946Z" fill="#FFCC33"/>
<path fill-rule="evenodd" clip-rule="evenodd" d="M525.42 248.725H538.166V235.983H525.42V248.725ZM540.713 299.266C542.212 299.344 543.712 299.396 545.214 299.422L545.211 302.54C543.656 302.513 542.101 302.459 540.548 302.378L540.646 299.263H540.713V299.266ZM554.662 302.38C553.226 302.45 551.793 302.496 550.358 302.528L549.941 302.537L549.883 299.419C551.422 299.391 552.96 299.341 554.497 299.269H554.509L554.662 302.38ZM564.07 301.671C562.547 301.828 561.022 301.961 559.496 302.079L559.369 302.088L559.137 298.979C560.666 298.863 562.185 298.727 563.705 298.574L563.751 298.571L564.07 301.671ZM531.543 298.371C533.03 298.586 534.524 298.765 536.021 298.913L535.751 302.019C534.194 301.868 532.64 301.681 531.091 301.457L531.485 298.363L531.543 298.371ZM573.419 300.51C571.865 300.739 570.309 300.95 568.75 301.144L568.362 298.05C569.887 297.859 571.41 297.652 572.93 297.431L572.965 297.425L573.419 300.51ZM522.63 296.551C524.06 296.936 525.501 297.274 526.952 297.572L526.344 300.629C524.824 300.321 523.314 299.965 521.817 299.561L521.695 299.529L522.511 296.519L522.63 296.551ZM582.702 298.962C581.209 299.24 579.712 299.503 578.216 299.755L578.068 299.781L577.556 296.704C579.061 296.455 580.572 296.183 582.077 295.908L582.129 295.896L582.702 298.962ZM514.024 293.491C515.376 294.108 516.754 294.66 518.152 295.158L517.119 298.099C515.631 297.572 514.167 296.981 512.73 296.328L512.658 296.296L513.955 293.459L514.024 293.494V293.491ZM591.919 297.08C590.387 297.419 588.853 297.745 587.316 298.059L586.691 295.005C588.153 294.707 589.609 294.397 591.062 294.076L591.242 294.035L591.919 297.08ZM601.06 294.904C599.54 295.289 598.021 295.662 596.498 296.027L595.775 292.993L596.698 292.773C597.896 292.484 599.095 292.185 600.293 291.882L601.06 294.904ZM506.238 288.874C507.41 289.771 508.64 290.593 509.908 291.346L508.368 294.058C506.979 293.239 505.63 292.333 504.342 291.349C504.342 291.349 506.154 288.81 506.238 288.874ZM610.132 292.463C608.719 292.863 607.304 293.257 605.888 293.639L605.605 293.714L604.794 290.703C606.299 290.298 607.79 289.887 609.284 289.465L610.132 292.463ZM619.134 289.789C617.641 290.252 616.144 290.706 614.645 291.155L613.753 288.168C615.18 287.742 616.601 287.311 618.02 286.871L618.211 286.813L619.134 289.789ZM628.067 286.894C626.698 287.357 625.323 287.812 623.948 288.257L623.612 288.367L622.648 285.403C624.061 284.946 625.474 284.477 626.88 284.005L627.071 283.942L628.067 286.894ZM500.061 282.645C500.917 283.794 501.849 284.877 502.851 285.895L500.668 288.124C499.578 287.025 498.565 285.85 497.638 284.61L497.481 284.399L499.991 282.546L500.061 282.645ZM636.928 283.803C635.457 284.332 633.984 284.856 632.507 285.372L631.48 282.431C632.945 281.918 634.409 281.397 635.871 280.867L636.928 283.803ZM645.724 280.52C644.341 281.053 642.957 281.577 641.568 282.098L641.336 282.185L640.245 279.261C641.666 278.734 643.087 278.193 644.506 277.649L644.601 277.611L645.724 280.52ZM495.921 274.795C496.399 276.155 496.966 277.475 497.632 278.76L494.885 280.234C494.143 278.811 493.505 277.337 492.977 275.822L492.946 275.727L495.892 274.708L495.921 274.795ZM654.446 277.067C653.065 277.628 651.679 278.184 650.292 278.737L650.092 278.815L648.946 275.918C650.373 275.35 651.8 274.777 653.227 274.198L653.271 274.181L654.446 277.067ZM663.101 273.449C661.778 274.013 660.455 274.575 659.127 275.13L658.782 275.275L657.578 272.401C659.011 271.799 660.442 271.192 661.871 270.58L663.101 273.446V273.449ZM671.686 269.668C670.282 270.302 668.873 270.927 667.463 271.55L666.149 268.722C667.562 268.1 668.973 267.471 670.381 266.837L670.404 266.826L671.686 269.668ZM494.167 266.038C494.274 267.5 494.459 268.956 494.737 270.395L491.681 271.003C491.377 269.434 491.169 267.849 491.058 266.255L491.052 266.177L494.164 265.963L494.167 266.038ZM680.205 265.74C678.793 266.406 677.374 267.066 675.956 267.723L674.648 264.892C676.028 264.255 677.406 263.613 678.781 262.964L678.874 262.921L680.205 265.74ZM688.655 261.667C687.251 262.359 685.847 263.042 684.437 263.723L683.083 260.915C684.472 260.243 685.861 259.566 687.248 258.886L687.277 258.871L688.655 261.667ZM494.494 256.946L494.422 257.505L494.358 258.049C494.237 259.172 494.15 260.301 494.1 261.433L490.986 261.334L491.003 260.932C491.078 259.467 491.21 258.005 491.4 256.55L491.403 256.532L494.494 256.946ZM697.029 257.456C695.654 258.162 694.279 258.86 692.898 259.554L691.451 256.793L692.716 256.156L695.608 254.68L697.026 257.459L697.029 257.456ZM705.339 253.114C704.057 253.794 702.772 254.474 701.487 255.149L701.191 255.302L699.747 252.538C701.07 251.846 702.393 251.148 703.713 250.445L703.872 250.358L705.339 253.111V253.114ZM496.376 248.025L496.214 248.618C495.895 249.773 495.606 250.931 495.351 252.098L495.273 252.459L492.225 251.805C492.558 250.251 492.948 248.708 493.38 247.177V247.168L496.376 248.025ZM713.578 248.633C712.22 249.385 710.857 250.132 709.496 250.873L707.979 248.152C709.218 247.478 710.457 246.798 711.693 246.114L712.069 245.906L713.578 248.633ZM721.746 244.03C720.392 244.812 719.034 245.582 717.673 246.349L716.139 243.634C717.497 242.87 718.849 242.1 720.198 241.327L721.746 244.03ZM499.389 239.35C498.816 240.762 498.275 242.195 497.768 243.64L494.821 242.626C495.341 241.13 495.901 239.647 496.5 238.18L499.389 239.35ZM729.845 239.303C728.63 240.024 727.417 240.739 726.201 241.451L725.804 241.683L724.233 238.991C725.579 238.206 726.916 237.416 728.253 236.623L729.845 239.303ZM737.866 234.455C736.665 235.193 735.461 235.928 734.254 236.661L733.866 236.892L732.254 234.226L733.252 233.621L736.237 231.798L737.866 234.455ZM503.221 230.964C502.528 232.338 501.859 233.725 501.215 235.124L498.385 233.821C499.027 232.42 499.696 231.031 500.391 229.653L500.44 229.554L503.221 230.964ZM745.821 229.482C744.614 230.252 743.398 231.016 742.185 231.777L741.855 231.98L740.202 229.34C741.514 228.521 742.816 227.696 744.119 226.871L744.148 226.851L745.821 229.482ZM753.694 224.387C752.45 225.204 751.205 226.017 749.954 226.828L749.766 226.949L748.073 224.332C749.309 223.533 750.542 222.726 751.775 221.918L751.978 221.782L753.694 224.387ZM507.673 222.859C507.529 223.099 507.39 223.342 507.248 223.583C507.074 223.881 506.901 224.176 506.733 224.474C506.275 225.27 505.824 226.072 505.381 226.877L502.648 225.372C503.398 224.011 504.168 222.665 504.958 221.325L504.993 221.267L507.673 222.859ZM761.484 219.168C760.193 220.048 758.896 220.922 757.599 221.794L755.862 219.203C757.156 218.335 758.444 217.466 759.73 216.592L761.484 219.168ZM512.615 215.015C511.766 216.285 510.936 217.565 510.119 218.856L507.453 217.243C508.197 216.057 508.962 214.881 509.74 213.712L510.021 213.286C510.884 213.865 511.749 214.438 512.615 215.015ZM769.192 213.828C767.988 214.673 766.781 215.518 765.574 216.358L765.348 216.514L763.574 213.949C764.769 213.121 765.959 212.288 767.146 211.451L767.395 211.278L769.189 213.825L769.192 213.828ZM517.941 207.416C517.058 208.614 516.189 209.824 515.33 211.043L515.231 211.185L512.678 209.396C513.492 208.234 514.319 207.081 515.159 205.937L515.431 205.569L517.941 207.416ZM776.808 208.354C775.667 209.188 774.521 210.015 773.375 210.843L773.01 211.104L771.189 208.571C772.402 207.703 773.612 206.826 774.819 205.946L774.967 205.836L776.808 208.354ZM784.334 202.756C783.089 203.699 781.836 204.637 780.583 205.572L778.721 203.071L779.645 202.382L782.288 200.397L782.452 200.272L784.334 202.756ZM523.597 200.049C522.675 201.208 521.761 202.374 520.856 203.546L520.734 203.708L518.259 201.812C519.169 200.627 520.088 199.45 521.018 198.281L521.16 198.107L523.597 200.049ZM791.765 197.036C790.636 197.922 789.501 198.802 788.366 199.682L788.062 199.913L786.161 197.447C787.289 196.573 788.418 195.696 789.541 194.816L789.84 194.584L791.765 197.036ZM529.522 192.882C528.526 194.046 527.539 195.218 526.564 196.396L524.124 194.454L524.766 193.678C525.516 192.781 526.271 191.889 527.027 191.001L527.151 190.856L529.522 192.882ZM799.091 191.174C797.91 192.135 796.723 193.093 795.536 194.046L795.441 194.121L793.493 191.687C794.691 190.731 795.878 189.767 797.065 188.801L797.12 188.757L799.091 191.174ZM535.679 185.906C534.703 186.983 533.732 188.064 532.767 189.151L532.573 189.371L530.237 187.307C531.25 186.161 532.272 185.023 533.3 183.891L533.375 183.81L535.679 185.906ZM806.301 185.177C805.196 186.114 804.081 187.049 802.967 187.979L802.709 188.193L800.718 185.793C801.913 184.8 803.103 183.799 804.287 182.797L806.301 185.177ZM542.044 179.115C541.098 180.097 540.16 181.084 539.222 182.079L538.837 182.49L536.565 180.357C537.627 179.222 538.698 178.096 539.778 176.973L539.798 176.953L542.044 179.115ZM813.399 179.034C812.314 179.989 811.225 180.945 810.131 181.894L809.868 182.123L807.827 179.764C808.996 178.751 810.16 177.737 811.318 176.713L811.335 176.698L813.399 179.034ZM820.366 172.744C819.258 173.769 818.14 174.785 817.023 175.798L816.899 175.908L814.812 173.592C815.888 172.623 816.959 171.641 818.03 170.657L818.253 170.454L820.366 172.744ZM545.385 175.691L545.298 175.781L543.078 173.589L543.165 173.503L545.385 175.691ZM827.198 166.301C826.069 167.389 824.937 168.469 823.799 169.543L821.657 167.276C822.737 166.257 823.808 165.235 824.876 164.208L825.03 164.06L827.198 166.301ZM833.87 159.698C832.842 160.74 831.809 161.773 830.773 162.801L830.553 163.021L828.359 160.804C829.464 159.712 830.558 158.613 831.653 157.507C832.388 158.239 833.129 158.969 833.87 159.698ZM840.377 152.922C839.306 154.065 838.229 155.2 837.144 156.332L834.895 154.172C835.914 153.113 836.921 152.047 837.925 150.976L838.099 150.791L840.377 152.922ZM846.69 145.963C845.66 147.138 844.612 148.305 843.561 149.465L841.251 147.37C842.293 146.221 843.327 145.066 844.354 143.902L846.69 145.963ZM852.792 138.807C851.822 139.983 850.844 141.146 849.86 142.31L849.77 142.411L847.402 140.385C848.408 139.207 849.403 138.021 850.387 136.825C851.191 137.485 851.993 138.145 852.792 138.807ZM858.648 131.438C857.693 132.682 856.729 133.921 855.753 135.149L853.313 133.209C854.277 131.993 855.229 130.778 856.17 129.545L858.648 131.438ZM864.206 123.836C863.308 125.124 862.394 126.401 861.467 127.669L858.949 125.828C859.841 124.612 860.721 123.382 861.589 122.143L861.653 122.053C862.504 122.647 863.358 123.24 864.206 123.836ZM869.416 115.98C868.629 117.239 867.821 118.49 867.002 119.732L866.863 119.94L864.264 118.218C865.086 116.979 865.885 115.737 866.675 114.484L866.776 114.322L869.419 115.98H869.416ZM874.198 107.832C873.463 109.184 872.707 110.518 871.929 111.844L871.871 111.942L869.182 110.365C869.344 110.093 869.503 109.815 869.662 109.54C870.25 108.527 870.826 107.502 871.39 106.474L871.465 106.338L874.198 107.832ZM878.439 99.3651C877.79 100.795 877.113 102.208 876.412 103.606L873.607 102.245C874.296 100.873 874.962 99.4838 875.593 98.0828L878.439 99.3651ZM881.959 90.5452C881.451 92.0145 880.91 93.4719 880.335 94.9161L880.3 95.0029L877.405 93.845C877.964 92.4469 878.494 91.0286 878.989 89.5986L879.006 89.5378L881.959 90.5452ZM884.497 81.346C884.193 82.8167 883.841 84.2774 883.443 85.7256L883.371 85.9948L880.369 85.1582L880.526 84.5851C880.844 83.3925 881.134 82.1883 881.388 80.9755L881.446 80.7179L884.497 81.346ZM885.658 71.8053C885.607 73.412 885.482 75.0154 885.282 76.6104L882.19 76.2283L882.254 75.6841C882.393 74.4336 882.488 73.1773 882.535 71.9182L882.54 71.7156L885.658 71.8053ZM884.882 62.2646C885.195 63.8161 885.415 65.3879 885.542 66.9626L882.436 67.2115C882.316 65.7228 882.106 64.2428 881.805 62.7798L884.856 62.143L884.885 62.2646H884.882ZM881.536 52.9728C882.303 54.3998 882.963 55.8819 883.519 57.4045L880.595 58.4929C880.094 57.1043 879.491 55.7546 878.792 54.4548L881.524 52.9554C881.528 52.9613 881.532 52.9671 881.536 52.9728ZM875.7 45.221C876.789 46.3007 877.805 47.4498 878.74 48.6627L878.867 48.8306L876.383 50.7121L876.189 50.4602C875.346 49.372 874.43 48.3421 873.448 47.3775L875.628 45.1515C875.657 45.1746 875.677 45.1978 875.7 45.221ZM867.928 39.3506C869.306 40.1524 870.646 41.0237 871.923 41.9761L870.053 44.477C869.851 44.3221 869.645 44.1716 869.436 44.0255C868.446 43.3192 867.422 42.6621 866.368 42.0513L867.859 39.3101L867.928 39.3506ZM859.221 35.4023C860.66 35.9089 862.081 36.4676 863.476 37.087L863.552 37.1218L862.278 39.9643C860.939 39.3671 859.575 38.8263 858.191 38.3433L858.052 38.297L859.076 35.3531L859.221 35.4023ZM798.636 36.9741L797.962 37.0899C796.659 37.3128 795.357 37.5473 794.06 37.7904L793.487 34.7279C795.027 34.4384 796.57 34.1605 798.118 33.9L798.636 36.9741ZM849.958 32.9101C851.475 33.214 852.986 33.5614 854.488 33.9579L853.689 36.9712C852.253 36.5912 850.805 36.2562 849.348 35.9668L849.235 35.9436L849.843 32.8869L849.958 32.9101ZM807.824 35.6108C806.289 35.808 804.755 36.0203 803.224 36.2476L802.761 33.1619C804.315 32.9311 805.872 32.7169 807.43 32.5193L807.824 35.6108ZM840.533 31.5525C842.021 31.6972 843.512 31.8651 844.991 32.0735L845.147 32.0938L844.707 35.1795C843.223 34.9722 841.734 34.7985 840.241 34.6584L840.137 34.6468L840.426 31.5438L840.533 31.5525ZM817.049 34.6613L816.491 34.7047C815.15 34.8147 813.81 34.9392 812.473 35.0753L812.111 31.978C813.634 31.8206 815.158 31.6817 816.684 31.5612L816.809 31.5525L817.049 34.6613ZM826.3 34.1953L825.296 34.2184C824.101 34.2532 822.902 34.2995 821.707 34.3603L821.516 31.2485C822.959 31.1749 824.404 31.1208 825.849 31.0864L826.237 31.0778L826.3 34.1953ZM831.062 31.0604C832.605 31.0819 834.147 31.1302 835.688 31.2051L835.54 34.3198C834.033 34.2443 832.525 34.1961 831.016 34.175H830.929L830.964 31.0604H831.062Z" fill="#137E84"/>
<path fill-rule="evenodd" clip-rule="evenodd" d="M805.403 252.138C806.793 252.153 808.188 252.158 809.578 252.158H809.838L809.844 255.273C808.35 255.276 806.862 255.27 805.374 255.256H805.149L805.181 252.138H805.403ZM819.234 255.146C817.795 255.183 816.357 255.212 814.915 255.233L814.539 255.238L814.495 252.121L815.451 252.106C816.609 252.089 817.766 252.063 818.924 252.034L819.15 252.028L819.234 255.146ZM796.288 251.95C797.701 251.994 799.111 252.028 800.523 252.06L800.457 255.178C798.893 255.143 797.33 255.102 795.767 255.05L795.866 251.936L796.288 251.95ZM828.621 254.769C827.145 254.848 825.663 254.914 824.184 254.978L823.926 254.987L823.805 251.872L824.624 251.84C825.9 251.782 827.177 251.724 828.456 251.658L828.621 254.769ZM786.956 251.556C788.374 251.632 789.793 251.701 791.211 251.759L791.075 254.874C789.512 254.807 787.949 254.732 786.389 254.651L786.554 251.536L786.956 251.556ZM837.997 254.133C836.434 254.26 834.871 254.379 833.314 254.486L833.099 251.377C834.645 251.27 836.194 251.154 837.742 251.024C837.823 252.06 837.91 253.096 837.997 254.133ZM777.418 250.96C778.909 251.07 780.4 251.171 781.893 251.267L781.705 254.379L780.414 254.292C779.343 254.222 778.266 254.147 777.192 254.072L777.024 254.057L777.25 250.949L777.418 250.96ZM847.355 253.201C845.795 253.383 844.241 253.548 842.681 253.704L842.371 250.601L843.115 250.529C844.406 250.396 845.7 250.254 846.994 250.103L847.355 253.201ZM768.343 250.219C769.646 250.335 770.949 250.451 772.251 250.561L772.601 250.59L772.347 253.696C770.789 253.568 769.231 253.432 767.675 253.29L767.958 250.184L768.343 250.219ZM759.11 249.293C760.435 249.438 761.758 249.576 763.084 249.713L763.315 249.736L763.006 252.839C761.593 252.694 760.181 252.549 758.771 252.393L758.34 252.347L758.681 249.249L759.11 249.293ZM856.679 251.936C855.129 252.176 853.576 252.402 852.022 252.613L851.608 249.521L852.308 249.426C853.611 249.246 854.91 249.055 856.204 248.856L856.679 251.936ZM749.728 248.187C751.074 248.361 752.42 248.523 753.766 248.685L754.047 248.72L753.682 251.814C752.233 251.642 750.785 251.464 749.337 251.281L749.028 251.241L749.421 248.149L749.728 248.187ZM865.956 250.3C864.512 250.59 863.065 250.856 861.614 251.116L861.325 251.169L860.784 248.097C862.284 247.831 863.781 247.55 865.276 247.255L865.343 247.241L865.956 250.3ZM740.213 246.899C741.739 247.119 743.267 247.333 744.798 247.542L744.376 250.63C742.842 250.419 741.305 250.205 739.768 249.985L740.179 246.893L740.213 246.899ZM875.155 248.222C873.682 248.595 872.203 248.948 870.724 249.284L870.57 249.319L869.881 246.279C871.326 245.952 872.765 245.611 874.197 245.249L874.394 245.2L875.155 248.222ZM731.263 245.536C732.644 245.756 734.025 245.97 735.405 246.184L735.565 246.207L735.096 249.29C733.651 249.07 732.21 248.844 730.771 248.613L730.464 248.563L730.956 245.486L731.263 245.536ZM722.212 244.013C723.592 244.256 724.976 244.493 726.357 244.728L725.836 247.802C724.446 247.565 723.057 247.327 721.673 247.081L721.216 247.003L721.76 243.932L722.212 244.013ZM884.239 245.634C882.803 246.091 881.359 246.528 879.908 246.942L879.717 247L878.864 243.999C880.282 243.593 881.694 243.171 883.101 242.725L883.292 242.664L884.239 245.634ZM713.07 242.328C714.437 242.589 715.803 242.849 717.172 243.101L716.602 246.167C715.067 245.883 713.532 245.593 711.999 245.298L712.587 242.236L713.07 242.328ZM703.845 240.482C705.235 240.771 706.624 241.055 708.013 241.333L707.397 244.389C705.999 244.109 704.604 243.822 703.211 243.535L702.806 243.449L703.443 240.398L703.845 240.484V240.482ZM893.146 242.421C891.71 243.006 890.263 243.556 888.807 244.082L888.72 244.111L887.666 241.179L888.5 240.878C889.666 240.447 890.827 240.001 891.979 239.532L893.146 242.421ZM694.545 238.473C695.978 238.791 697.41 239.109 698.846 239.419L698.221 242.476C696.767 242.16 695.314 241.84 693.862 241.515L693.642 241.466L694.325 238.423L694.545 238.473ZM901.777 238.444C900.463 239.133 899.138 239.784 897.794 240.409L897.508 240.539L896.205 237.708L896.816 237.425C897.91 236.912 898.993 236.38 900.064 235.824L900.33 235.685L901.777 238.444ZM685.898 236.472C687.1 236.759 688.301 237.043 689.508 237.323L689.774 237.384L689.071 240.424C687.549 240.07 686.028 239.711 684.509 239.347L685.233 236.313L685.898 236.472ZM676.502 234.157C677.901 234.51 679.302 234.863 680.703 235.21L679.953 238.235C678.546 237.888 677.139 237.532 675.732 237.176L675.408 237.092L676.178 234.073L676.502 234.157ZM909.943 233.505C908.727 234.356 907.483 235.167 906.215 235.943L905.937 236.108L904.325 233.442C905.591 232.677 906.832 231.872 908.047 231.028L908.16 230.952L909.943 233.505ZM667.214 231.711C668.638 232.099 670.059 232.478 671.483 232.854L671.663 232.9L670.869 235.917C669.378 235.523 667.889 235.125 666.4 234.721L667.159 231.696L667.216 231.714L667.214 231.711ZM658.761 229.357C659.934 229.693 661.1 230.023 662.272 230.35L662.66 230.46L661.821 233.462C660.316 233.042 658.81 232.617 657.311 232.186L658.171 229.19L658.761 229.357ZM649.747 226.703C651.061 227.103 652.376 227.496 653.693 227.884L652.81 230.874C651.31 230.431 649.814 229.983 648.317 229.528L649.223 226.547L649.747 226.703ZM917.336 227.351C916.21 228.48 915.02 229.551 913.79 230.576L911.778 228.197C912.936 227.236 914.051 226.223 915.113 225.163L915.125 225.154L917.336 227.351ZM640.878 223.944C642.175 224.358 643.469 224.767 644.769 225.175L643.836 228.15C642.346 227.684 640.857 227.212 639.37 226.735L640.319 223.765L640.878 223.944ZM631.505 220.862C632.837 221.31 634.168 221.756 635.5 222.196L635.885 222.323L634.909 225.285C633.436 224.801 631.971 224.309 630.507 223.814L631.462 220.847L631.505 220.862ZM923.374 219.776C922.529 221.148 921.594 222.468 920.587 223.727L918.138 221.8C919.076 220.633 919.941 219.411 920.723 218.141L923.374 219.776ZM622.969 217.9C624.272 218.364 625.58 218.827 626.888 219.278L627.048 219.336L626.026 222.28C624.657 221.805 623.29 221.325 621.924 220.839L621.603 220.723L622.651 217.788L622.969 217.9ZM613.97 214.612C615.4 215.148 616.83 215.677 618.265 216.204L617.194 219.131C615.75 218.604 614.311 218.068 612.875 217.533L612.794 217.504L613.891 214.58L613.97 214.612ZM605.801 211.471C607.043 211.961 608.287 212.444 609.535 212.925L608.412 215.834C606.953 215.272 605.497 214.705 604.044 214.129L605.187 211.228L605.801 211.471ZM927.294 210.835C926.859 212.412 926.309 213.955 925.65 215.452L922.798 214.195L922.934 213.88C923.461 212.635 923.91 211.361 924.277 210.062L924.292 210.007L927.294 210.835ZM596.602 207.749C598.02 208.337 599.439 208.921 600.863 209.5L599.687 212.386C598.258 211.807 596.83 211.22 595.403 210.626L596.55 207.726L596.602 207.749ZM588.251 204.183C589.582 204.765 590.917 205.341 592.254 205.914L591.03 208.779C589.684 208.206 588.34 207.622 587 207.037L586.725 206.915L587.976 204.061L588.251 204.183ZM928.709 201.233C928.669 202.825 928.535 204.409 928.304 205.98L928.289 206.076L925.207 205.621L925.267 205.193C925.441 203.888 925.548 202.573 925.589 201.256L925.592 201.152L928.709 201.233ZM579.561 200.272C580.901 200.889 582.241 201.502 583.585 202.107L583.718 202.165L582.438 205.011L581.139 204.423C580.175 203.986 579.214 203.543 578.253 203.1L578.166 203.063L579.48 200.232L579.561 200.272ZM571.152 196.278C572.446 196.906 573.743 197.531 575.043 198.15L575.26 198.255L573.922 201.068C572.542 200.414 571.161 199.748 569.783 199.077L569.693 199.03L571.062 196.231L571.152 196.278ZM563.03 192.202C564.28 192.845 565.531 193.481 566.784 194.112L566.885 194.162L565.487 196.949L564.298 196.35C563.398 195.893 562.5 195.434 561.603 194.972L561.305 194.819L562.735 192.048L563.03 192.202ZM927.815 191.594C928.136 193.148 928.379 194.72 928.538 196.306L925.441 196.668C925.302 195.177 925.076 193.696 924.764 192.231L927.812 191.58L927.815 191.594ZM554.702 187.776C556.005 188.488 557.307 189.191 558.613 189.886L557.148 192.636C555.831 191.936 554.514 191.226 553.205 190.511L553.017 190.407L554.514 187.675L554.702 187.776ZM546.724 183.281C547.96 183.999 549.199 184.711 550.444 185.411L548.91 188.126C547.656 187.417 546.406 186.702 545.158 185.978L544.84 185.79L546.403 183.098C546.513 183.156 546.62 183.22 546.724 183.281ZM924.903 182.441C925.513 183.889 926.072 185.359 926.553 186.853L923.606 187.863L923.45 187.382C923.03 186.123 922.552 184.881 922.034 183.657L924.885 182.392C924.889 182.408 924.895 182.426 924.903 182.441ZM538.648 178.435C539.893 179.205 541.141 179.969 542.394 180.722L540.793 183.396C539.52 182.635 538.26 181.862 537.004 181.081L536.781 180.945L538.428 178.296L538.648 178.435ZM920.561 174.093C921.342 175.375 922.086 176.675 922.79 178.001L920.057 179.506C919.349 178.158 918.594 176.835 917.793 175.54L920.445 173.905L920.561 174.093ZM531.004 173.534C532.161 174.301 533.328 175.063 534.494 175.818L532.807 178.438C531.49 177.59 530.179 176.73 528.876 175.862L530.604 173.268L531.004 173.534ZM522.991 167.994C524.224 168.883 525.466 169.76 526.717 170.628L524.986 173.219C523.705 172.333 522.432 171.436 521.168 170.527L522.962 167.977L522.991 167.994ZM915.133 166.315C916.034 167.473 916.911 168.654 917.759 169.852L917.817 169.931L915.269 171.725L914.922 171.245C914.144 170.159 913.343 169.089 912.519 168.037L914.977 166.118L915.133 166.315ZM515.555 162.407C516.765 163.36 517.986 164.298 519.219 165.224L517.347 167.716C516.099 166.778 514.857 165.826 513.63 164.862L515.54 162.396L515.555 162.407ZM908.936 159.055C909.963 160.167 910.968 161.299 911.961 162.445L909.596 164.48C908.597 163.313 907.57 162.167 906.522 161.038L908.809 158.919C908.849 158.966 908.898 159.009 908.936 159.055ZM508.55 156.647C509.65 157.597 510.758 158.534 511.879 159.455L509.939 161.898C508.844 160.997 507.759 160.083 506.686 159.157L506.338 158.856L508.376 156.499L508.55 156.647ZM902.249 152.296C903.355 153.353 904.452 154.421 905.529 155.509L903.317 157.707C902.258 156.641 901.184 155.59 900.096 154.554L900.009 154.467L902.157 152.21L902.249 152.296ZM501.585 150.273C502.671 151.327 503.768 152.363 504.885 153.385L502.81 155.715C501.662 154.663 500.529 153.595 499.411 152.511L501.551 150.241L501.585 150.273ZM895.317 146.009C896.428 146.973 897.531 147.949 898.619 148.933L898.695 148.999L896.608 151.312C895.506 150.318 894.395 149.336 893.273 148.366L893.128 148.235L895.166 145.879L895.317 146.009ZM495.185 143.615C496.172 144.717 497.176 145.801 498.199 146.869L498.285 146.962L496.039 149.121C494.958 147.999 493.898 146.856 492.861 145.694L495.148 143.575L495.185 143.615ZM888.132 140.009C889.276 140.932 890.407 141.861 891.533 142.796L889.585 145.228C888.456 144.289 887.32 143.358 886.178 142.434L885.987 142.284L887.944 139.855L888.132 140.009ZM489.405 136.555C490.259 137.702 491.139 138.828 492.039 139.931L492.155 140.075L489.741 142.044C488.771 140.857 487.821 139.65 486.904 138.42L486.817 138.304L489.321 136.443L489.405 136.555ZM880.884 134.298C882.016 135.172 883.145 136.049 884.271 136.932L882.346 139.383C881.231 138.509 880.108 137.638 878.982 136.773L878.664 136.529L880.566 134.054C880.67 134.136 880.774 134.217 880.884 134.298ZM484.31 128.859C485.051 130.132 485.827 131.388 486.635 132.622L486.681 132.688L484.081 134.408C483.218 133.101 482.393 131.769 481.609 130.413L481.572 130.346L484.278 128.798L484.31 128.859ZM873.312 128.581C874.426 129.411 875.538 130.245 876.649 131.082L876.829 131.218L874.95 133.707C873.709 132.768 872.465 131.835 871.216 130.908L873.08 128.407L873.312 128.581ZM866.075 123.202L869.323 125.614L867.47 128.118L864.214 125.703L863.713 125.327L865.571 122.829L866.075 123.202ZM480.356 120.597C480.889 121.987 481.479 123.356 482.122 124.702L479.337 126.112C478.645 124.669 478.012 123.198 477.441 121.703C477.441 121.703 480.316 120.487 480.356 120.597ZM858.332 117.378C859.4 118.195 860.465 119.005 861.539 119.813L861.829 120.036L859.956 122.525C858.781 121.639 857.602 120.748 856.433 119.85L856.219 119.688L858.123 117.216L858.332 117.378ZM478.035 111.896C478.26 113.372 478.567 114.831 478.955 116.276L475.948 117.098C475.528 115.537 475.195 113.954 474.952 112.356C474.952 112.356 478.026 111.832 478.035 111.896ZM853.139 113.28L854.465 114.348L852.517 116.782L852.103 116.452C851.689 116.117 851.277 115.781 850.867 115.442L852.841 113.034C852.942 113.115 853.043 113.196 853.139 113.28ZM477.884 102.986L477.835 103.403C477.696 104.712 477.638 106.023 477.655 107.34V107.435L474.541 107.49L474.535 107.097C474.529 105.649 474.602 104.211 474.767 102.778L474.79 102.604L477.884 102.986ZM480.235 94.4356C479.65 95.7671 479.164 97.1392 478.77 98.5402L478.747 98.627L475.739 97.802C476.172 96.2251 476.719 94.682 477.378 93.1851L480.235 94.4356ZM484.883 86.8256C483.952 87.9916 483.092 89.2125 482.307 90.4815L479.644 88.8576C480.483 87.4855 481.416 86.1801 482.411 84.9267L482.452 84.8775L484.883 86.8256ZM491.24 80.4226C490.091 81.3779 488.982 82.3823 487.923 83.4388L485.682 81.2708C486.782 80.1679 487.928 79.1287 489.112 78.1359L489.248 78.0259L491.24 80.4226ZM498.688 75.1747C497.385 75.962 496.109 76.7922 494.861 77.664L493.066 75.1168C494.369 74.1963 495.709 73.3308 497.073 72.5058L498.688 75.1747ZM506.804 70.9022C505.432 71.5361 504.069 72.2019 502.729 72.9024L501.232 70.1669C502.593 69.4549 503.976 68.7775 505.372 68.1291L505.502 68.0712L506.804 70.9022ZM515.344 67.4286C513.918 67.9422 512.502 68.4826 511.097 69.0496L509.858 66.1868C511.322 65.5928 512.798 65.0282 514.284 64.4935L515.344 67.4286ZM524.143 64.6063C523.877 64.6816 523.611 64.7569 523.344 64.8379C522.169 65.1766 521 65.5326 519.839 65.9031L519.714 65.9437L518.765 62.9738C520.241 62.5019 521.718 62.0562 523.203 61.6307L523.289 61.6075L524.143 64.6063ZM533.122 62.3254C531.644 62.6587 530.169 63.0109 528.699 63.3819L528.615 63.4022L527.848 60.3802C529.335 60.0041 530.827 59.6471 532.324 59.3092L532.439 59.2831L533.122 62.3254ZM542.22 60.5017C540.722 60.7674 539.226 61.0491 537.734 61.347L537.048 58.3047C538.535 58.0074 540.026 57.7266 541.52 57.4624L541.679 57.4334L542.22 60.5017ZM551.402 59.0805C549.961 59.2753 548.521 59.4827 547.083 59.7028L546.805 59.7462L546.328 56.6664C547.871 56.429 549.413 56.2032 550.959 55.9948L550.988 55.989L551.402 59.0805ZM560.636 57.9979C559.113 58.1484 557.597 58.3163 556.074 58.49L555.651 55.4014C557.189 55.2217 558.728 55.0548 560.268 54.9006L560.329 54.8948L560.636 57.9979ZM569.907 57.225C568.359 57.3292 566.816 57.445 565.27 57.5724L565.01 54.4693C566.558 54.3391 568.107 54.2233 569.659 54.1162H569.699L569.907 57.225ZM579.205 56.7271C577.689 56.7879 576.173 56.8574 574.658 56.9356L574.553 56.9413L574.388 53.8296L575.795 53.7572C577.046 53.6965 578.748 53.6241 578.748 53.6241L579.078 53.6096L579.205 56.7271Z" fill="#DEEDF2"/>
<path fill-rule="evenodd" clip-rule="evenodd" d="M866.799 101.302L874.47 98.737L868.42 110.866C868.198 111.364 868.177 111.928 868.362 112.441C868.546 112.954 868.921 113.376 869.409 113.62C869.897 113.863 870.459 113.909 870.98 113.747C871.501 113.586 871.939 113.23 872.204 112.753L878.253 100.624L880.818 108.295C880.905 108.559 881.044 108.803 881.226 109.012C881.408 109.222 881.629 109.394 881.878 109.518C882.127 109.642 882.397 109.715 882.674 109.734C882.952 109.752 883.23 109.716 883.493 109.627C884.023 109.449 884.461 109.068 884.711 108.568C884.962 108.068 885.003 107.489 884.827 106.958L880.644 94.4472C880.556 94.1839 880.417 93.9405 880.235 93.731C880.053 93.5214 879.832 93.3498 879.583 93.2258C879.335 93.1019 879.065 93.0281 878.788 93.0087C878.511 92.9893 878.233 93.0247 877.97 93.1127L865.459 97.2955C864.928 97.4732 864.489 97.8547 864.239 98.356C863.989 98.8573 863.948 99.4374 864.126 99.9687C864.304 100.5 864.685 100.939 865.187 101.189C865.688 101.439 866.268 101.479 866.799 101.302ZM514.832 174.026L513.541 166.043L524.529 173.974C524.984 174.303 525.55 174.437 526.104 174.347C526.658 174.258 527.153 173.952 527.481 173.497C527.81 173.042 527.944 172.475 527.854 171.922C527.764 171.368 527.459 170.872 527.004 170.544L516.013 162.613L523.996 161.325C524.271 161.281 524.534 161.184 524.77 161.038C525.007 160.892 525.213 160.701 525.375 160.476C525.538 160.25 525.654 159.995 525.717 159.724C525.781 159.454 525.79 159.173 525.745 158.899C525.655 158.346 525.35 157.851 524.895 157.523C524.441 157.195 523.875 157.061 523.322 157.151L510.302 159.261C510.028 159.305 509.765 159.403 509.529 159.548C509.293 159.694 509.087 159.885 508.925 160.11C508.762 160.335 508.646 160.59 508.582 160.86C508.519 161.13 508.509 161.41 508.553 161.684L510.661 174.704C510.694 174.987 510.785 175.26 510.927 175.507C511.069 175.754 511.259 175.97 511.487 176.141C511.715 176.313 511.974 176.436 512.251 176.505C512.528 176.573 512.815 176.585 513.096 176.54C513.378 176.494 513.647 176.392 513.888 176.24C514.128 176.088 514.336 175.888 514.498 175.654C514.66 175.419 514.773 175.155 514.829 174.875C514.886 174.596 514.886 174.309 514.829 174.029M647.806 252.049L641.854 246.572L655.398 246.01C655.676 245.999 655.948 245.933 656.2 245.816C656.452 245.7 656.678 245.535 656.866 245.33C657.054 245.126 657.2 244.887 657.296 244.627C657.391 244.366 657.434 244.089 657.423 243.812C657.412 243.535 657.346 243.262 657.229 243.01C657.112 242.759 656.947 242.532 656.743 242.344C656.539 242.156 656.3 242.01 656.039 241.915C655.779 241.819 655.502 241.776 655.225 241.787L641.678 242.349L647.16 236.397C647.539 235.985 647.739 235.439 647.715 234.879C647.692 234.32 647.447 233.793 647.035 233.413C646.623 233.034 646.078 232.834 645.518 232.856C644.959 232.879 644.431 233.123 644.051 233.534L635.116 243.24C634.737 243.653 634.537 244.198 634.56 244.758C634.583 245.318 634.828 245.845 635.24 246.225L644.943 255.16C645.355 255.54 645.902 255.741 646.463 255.718C647.023 255.695 647.551 255.45 647.931 255.037C648.312 254.625 648.512 254.078 648.489 253.517C648.466 252.957 648.218 252.429 647.806 252.049ZM894.547 249.009L887.293 245.426L900.131 241.075C900.401 240.992 900.652 240.855 900.868 240.674C901.084 240.492 901.262 240.269 901.391 240.017C901.519 239.765 901.596 239.491 901.616 239.209C901.637 238.927 901.601 238.644 901.51 238.376C901.419 238.109 901.276 237.862 901.088 237.651C900.9 237.44 900.672 237.269 900.417 237.147C900.162 237.026 899.885 236.957 899.602 236.944C899.32 236.932 899.038 236.976 898.773 237.075L885.939 241.422L889.522 234.171C889.645 233.922 889.718 233.651 889.736 233.374C889.754 233.097 889.718 232.819 889.629 232.556C889.54 232.293 889.4 232.05 889.217 231.842C889.034 231.633 888.812 231.462 888.563 231.339C888.314 231.216 888.043 231.143 887.766 231.125C887.489 231.106 887.211 231.143 886.948 231.232C886.685 231.321 886.442 231.461 886.233 231.644C886.024 231.827 885.853 232.049 885.73 232.298L879.889 244.123C879.64 244.626 879.602 245.207 879.781 245.738C879.961 246.27 880.344 246.708 880.847 246.957L892.671 252.795C892.921 252.925 893.193 253.004 893.473 253.027C893.754 253.05 894.035 253.017 894.303 252.93C894.57 252.842 894.817 252.703 895.029 252.519C895.242 252.335 895.415 252.111 895.54 251.859C895.665 251.607 895.738 251.333 895.756 251.052C895.773 250.772 895.735 250.491 895.642 250.225C895.55 249.96 895.405 249.716 895.217 249.507C895.029 249.298 894.801 249.129 894.547 249.009ZM537.595 308.969L532.828 302.435L546.215 304.525C546.49 304.568 546.77 304.556 547.039 304.491C547.309 304.426 547.563 304.308 547.788 304.144C548.012 303.98 548.202 303.774 548.346 303.537C548.49 303.3 548.587 303.037 548.63 302.763C548.672 302.488 548.661 302.208 548.595 301.939C548.53 301.669 548.412 301.415 548.248 301.19C548.084 300.966 547.878 300.776 547.641 300.632C547.404 300.488 547.141 300.391 546.867 300.348L533.476 298.261L540.009 293.491C540.234 293.328 540.425 293.122 540.57 292.885C540.715 292.649 540.812 292.385 540.855 292.111C540.898 291.837 540.886 291.556 540.821 291.287C540.755 291.017 540.637 290.763 540.472 290.539C540.142 290.086 539.645 289.783 539.092 289.697C538.538 289.611 537.973 289.748 537.52 290.078L526.868 297.856C526.643 298.02 526.453 298.226 526.309 298.462C526.164 298.699 526.068 298.962 526.025 299.236C525.982 299.511 525.993 299.791 526.058 300.06C526.123 300.33 526.241 300.584 526.405 300.809L534.182 311.461C534.513 311.914 535.009 312.217 535.563 312.304C536.116 312.391 536.682 312.254 537.135 311.924C537.588 311.594 537.891 311.097 537.978 310.544C538.065 309.99 537.928 309.424 537.598 308.972" fill="#EC0000"/>
<path fill-rule="evenodd" clip-rule="evenodd" d="M595.951 297.049C595.969 297.888 595.819 298.723 595.51 299.503C595.201 300.284 594.74 300.996 594.152 301.596C593.565 302.196 592.864 302.672 592.09 302.998C591.316 303.323 590.484 303.491 589.645 303.491C588.805 303.491 587.974 303.323 587.2 302.998C586.426 302.672 585.725 302.196 585.137 301.596C584.55 300.996 584.088 300.284 583.779 299.503C583.471 298.723 583.321 297.888 583.339 297.049C583.339 295.376 584.003 293.771 585.186 292.588C586.369 291.406 587.973 290.741 589.646 290.741C591.319 290.741 592.923 291.406 594.106 292.588C595.289 293.771 595.951 295.376 595.951 297.049Z" fill="#9E3667"/>
<path fill-rule="evenodd" clip-rule="evenodd" d="M472.214 169.421L479.966 175.789L473.598 183.538L465.846 177.17L472.214 169.421Z" fill="#34466B"/>
<path fill-rule="evenodd" clip-rule="evenodd" d="M535.302 67.9439L528.274 63.9377L541.346 60.3599C541.887 60.2121 542.347 59.8555 542.625 59.3686C542.903 58.8817 542.976 58.3043 542.829 57.7634C542.681 57.2226 542.324 56.7626 541.837 56.4846C541.35 56.2067 540.773 56.1336 540.232 56.2814L527.157 59.862L531.163 52.8367C531.302 52.596 531.392 52.3302 531.427 52.0547C531.463 51.7791 531.443 51.4992 531.37 51.2312C531.297 50.9631 531.171 50.7123 531.001 50.493C530.83 50.2737 530.618 50.0904 530.376 49.9537C530.135 49.8161 529.869 49.7272 529.594 49.6923C529.318 49.6574 529.039 49.6771 528.771 49.7502C528.503 49.8233 528.253 49.9484 528.033 50.1184C527.814 50.2885 527.63 50.5 527.493 50.741L520.962 62.2038C520.685 62.6902 520.613 63.2667 520.76 63.8067C520.908 64.3467 521.264 64.8061 521.75 65.084L533.213 71.6171C533.7 71.8943 534.277 71.9666 534.817 71.8181C535.358 71.6696 535.817 71.3126 536.094 70.8255C536.371 70.3384 536.444 69.7611 536.295 69.2207C536.147 68.6803 535.79 68.221 535.302 67.9439Z" fill="#EC0000"/>
</svg>
