<svg width="240" height="20" viewBox="0 0 240 20" fill="none" xmlns="http://www.w3.org/2000/svg">
<path d="M76.2424 1.51148L76.2424 4.28602e-06L-7.92992e-06 9.53358e-07L-7.99599e-06 1.51147L76.2424 1.51148Z" fill="#767676"/>
<path d="M76.2424 19.6491L76.2424 18.1377L-8.72274e-06 18.1377L-8.78881e-06 19.6491L76.2424 19.6491Z" fill="#767676"/>
<path d="M84.0547 6.11287L85.3686 5.98371C85.4477 6.4296 85.6074 6.7571 85.8477 6.96621C86.091 7.17531 86.4179 7.27987 86.8285 7.27987C87.2635 7.27987 87.5904 7.18761 87.8094 7.00311C88.0314 6.81553 88.1425 6.5972 88.1425 6.34811C88.1425 6.18821 88.0953 6.0529 88.001 5.9422C87.9098 5.82842 87.7486 5.73002 87.5174 5.64699C87.3593 5.59164 86.9989 5.49324 86.4362 5.35178C85.7123 5.17035 85.2044 4.94741 84.9124 4.68295C84.5018 4.31086 84.2965 3.85728 84.2965 3.32222C84.2965 2.97781 84.3923 2.65646 84.5839 2.35817C84.7786 2.05681 85.0569 1.82772 85.4188 1.67089C85.7838 1.51406 86.2233 1.43564 86.7373 1.43564C87.5767 1.43564 88.2079 1.62169 88.6306 1.99377C89.0564 2.36586 89.28 2.86249 89.3013 3.48366L87.9508 3.54362C87.8931 3.19614 87.7684 2.94706 87.5767 2.79638C87.3882 2.64262 87.1038 2.56574 86.7236 2.56574C86.3313 2.56574 86.0241 2.64723 85.802 2.81021C85.6591 2.91477 85.5876 3.05468 85.5876 3.22996C85.5876 3.38987 85.6545 3.52671 85.7884 3.64049C85.9587 3.78502 86.3723 3.9357 87.0293 4.09253C87.6862 4.24936 88.1714 4.41234 88.4846 4.58147C88.8009 4.74752 89.0473 4.97662 89.2237 5.26875C89.4032 5.55781 89.4929 5.91606 89.4929 6.3435C89.4929 6.73096 89.3864 7.09382 89.1735 7.43208C88.9606 7.77035 88.6595 8.0225 88.2702 8.18856C87.8809 8.35154 87.3958 8.43303 86.8149 8.43303C85.9693 8.43303 85.32 8.23622 84.8668 7.84261C84.4136 7.44592 84.1429 6.86934 84.0547 6.11287Z" fill="#767676"/>
<path d="M90.6197 1.55096L91.9702 1.55096L91.9702 5.2134C91.9702 5.7946 91.9869 6.17129 92.0203 6.3435C92.0781 6.62026 92.215 6.8432 92.4309 7.01233C92.6499 7.17839 92.948 7.26142 93.3251 7.26142C93.7084 7.26142 93.9973 7.183 94.192 7.02617C94.3866 6.86627 94.5037 6.671 94.5433 6.44037C94.5828 6.20973 94.6026 5.82688 94.6026 5.29182L94.6026 1.55096L95.953 1.55096L95.953 5.1027C95.953 5.91452 95.9165 6.48803 95.8435 6.82322C95.7705 7.1584 95.6351 7.44131 95.4374 7.67194C95.2428 7.90257 94.9812 8.08708 94.6527 8.22546C94.3243 8.36076 93.8954 8.42842 93.3662 8.42842C92.7275 8.42842 92.2424 8.35461 91.9109 8.20701C91.5824 8.05633 91.3223 7.8626 91.1307 7.62582C90.9391 7.38596 90.8129 7.13534 90.752 6.87395C90.6638 6.48649 90.6197 5.91452 90.6197 5.15805L90.6197 1.55096Z" fill="#767676"/>
<path d="M97.381 8.3131L97.381 1.55096L99.548 1.55096C100.369 1.55096 100.905 1.58479 101.154 1.65244C101.537 1.75392 101.858 1.97532 102.117 2.31666C102.375 2.65492 102.504 3.09312 102.504 3.63126C102.504 4.0464 102.43 4.39543 102.281 4.67834C102.132 4.96124 101.942 5.18419 101.711 5.34717C101.482 5.50707 101.25 5.61317 101.012 5.66544C100.69 5.73002 100.223 5.76231 99.6119 5.76231L98.7314 5.76231L98.7314 8.3131L97.381 8.3131ZM98.7314 2.6949L98.7314 4.61376L99.4705 4.61376C100.003 4.61376 100.359 4.57839 100.538 4.50767C100.717 4.43694 100.857 4.32624 100.958 4.17556C101.061 4.02488 101.113 3.8496 101.113 3.64972C101.113 3.40371 101.041 3.20075 100.898 3.04085C100.755 2.88094 100.575 2.781 100.356 2.74102C100.194 2.71027 99.8704 2.6949 99.3838 2.6949L98.7314 2.6949Z" fill="#767676"/>
<path d="M103.613 8.3131L103.613 1.55096L108.572 1.55096L108.572 2.6949L104.963 2.6949L104.963 4.19401L108.321 4.19401L108.321 5.33333L104.963 5.33333L104.963 7.17378L108.7 7.17378L108.7 8.3131L103.613 8.3131Z" fill="#767676"/>
<path d="M109.85 8.3131L109.85 1.55096L112.692 1.55096C113.407 1.55096 113.925 1.61246 114.247 1.73547C114.573 1.8554 114.833 2.07065 115.028 2.38124C115.222 2.69182 115.32 3.047 115.32 3.44676C115.32 3.95415 115.172 4.3739 114.877 4.70601C114.582 5.03505 114.141 5.24262 113.554 5.32872C113.846 5.50092 114.086 5.69004 114.275 5.89607C114.466 6.10211 114.723 6.46804 115.046 6.99388L115.863 8.3131L114.247 8.3131L113.271 6.84167C112.924 6.31583 112.687 5.98525 112.559 5.84995C112.432 5.71157 112.296 5.61778 112.153 5.56858C112.01 5.5163 111.784 5.49016 111.474 5.49016L111.2 5.49016L111.2 8.3131L109.85 8.3131ZM111.2 4.4108L112.199 4.4108C112.847 4.4108 113.251 4.38313 113.413 4.32778C113.574 4.27242 113.7 4.1771 113.791 4.04179C113.883 3.90649 113.928 3.73736 113.928 3.5344C113.928 3.30684 113.867 3.12387 113.746 2.98549C113.627 2.84404 113.458 2.75486 113.239 2.71796C113.13 2.70259 112.801 2.6949 112.254 2.6949L111.2 2.6949L111.2 4.4108Z" fill="#767676"/>
<path d="M116.556 8.3131L116.556 1.55096L117.906 1.55096L117.906 8.3131L116.556 8.3131Z" fill="#767676"/>
<path d="M119.211 8.3131L119.211 1.55096L120.525 1.55096L123.262 6.06674L123.262 1.55096L124.517 1.55096L124.517 8.3131L123.162 8.3131L120.466 3.90341L120.466 8.3131L119.211 8.3131Z" fill="#767676"/>
<path d="M127.455 8.3131L127.455 2.6949L125.471 2.6949L125.471 1.55096L130.786 1.55096L130.786 2.6949L128.806 2.6949L128.806 8.3131L127.455 8.3131Z" fill="#767676"/>
<path d="M131.661 8.3131L131.661 1.55096L136.621 1.55096L136.621 2.6949L133.012 2.6949L133.012 4.19401L136.37 4.19401L136.37 5.33333L133.012 5.33333L133.012 7.17378L136.748 7.17378L136.748 8.3131L131.661 8.3131Z" fill="#767676"/>
<path d="M137.907 8.3131L137.907 1.55096L139.221 1.55096L141.958 6.06674L141.958 1.55096L143.213 1.55096L143.213 8.3131L141.858 8.3131L139.162 3.90341L139.162 8.3131L137.907 8.3131Z" fill="#767676"/>
<path d="M144.641 1.55096L147.109 1.55096C147.666 1.55096 148.09 1.59401 148.382 1.68012C148.774 1.79697 149.11 2.00454 149.39 2.30282C149.67 2.60111 149.883 2.96705 150.029 3.40063C150.175 3.83115 150.248 4.36314 150.248 4.99661C150.248 5.5532 150.18 6.03292 150.043 6.43576C149.875 6.92777 149.637 7.326 149.326 7.63043C149.092 7.86106 148.776 8.04096 148.377 8.17011C148.079 8.26544 147.681 8.3131 147.182 8.3131L144.641 8.3131L144.641 1.55096ZM145.991 2.6949L145.991 7.17378L147 7.17378C147.377 7.17378 147.649 7.15225 147.816 7.1092C148.035 7.05385 148.216 6.96006 148.359 6.82783C148.505 6.6956 148.624 6.47881 148.715 6.17745C148.806 5.87301 148.852 5.45941 148.852 4.93665C148.852 4.41388 148.806 4.01258 148.715 3.73275C148.624 3.45291 148.496 3.23458 148.332 3.07775C148.168 2.92092 147.959 2.81483 147.707 2.75948C147.518 2.71643 147.149 2.6949 146.598 2.6949L145.991 2.6949Z" fill="#767676"/>
<path d="M151.398 8.3131L151.398 1.55096L156.357 1.55096L156.357 2.6949L152.748 2.6949L152.748 4.19401L156.106 4.19401L156.106 5.33333L152.748 5.33333L152.748 7.17378L156.485 7.17378L156.485 8.3131L151.398 8.3131Z" fill="#767676"/>
<path d="M157.643 8.3131L157.643 1.55096L158.957 1.55096L161.695 6.06674L161.695 1.55096L162.949 1.55096L162.949 8.3131L161.594 8.3131L158.898 3.90341L158.898 8.3131L157.643 8.3131Z" fill="#767676"/>
<path d="M168.661 5.82689L169.97 6.24664C169.77 6.98466 169.435 7.53357 168.967 7.89335C168.501 8.25006 167.91 8.42842 167.192 8.42842C166.304 8.42842 165.574 8.12245 165.002 7.5105C164.43 6.89548 164.144 6.05598 164.144 4.992C164.144 3.86651 164.432 2.99318 165.007 2.37202C165.582 1.74777 166.337 1.43565 167.274 1.43565C168.092 1.43565 168.757 1.68012 169.268 2.16906C169.572 2.45812 169.8 2.87326 169.952 3.41447L168.615 3.73736C168.536 3.3868 168.371 3.11004 168.118 2.90708C167.869 2.70413 167.565 2.60265 167.206 2.60265C166.71 2.60265 166.307 2.78254 165.997 3.14233C165.69 3.50211 165.536 4.08484 165.536 4.89052C165.536 5.7454 165.688 6.35427 165.992 6.71713C166.296 7.07999 166.692 7.26142 167.178 7.26142C167.537 7.26142 167.846 7.1461 168.105 6.91547C168.363 6.68484 168.549 6.32198 168.661 5.82689Z" fill="#767676"/>
<path d="M171.093 8.3131L171.093 1.55096L172.443 1.55096L172.443 8.3131L171.093 8.3131Z" fill="#767676"/>
<path d="M179.766 8.3131L178.297 8.3131L177.713 6.77709L175.039 6.77709L174.487 8.3131L173.055 8.3131L175.66 1.55096L177.088 1.55096L179.766 8.3131ZM177.279 5.63777L176.358 3.12849L175.454 5.63777L177.279 5.63777Z" fill="#767676"/>
<path d="M183.073 8.3131L183.073 1.55097L187.658 1.55097L187.658 2.6949L184.423 2.6949L184.423 4.29549L187.215 4.29549L187.215 5.43943L184.423 5.43943L184.423 8.3131L183.073 8.3131Z" fill="#767676"/>
<path d="M188.734 8.3131L188.734 1.55097L190.085 1.55097L190.085 8.3131L188.734 8.3131Z" fill="#767676"/>
<path d="M191.39 8.3131L191.39 1.55097L192.703 1.55097L195.441 6.06675L195.441 1.55097L196.695 1.55097L196.695 8.3131L195.34 8.3131L192.644 3.90342L192.644 8.3131L191.39 8.3131Z" fill="#767676"/>
<path d="M204.159 8.3131L202.69 8.3131L202.106 6.77709L199.433 6.77709L198.881 8.3131L197.448 8.3131L200.053 1.55097L201.481 1.55097L204.159 8.3131ZM201.673 5.63777L200.751 3.12849L199.848 5.63777L201.673 5.63777Z" fill="#767676"/>
<path d="M204.894 8.3131L204.894 1.55097L206.208 1.55097L208.945 6.06675L208.945 1.55097L210.2 1.55097L210.2 8.31311L208.845 8.31311L206.148 3.90342L206.148 8.3131L204.894 8.3131Z" fill="#767676"/>
<path d="M215.911 5.82689L217.221 6.24664C217.02 6.98466 216.686 7.53357 216.217 7.89335C215.752 8.25007 215.16 8.42842 214.442 8.42842C213.554 8.42842 212.824 8.12245 212.253 7.5105C211.681 6.89549 211.395 6.05598 211.395 4.992C211.395 3.86651 211.682 2.99319 212.257 2.37202C212.832 1.74777 213.588 1.43565 214.525 1.43565C215.343 1.43565 216.007 1.68012 216.518 2.16906C216.822 2.45812 217.051 2.87326 217.203 3.41448L215.866 3.73736C215.787 3.3868 215.621 3.11004 215.369 2.90708C215.119 2.70413 214.815 2.60265 214.456 2.60265C213.96 2.60265 213.557 2.78254 213.247 3.14233C212.94 3.50212 212.786 4.08485 212.786 4.89052C212.786 5.7454 212.938 6.35427 213.243 6.71713C213.547 7.07999 213.942 7.26142 214.429 7.26142C214.788 7.26142 215.096 7.14611 215.355 6.91547C215.613 6.68484 215.799 6.32198 215.911 5.82689Z" fill="#767676"/>
<path d="M218.343 8.31311L218.343 1.55097L219.694 1.55097L219.694 8.31311L218.343 8.31311Z" fill="#767676"/>
<path d="M220.985 8.31311L220.985 1.55097L225.944 1.55097L225.944 2.6949L222.335 2.6949L222.335 4.19401L225.693 4.19401L225.693 5.33334L222.335 5.33334L222.335 7.17378L226.072 7.17378L226.072 8.31311L220.985 8.31311Z" fill="#767676"/>
<path d="M227.221 8.31311L227.221 1.55097L230.063 1.55097C230.778 1.55097 231.297 1.61247 231.619 1.73547C231.945 1.8554 232.205 2.07066 232.399 2.38124C232.594 2.69183 232.691 3.047 232.691 3.44676C232.691 3.95416 232.544 4.37391 232.249 4.70602C231.954 5.03505 231.513 5.24262 230.926 5.32872C231.218 5.50093 231.458 5.69005 231.647 5.89608C231.838 6.10211 232.095 6.46805 232.418 6.99389L233.234 8.31311L231.619 8.31311L230.643 6.84167C230.296 6.31583 230.059 5.98526 229.931 5.84995C229.803 5.71157 229.668 5.61778 229.525 5.56858C229.382 5.51631 229.156 5.49017 228.845 5.49017L228.572 5.49017L228.572 8.31311L227.221 8.31311ZM228.572 4.41081L229.571 4.41081C230.219 4.41081 230.623 4.38313 230.784 4.32778C230.946 4.27243 231.072 4.1771 231.163 4.0418C231.254 3.90649 231.3 3.73736 231.3 3.53441C231.3 3.30685 231.239 3.12388 231.117 2.9855C230.999 2.84405 230.83 2.75487 230.611 2.71797C230.501 2.70259 230.173 2.6949 229.626 2.6949L228.572 2.6949L228.572 4.41081Z" fill="#767676"/>
<path d="M240 8.31311L238.531 8.31311L237.947 6.7771L235.274 6.7771L234.722 8.31311L233.289 8.31311L235.894 1.55097L237.322 1.55097L240 8.31311ZM237.514 5.63777L236.592 3.12849L235.689 5.63777L237.514 5.63777Z" fill="#767676"/>
<path d="M129.241 10.6198L131.709 10.6198C132.266 10.6198 132.69 10.6628 132.982 10.7489C133.374 10.8658 133.71 11.0734 133.99 11.3717C134.27 11.6699 134.483 12.0359 134.629 12.4695C134.775 12.9 134.848 13.432 134.848 14.0654C134.848 14.622 134.779 15.1017 134.642 15.5046C134.475 15.9966 134.236 16.3948 133.926 16.6993C133.692 16.9299 133.376 17.1098 132.977 17.2389C132.679 17.3343 132.281 17.3819 131.782 17.3819L129.241 17.3819L129.241 10.6198ZM130.591 11.7637L130.591 16.2426L131.599 16.2426C131.977 16.2426 132.249 16.2211 132.416 16.178C132.635 16.1227 132.816 16.0289 132.959 15.8967C133.105 15.7644 133.224 15.5476 133.315 15.2463C133.406 14.9418 133.452 14.5282 133.452 14.0055C133.452 13.4827 133.406 13.0814 133.315 12.8016C133.224 12.5217 133.096 12.3034 132.932 12.1466C132.767 11.9898 132.559 11.8837 132.307 11.8283C132.118 11.7853 131.748 11.7637 131.198 11.7637L130.591 11.7637Z" fill="#767676"/>
<path d="M135.997 17.3819L135.997 10.6198L140.957 10.6198L140.957 11.7637L137.348 11.7637L137.348 13.2628L140.706 13.2628L140.706 14.4022L137.348 14.4022L137.348 16.2426L141.084 16.2426L141.084 17.3819L135.997 17.3819Z" fill="#767676"/>
<path d="M149.222 14.8957L150.531 15.3155C150.33 16.0535 149.996 16.6024 149.527 16.9622C149.062 17.3189 148.47 17.4973 147.753 17.4973C146.865 17.4973 146.135 17.1913 145.563 16.5793C144.991 15.9643 144.705 15.1248 144.705 14.0608C144.705 12.9353 144.992 12.062 145.567 11.4408C146.142 10.8166 146.898 10.5045 147.835 10.5045C148.653 10.5045 149.317 10.7489 149.828 11.2379C150.133 11.5269 150.361 11.9421 150.513 12.4833L149.176 12.8062C149.097 12.4556 148.931 12.1789 148.679 11.9759C148.429 11.773 148.125 11.6715 147.766 11.6715C147.271 11.6715 146.868 11.8514 146.557 12.2112C146.25 12.5709 146.097 13.1537 146.097 13.9594C146.097 14.8142 146.249 15.4231 146.553 15.786C146.857 16.1488 147.252 16.3303 147.739 16.3303C148.098 16.3303 148.407 16.2149 148.665 15.9843C148.924 15.7537 149.109 15.3908 149.222 14.8957Z" fill="#767676"/>
<path d="M151.421 14.0424C151.421 13.3536 151.523 12.7754 151.726 12.308C151.878 11.9636 152.085 11.6546 152.347 11.3809C152.611 11.1072 152.9 10.9042 153.214 10.772C153.63 10.5937 154.111 10.5045 154.655 10.5045C155.641 10.5045 156.428 10.8135 157.018 11.4316C157.612 12.0497 157.908 12.9092 157.908 14.0101C157.908 15.1017 157.615 15.9566 157.028 16.5747C156.441 17.1897 155.656 17.4973 154.674 17.4973C153.679 17.4973 152.888 17.1913 152.301 16.5793C151.714 15.9643 151.421 15.1187 151.421 14.0424ZM152.812 13.9963C152.812 14.762 152.987 15.3431 153.337 15.7398C153.687 16.1334 154.131 16.3303 154.669 16.3303C155.207 16.3303 155.648 16.135 155.992 15.7444C156.339 15.3508 156.512 14.762 156.512 13.9778C156.512 13.2029 156.343 12.6248 156.006 12.2434C155.671 11.8621 155.226 11.6715 154.669 11.6715C154.112 11.6715 153.664 11.8652 153.323 12.2527C152.982 12.6371 152.812 13.2183 152.812 13.9963Z" fill="#767676"/>
<path d="M159.003 17.3819L159.003 10.6751L160.353 10.6751L160.353 16.2426L163.711 16.2426L163.711 17.3819L159.003 17.3819Z" fill="#767676"/>
<path d="M164.405 14.0424C164.405 13.3536 164.507 12.7754 164.71 12.308C164.862 11.9636 165.069 11.6546 165.331 11.3809C165.595 11.1072 165.884 10.9042 166.198 10.772C166.614 10.5937 167.095 10.5045 167.639 10.5045C168.625 10.5045 169.413 10.8135 170.003 11.4316C170.596 12.0497 170.892 12.9092 170.892 14.0101C170.892 15.1018 170.599 15.9566 170.012 16.5747C169.425 17.1897 168.64 17.4973 167.658 17.4973C166.663 17.4973 165.872 17.1913 165.285 16.5793C164.698 15.9643 164.405 15.1187 164.405 14.0424ZM165.796 13.9963C165.796 14.762 165.971 15.3431 166.321 15.7398C166.671 16.1334 167.115 16.3303 167.653 16.3303C168.191 16.3303 168.632 16.135 168.976 15.7444C169.323 15.3508 169.496 14.762 169.496 13.9778C169.496 13.2029 169.327 12.6248 168.99 12.2434C168.655 11.8621 168.21 11.6715 167.653 11.6715C167.096 11.6715 166.648 11.8652 166.307 12.2527C165.967 12.6371 165.796 13.2183 165.796 13.9963Z" fill="#767676"/>
<path d="M171.932 17.3819L171.932 10.6198L173.953 10.6198L175.167 15.2324L176.367 10.6198L178.392 10.6198L178.392 17.3819L177.138 17.3819L177.138 12.0589L175.81 17.3819L174.51 17.3819L173.187 12.0589L173.187 17.3819L171.932 17.3819Z" fill="#767676"/>
<path d="M179.738 10.6198L182.412 10.6198C182.941 10.6198 183.335 10.6429 183.593 10.689C183.855 10.732 184.088 10.8243 184.291 10.9657C184.498 11.1072 184.67 11.2963 184.807 11.5331C184.944 11.7668 185.012 12.0297 185.012 12.3219C185.012 12.6386 184.927 12.9292 184.757 13.1937C184.59 13.4581 184.361 13.6565 184.072 13.7887C184.48 13.9086 184.793 14.1131 185.012 14.4022C185.231 14.6912 185.341 15.031 185.341 15.4216C185.341 15.7291 185.269 16.0289 185.126 16.321C184.986 16.6101 184.793 16.8423 184.547 17.0175C184.304 17.1897 184.003 17.2958 183.644 17.3358C183.419 17.3604 182.876 17.3758 182.015 17.3819L179.738 17.3819L179.738 10.6198ZM181.089 11.7453L181.089 13.309L181.974 13.309C182.5 13.309 182.827 13.3013 182.955 13.2859C183.186 13.2582 183.367 13.1783 183.498 13.046C183.631 12.9107 183.698 12.7339 183.698 12.5156C183.698 12.3065 183.641 12.1374 183.525 12.0082C183.412 11.876 183.244 11.796 183.019 11.7683C182.885 11.753 182.5 11.7453 181.864 11.7453L181.089 11.7453ZM181.089 14.4345L181.089 16.2426L182.339 16.2426C182.825 16.2426 183.134 16.2288 183.265 16.2011C183.466 16.1642 183.628 16.075 183.753 15.9336C183.881 15.789 183.945 15.5968 183.945 15.357C183.945 15.154 183.896 14.9818 183.799 14.8404C183.701 14.6989 183.56 14.5959 183.374 14.5313C183.192 14.4667 182.794 14.4345 182.179 14.4345L181.089 14.4345Z" fill="#767676"/>
<path d="M186.445 17.3819L186.445 10.6198L187.795 10.6198L187.795 17.3819L186.445 17.3819Z" fill="#767676"/>
<path d="M195.118 17.3819L193.649 17.3819L193.065 15.8459L190.391 15.8459L189.839 17.3819L188.407 17.3819L191.012 10.6198L192.44 10.6198L195.118 17.3819ZM192.631 14.7066L191.71 12.1973L190.806 14.7066L192.631 14.7066Z" fill="#767676"/>
<path d="M11.4036 14.359L8.21612 5.3428L10.1688 5.3428L12.4255 12.0158L14.6093 5.3428L16.5194 5.3428L13.3258 14.359L11.4036 14.359Z" fill="#767676"/>
<path d="M17.3831 14.359L17.3831 5.3428L19.1837 5.3428L19.1837 14.359L17.3831 14.359Z" fill="#767676"/>
<path d="M25.0538 11.044L25.0538 9.52493L28.9347 9.52493L28.9347 13.1166C28.5575 13.4857 28.0101 13.8116 27.2923 14.0945C26.5786 14.3733 25.8547 14.5127 25.1207 14.5127C24.188 14.5127 23.3749 14.3159 22.6814 13.9223C21.9879 13.5246 21.4668 12.9588 21.1181 12.2249C20.7693 11.4868 20.595 10.6853 20.595 9.82014C20.595 8.88121 20.7896 8.04683 21.1789 7.31701C21.5682 6.58719 22.138 6.02752 22.8882 5.63801C23.46 5.3387 24.1717 5.18904 25.0233 5.18904C26.1304 5.18904 26.9942 5.4248 27.6147 5.89632C28.2392 6.36373 28.6407 7.01155 28.8191 7.83978L27.0307 8.17804C26.905 7.73523 26.6678 7.38671 26.319 7.13251C25.9743 6.8742 25.5424 6.74504 25.0233 6.74504C24.2366 6.74504 23.6101 6.9972 23.1437 7.50152C22.6814 8.00583 22.4503 8.75411 22.4503 9.74634C22.4503 10.8165 22.6855 11.6201 23.1559 12.1572C23.6263 12.6902 24.2427 12.9567 25.0051 12.9567C25.3822 12.9567 25.7594 12.8829 26.1365 12.7353C26.5177 12.5836 26.8442 12.4012 27.1159 12.188L27.1159 11.044L25.0538 11.044Z" fill="#767676"/>
<path d="M30.5467 14.359L30.5467 5.3428L32.3472 5.3428L32.3472 14.359L30.5467 14.359Z" fill="#767676"/>
<path d="M34.1174 14.359L34.1174 5.4166L35.9179 5.4166L35.9179 12.8399L40.395 12.8399L40.395 14.359L34.1174 14.359Z" fill="#767676"/>
<path d="M49.7263 14.359L47.7675 14.359L46.9889 12.311L43.4243 12.311L42.6883 14.359L40.7782 14.359L44.2516 5.3428L46.1556 5.3428L49.7263 14.359ZM46.411 10.7919L45.1823 7.44617L43.9779 10.7919L46.411 10.7919Z" fill="#767676"/>
<path d="M50.6813 5.3428L53.9722 5.3428C54.7143 5.3428 55.28 5.4002 55.6693 5.51501C56.1924 5.67081 56.6406 5.94757 57.0136 6.34528C57.3867 6.74299 57.6706 7.23091 57.8653 7.80903C58.0599 8.38305 58.1572 9.09237 58.1572 9.937C58.1572 10.6791 58.066 11.3187 57.8835 11.8559C57.6605 12.5119 57.3421 13.0428 56.9285 13.4488C56.6162 13.7563 56.1945 13.9961 55.6632 14.1683C55.2658 14.2954 54.7346 14.359 54.0695 14.359L50.6813 14.359L50.6813 5.3428ZM52.4818 6.86805L52.4818 12.8399L53.8262 12.8399C54.329 12.8399 54.692 12.8112 54.915 12.7538C55.207 12.68 55.4483 12.5549 55.6389 12.3786C55.8335 12.2023 55.9917 11.9133 56.1134 11.5114C56.235 11.1055 56.2959 10.5541 56.2959 9.85704C56.2959 9.16002 56.235 8.62495 56.1134 8.25184C55.9917 7.87873 55.8214 7.58762 55.6024 7.37852C55.3834 7.16941 55.1056 7.02795 54.769 6.95415C54.5176 6.89675 54.0249 6.86805 53.2909 6.86805L52.4818 6.86805Z" fill="#767676"/>
<path d="M59.3252 9.90625C59.3252 8.98782 59.461 8.21699 59.7327 7.59377C59.9355 7.13456 60.2112 6.72249 60.56 6.35758C60.9128 5.99267 61.2981 5.72206 61.7158 5.54576C62.2713 5.30795 62.9121 5.18905 63.638 5.18905C64.9519 5.18905 66.0022 5.60111 66.789 6.42524C67.5797 7.24936 67.9751 8.39535 67.9751 9.86319C67.9751 11.3187 67.5838 12.4586 66.8011 13.2827C66.0185 14.1027 64.9722 14.5127 63.6623 14.5127C62.3362 14.5127 61.2819 14.1048 60.4992 13.2889C59.7165 12.4688 59.3252 11.3413 59.3252 9.90625ZM61.1805 9.84474C61.1805 10.8657 61.4136 11.6406 61.88 12.1695C62.3464 12.6943 62.9384 12.9567 63.6562 12.9567C64.374 12.9567 64.962 12.6964 65.4203 12.1757C65.8826 11.6509 66.1137 10.8657 66.1137 9.82014C66.1137 8.78691 65.8887 8.01609 65.4385 7.50767C64.9925 6.99925 64.3984 6.74505 63.6562 6.74505C62.9141 6.74505 62.316 7.00335 61.8618 7.51997C61.4076 8.03249 61.1805 8.80741 61.1805 9.84474Z" fill="#767676"/>
</svg>
