<svg width="64" height="64" viewBox="0 0 64 64" fill="none" xmlns="http://www.w3.org/2000/svg">
<circle cx="32" cy="32" r="31" fill="white" stroke="#127277" stroke-width="2"/>
<path d="M47 26.3326C47 22.0141 43.4675 18.4996 39.125 18.4996C35.966 18.4996 33.254 20.3716 32 23.0491C30.746 20.3716 28.034 18.4996 24.875 18.4996C20.5325 18.4996 17 22.0141 17 26.3326C17 28.3441 17.399 30.3106 18.1835 32.1811C18.3035 32.4676 18.5825 32.6401 18.875 32.6401C18.971 32.6401 19.0715 32.6206 19.1645 32.5816C19.547 32.4211 19.727 31.9816 19.5665 31.5991C18.8585 29.9146 18.5 28.1431 18.5 26.3326C18.5 22.8406 21.359 19.9996 24.875 19.9996C28.391 19.9996 31.25 22.8406 31.25 26.3326C31.25 26.7481 31.586 27.0826 32 27.0826C32.414 27.0826 32.75 26.7481 32.75 26.3326C32.75 22.8406 35.609 19.9996 39.125 19.9996C42.641 19.9996 45.5 22.8406 45.5 26.3326C45.5 28.1431 45.1415 29.9161 44.4335 31.6006C44.273 31.9831 44.453 32.4211 44.8355 32.5816C44.93 32.6221 45.029 32.6401 45.125 32.6401C45.4175 32.6401 45.6965 32.4676 45.8165 32.1811C46.601 30.3121 47 28.3441 47 26.3326ZM27.824 26.1141C28.0901 26.1192 28.3309 26.2654 28.4604 26.4922L28.5155 26.6121L32.177 36.8646L36.4205 29.8881C36.5615 29.6541 36.8075 29.5026 37.0925 29.5281C37.3188 29.5381 37.5273 29.6502 37.6608 29.8279L37.7315 29.9421L40.007 34.4961H46.25C46.664 34.4961 47 34.8321 47 35.2461C47 35.6141 46.7345 35.9205 46.3848 35.984L46.25 35.9961H39.5435C39.3073 35.9961 39.0877 35.8846 38.9473 35.7008L38.873 35.5821L36.9965 31.8276L32.6405 38.9886C32.504 39.2151 32.261 39.3486 32 39.3486L31.9235 39.3456C31.6779 39.3199 31.4621 39.1751 31.3441 38.9624L31.2935 38.8506L27.77 28.9836L25.1525 35.5251C25.0548 35.7681 24.8381 35.9406 24.5854 35.9849L24.4565 35.9961H17.75C17.336 35.9961 17 35.6601 17 35.2461C17 34.8781 17.2655 34.5717 17.6152 34.5082L17.75 34.4961H23.948L27.113 26.5866C27.2094 26.341 27.4271 26.1693 27.68 26.1252L27.824 26.1141ZM40.0229 38.643C40.3244 38.3595 40.7984 38.3715 41.0834 38.673C41.3669 38.973 41.3549 39.4485 41.0534 39.7335C39.9396 40.7885 38.7823 41.6923 37.6873 42.4492L37.0387 42.8858L36.4101 43.2872L35.8067 43.6538L35.2336 43.9858L34.6958 44.2833L34.1984 44.5465L33.5394 44.8776L32.9999 45.1327L32.2769 45.447C32.1869 45.483 32.0939 45.4995 31.9994 45.4995C31.9374 45.4995 31.8747 45.4921 31.8136 45.4766L31.6517 45.4179L31.0003 45.1327L30.4608 44.8776L29.8017 44.5465L29.3042 44.2833L28.7663 43.9858L28.1931 43.6538L27.5895 43.2872L26.9607 42.8858L26.3119 42.4492C25.2165 41.6923 24.0585 40.7885 22.9439 39.7335C22.6439 39.4485 22.6304 38.973 22.9154 38.673C23.2004 38.3715 23.6759 38.3595 23.9759 38.643C25.4851 40.0721 27.0996 41.2172 28.4998 42.0794L29.1297 42.4573L29.7222 42.7949L30.2702 43.0924L30.7668 43.3498L31.2051 43.5671L31.8785 43.8814L31.9222 43.9009L31.9994 43.935L32.4213 43.7443L33.0059 43.4635L33.7296 43.0924L34.2777 42.7949L34.8702 42.4573L35.5001 42.0794C36.9002 41.2172 38.5144 40.0721 40.0229 38.643Z" fill="#127277"/>
</svg>
