<svg width="64" height="64" viewBox="0 0 64 64" fill="none" xmlns="http://www.w3.org/2000/svg">
<circle cx="32" cy="32" r="31" fill="white" stroke="#127277" stroke-width="2"/>
<path d="M38.4241 27.6957C38.436 27.7074 38.8708 28.1256 39.8734 28.1256C40.3952 28.1256 41.2705 28.0207 41.2705 27.3173C41.2705 26.8937 40.7069 26.6323 39.8473 26.2821C38.8833 25.8892 37.6828 25.3998 37.6828 24.1486C37.6828 23.261 38.3899 22.5958 39.4068 22.4656V22.0349C39.4068 21.76 39.6244 21.5375 39.8934 21.5375C40.1624 21.5375 40.38 21.76 40.38 22.0349V22.5028C41.142 22.6495 41.7345 23.0085 41.7652 23.0279C41.9942 23.1707 42.0665 23.4753 41.9277 23.7099C41.7885 23.945 41.4896 24.0184 41.2596 23.878C41.2525 23.8736 40.5287 23.433 39.7722 23.433C39.231 23.433 38.656 23.6837 38.656 24.1486C38.656 24.6858 39.2704 24.9763 40.2075 25.3581C41.1622 25.7468 42.2437 26.1879 42.2437 27.3173C42.2437 28.0978 41.7381 28.9204 40.38 29.0855V29.5451C40.38 29.82 40.1624 30.0425 39.8934 30.0425C39.6244 30.0425 39.4068 29.82 39.4068 29.5451V29.0937C38.3078 28.9721 37.7838 28.451 37.7218 28.3845C37.5355 28.1859 37.5421 27.8711 37.736 27.6811C37.9304 27.4912 38.2388 27.498 38.4241 27.6957Z" fill="#127277"/>
<path d="M39.8968 33.0421C36.0544 33.0421 32.9287 29.7806 32.9287 25.7711C32.9287 21.7616 36.0544 18.5 39.8968 18.5C43.7393 18.5 46.8649 21.7616 46.8649 25.7711C46.8649 29.7806 43.7393 33.0421 39.8968 33.0421ZM39.8968 31.4263C42.8849 31.4263 45.3165 28.889 45.3165 25.7711C45.3165 22.6531 42.8849 20.1158 39.8968 20.1158C36.9088 20.1158 34.4772 22.6531 34.4772 25.7711C34.4772 28.889 36.9088 31.4263 39.8968 31.4263Z" fill="#127277"/>
<path d="M18.374 27.3995V41.9416C18.374 44.2067 21.0944 45.9811 24.5679 45.9811C26.9463 45.9811 28.9469 45.1389 29.9875 43.8871C31.0282 45.1389 33.0288 45.9811 35.4072 45.9811C38.8806 45.9811 41.601 44.2067 41.601 41.9416V37.0942C41.601 34.8291 38.8806 33.0548 35.4072 33.0548C33.5282 33.0548 31.8886 33.5849 30.7618 34.4202V27.3995C30.7618 25.1344 28.0414 23.36 24.5679 23.36C21.0944 23.36 18.374 25.1344 18.374 27.3995ZM19.9225 34.9208C21.0493 35.7562 22.6889 36.2863 24.5679 36.2863C26.4469 36.2863 28.0864 35.7562 29.2133 34.9208V37.0942C29.2133 38.2406 27.3057 39.5179 24.5679 39.5179C21.8301 39.5179 19.9225 38.2406 19.9225 37.0942V34.9208ZM24.5679 34.6705C21.8301 34.6705 19.9225 33.3932 19.9225 32.2469V30.0735C21.0493 30.9088 22.6889 31.439 24.5679 31.439C26.4469 31.439 28.0864 30.9088 29.2133 30.0735V32.2469C29.2133 33.3932 27.3057 34.6705 24.5679 34.6705ZM24.5679 44.3653C21.8301 44.3653 19.9225 43.088 19.9225 41.9416V39.7682C21.0493 40.6035 22.6889 41.1337 24.5679 41.1337C26.4469 41.1337 28.0864 40.6035 29.2133 39.7682V41.9416C29.2133 43.088 27.3057 44.3653 24.5679 44.3653ZM30.7618 41.9416V39.7682C31.8886 40.6035 33.5282 41.1337 35.4072 41.1337C37.2861 41.1337 38.9257 40.6035 40.0526 39.7682V41.9416C40.0526 43.088 38.145 44.3653 35.4072 44.3653C32.6694 44.3653 30.7618 43.088 30.7618 41.9416ZM35.4072 34.6705C38.145 34.6705 40.0526 35.9479 40.0526 37.0942C40.0526 38.2406 38.145 39.5179 35.4072 39.5179C32.6694 39.5179 30.7618 38.2406 30.7618 37.0942C30.7618 35.9479 32.6694 34.6705 35.4072 34.6705ZM29.2133 27.3995C29.2133 28.5458 27.3057 29.8232 24.5679 29.8232C21.8301 29.8232 19.9225 28.5458 19.9225 27.3995C19.9225 26.2531 21.8301 24.9758 24.5679 24.9758C27.3057 24.9758 29.2133 26.2531 29.2133 27.3995Z" fill="#127277"/>
</svg>
