<svg width="64" height="64" viewBox="0 0 64 64" fill="none" xmlns="http://www.w3.org/2000/svg">
<circle cx="32" cy="32" r="31" fill="white" stroke="#127277" stroke-width="2"/>
<path d="M46.25 21.5C46.6185 21.5 46.9245 21.765 46.9879 22.1151L47 22.25V40.25C47 40.6185 46.735 40.9245 46.3849 40.9879L46.25 41H17.75C17.3815 41 17.0755 40.735 17.0121 40.3849L17 40.25V22.25C17 21.8815 17.265 21.5755 17.6151 21.5121L17.75 21.5H46.25ZM40.3258 23H23.6742C23.3446 25.6032 21.3589 27.6733 18.798 28.1289L18.5 28.1742V34.3258C21.1036 34.6555 23.1734 36.6415 23.6289 39.2021L23.6742 39.5H40.3258C40.6554 36.8968 42.6411 34.8267 45.202 34.3711L45.5 34.3258V28.1742C42.8964 27.8445 40.8266 25.8585 40.3711 23.2979L40.3258 23ZM18.5 39.5H22.1742C21.872 37.7153 20.5235 36.2926 18.7787 35.8821L18.5 35.8258V39.5ZM45.5 35.8258C43.7153 36.128 42.2926 37.4765 41.8821 39.2213L41.8258 39.5H45.5V35.8258ZM38.734 33.6362C38.6244 32.2911 37.4941 31.2295 36.1206 31.2295C34.6763 31.2295 33.5 32.4058 33.5 33.8508V34.6082L33.5087 34.8228C33.6183 36.1679 34.7485 37.2295 36.1206 37.2295C37.5664 37.2295 38.7427 36.0532 38.7427 34.6082V33.8508L38.734 33.6362ZM35.9448 26.2703C36.2378 25.9788 36.7124 25.9773 37.0054 26.2717C37.2658 26.5321 37.2947 26.9361 37.0922 27.2284L37.0054 27.3323L28.0405 36.2795C27.894 36.4253 27.7021 36.4985 27.5103 36.4985C27.3184 36.4985 27.1265 36.4253 26.98 36.2781C26.7196 36.0177 26.6906 35.6137 26.8932 35.3214L26.98 35.2175L35.9448 26.2703ZM35.0102 33.6989C35.0845 33.1523 35.554 32.7295 36.1206 32.7295C36.7388 32.7295 37.2427 33.2327 37.2427 33.8508V34.6082L37.2324 34.7601C37.1579 35.3067 36.6873 35.7295 36.1206 35.7295C35.5024 35.7295 35 35.2263 35 34.6082V33.8508L35.0102 33.6989ZM27.8867 25.2295C29.2588 25.2295 30.389 26.2911 30.4986 27.6362L30.5073 27.8508V28.6082C30.5073 30.0532 29.3311 31.2295 27.8867 31.2295C26.5132 31.2295 25.3829 30.1679 25.2734 28.8228L25.2646 28.6082V27.8508C25.2646 26.4058 26.4409 25.2295 27.8867 25.2295ZM26.7749 27.6989L26.7646 27.8508V28.6082C26.7646 29.2263 27.2686 29.7295 27.8867 29.7295C28.4534 29.7295 28.9228 29.3067 28.9971 28.7601L29.0073 28.6082V27.8508C29.0073 27.2327 28.5049 26.7295 27.8867 26.7295C27.3201 26.7295 26.8494 27.1523 26.7749 27.6989ZM45.5 23H41.8258C42.128 24.7847 43.4765 26.2074 45.2213 26.6179L45.5 26.6742V23ZM18.5 23V26.6742C20.2847 26.372 21.7074 25.0235 22.1179 23.2787L22.1742 23H18.5Z" fill="#127277"/>
</svg>
