<svg width="800" height="800" viewBox="0 0 800 800" fill="none" xmlns="http://www.w3.org/2000/svg">
<path fill-rule="evenodd" clip-rule="evenodd" d="M391.609 99.9656C299.728 166.329 224.787 147.098 174.667 138.849C74.6595 122.385 37.383 216.255 73.8637 287.516C110.346 358.775 140.907 445.479 53.1077 514.226C-34.6899 582.972 64.1344 756.892 205.64 708.917C347.144 660.939 506.893 667.721 579.695 719.596C652.5 771.471 813.092 650.202 686.028 528.074C558.964 405.947 641.904 353.933 685.286 298.374C728.669 242.812 710.912 140.426 589.522 90.5431C589.522 90.5431 483.492 33.6042 391.609 99.9656Z" fill="#F1F3F4"/>
<path fill-rule="evenodd" clip-rule="evenodd" d="M779.942 705.605C779.942 722.174 611.691 735.605 404.142 735.605C196.593 735.605 28.3418 722.174 28.3418 705.605C28.3418 689.034 196.593 675.602 404.142 675.602C611.691 675.602 779.942 689.034 779.942 705.605Z" fill="#9BC3D3"/>
<path fill-rule="evenodd" clip-rule="evenodd" d="M379.364 711.478C401.371 711.478 419.212 676.075 419.212 632.401C419.212 588.727 401.371 553.323 379.364 553.323H328.238V711.478H379.364Z" fill="black"/>
<path fill-rule="evenodd" clip-rule="evenodd" d="M288.201 632.401C288.201 588.727 306.042 553.323 328.049 553.323C350.056 553.323 367.896 588.727 367.896 632.401C367.896 676.075 350.056 711.478 328.049 711.478C306.042 711.478 288.201 676.075 288.201 632.401ZM671.584 711.478C693.593 711.478 711.434 676.075 711.434 632.401C711.434 588.727 693.593 553.323 671.584 553.323H620.458V711.478H671.584Z" fill="black"/>
<path fill-rule="evenodd" clip-rule="evenodd" d="M580.422 632.401C580.422 588.727 598.263 553.323 620.27 553.323C642.278 553.323 660.119 588.727 660.119 632.401C660.119 676.075 642.278 711.478 620.27 711.478C598.263 711.478 580.422 676.075 580.422 632.401Z" fill="black"/>
<path fill-rule="evenodd" clip-rule="evenodd" d="M118.139 671.655L90.8449 664.928C81.4987 662.624 73.6454 656.306 69.3807 647.662L69.3613 647.624C67.5012 643.851 64.9297 640.473 61.7926 637.677L55.0864 631.703C47.3069 624.771 43.2951 614.537 44.2875 604.154L47.9832 565.483C49.2513 552.205 58.443 541.031 71.2109 537.244L90.7167 531.462L161.115 526.444L118.139 671.655Z" fill="#CC0000"/>
<path fill-rule="evenodd" clip-rule="evenodd" d="M177.669 711.478C199.676 711.478 217.517 676.075 217.517 632.401C217.517 588.727 199.676 553.323 177.669 553.323H126.543V711.478H177.669Z" fill="black"/>
<path fill-rule="evenodd" clip-rule="evenodd" d="M86.5039 632.401C86.5039 588.727 104.345 553.323 126.352 553.323C148.359 553.323 166.199 588.727 166.199 632.401C166.199 676.075 148.359 711.478 126.352 711.478C104.345 711.478 86.5039 676.075 86.5039 632.401Z" fill="black"/>
<path fill-rule="evenodd" clip-rule="evenodd" d="M98.3965 632.401C98.3965 597.877 110.913 569.892 126.353 569.892C141.792 569.892 154.309 597.877 154.309 632.401C154.309 666.924 141.792 694.91 126.353 694.91C110.913 694.91 98.3965 666.924 98.3965 632.401Z" fill="#727272"/>
<path fill-rule="evenodd" clip-rule="evenodd" d="M530.755 671.655L599.573 517.586C599.573 517.586 496.599 440.787 366.05 440.787C154.309 440.787 161.577 469.384 90.7168 531.462L121.647 553.324C176.676 553.324 181.264 640.714 190.06 665.292C191.423 669.103 195.019 671.655 199.06 671.655H530.755Z" fill="#CC0000"/>
<path fill-rule="evenodd" clip-rule="evenodd" d="M509.737 632.401C509.737 588.727 491.897 553.323 469.888 553.323H418.762V711.478H469.888C491.897 711.478 509.737 676.075 509.737 632.401Z" fill="black"/>
<path fill-rule="evenodd" clip-rule="evenodd" d="M378.725 632.401C378.725 588.727 396.565 553.323 418.572 553.323C440.581 553.323 458.422 588.727 458.422 632.401C458.422 676.075 440.581 711.478 418.572 711.478C396.565 711.478 378.725 676.075 378.725 632.401Z" fill="black"/>
<path fill-rule="evenodd" clip-rule="evenodd" d="M390.615 632.401C390.615 597.877 403.132 569.892 418.572 569.892C434.013 569.892 446.529 597.877 446.529 632.401C446.529 666.924 434.013 694.91 418.572 694.91C403.132 694.91 390.615 666.924 390.615 632.401Z" fill="#727272"/>
<path fill-rule="evenodd" clip-rule="evenodd" d="M489.692 658.936C483.349 630.073 453.032 553.415 416.68 553.415L377.307 517.586C377.307 517.586 570.223 517.586 599.572 517.586C614.968 517.586 683.301 527.046 722.026 553.324C753.312 574.554 757.115 606.758 761.663 653.832C762.592 663.443 754.196 671.702 743.595 671.706C654.533 671.746 546.75 672.053 507.513 672.172C498.854 672.199 491.39 666.663 489.692 658.936Z" fill="#CC0000"/>
<path fill-rule="evenodd" clip-rule="evenodd" d="M583.506 517.586C551.477 517.586 486.982 517.586 438.608 517.586C431.811 517.586 425.393 514.281 421.59 508.636C405.462 484.702 376.919 460.451 356.008 448.964C502.497 448.964 583.506 517.586 583.506 517.586Z" fill="#DEEDF2"/>
<path fill-rule="evenodd" clip-rule="evenodd" d="M395.849 517.585C384.312 517.585 377.306 517.585 377.306 517.585H322.495C330.039 500.607 335.888 485.023 336.52 474.031C328.558 473.438 322.37 472.975 317.564 472.618C326.002 473.246 333.176 473.778 336.524 474.022C336.933 470.586 336.807 461.659 337.254 449.629C342.701 450.654 347.879 452.882 352.422 456.174C370.002 468.91 389.977 488.661 401.191 508.284C403.558 512.426 400.613 517.585 395.849 517.585ZM275.075 517.585H253.656L268.985 450.195C270.378 450.132 271.794 450.074 273.215 450.023C275.119 449.857 277.413 449.718 279.989 449.599C280.162 455.937 280.541 462.703 281.186 469.901C286.622 470.309 293.536 470.825 300.67 471.358L281.186 469.906C281.186 469.906 278.068 491.884 275.075 517.585Z" fill="#CEDEE7"/>
<path fill-rule="evenodd" clip-rule="evenodd" d="M245.234 517.586H158.458C134.124 517.586 141.12 458.855 260.452 450.685L245.234 517.586Z" fill="#CEDEE7"/>
<path fill-rule="evenodd" clip-rule="evenodd" d="M514.809 637.347L590.907 643.099C593.368 643.286 595.27 645.341 595.27 647.811V653.02C595.27 655.629 593.159 657.745 590.552 657.745H514.454C511.848 657.745 509.736 655.629 509.736 653.02V642.059C509.736 639.309 512.071 637.139 514.809 637.347ZM756.726 638.457L735.764 642.67C733.562 643.112 731.976 645.052 731.976 647.303V653.022C731.976 655.631 734.087 657.748 736.694 657.748H758.836C761.664 657.748 763.856 655.274 763.52 652.46L762.338 642.531C762.012 639.793 759.424 637.915 756.726 638.457Z" fill="#34466B"/>
<path fill-rule="evenodd" clip-rule="evenodd" d="M509.457 566.432C470.089 562.368 471.171 543.51 471.171 543.51L577.433 548.681C577.433 548.681 553.494 566.937 519.276 566.937C516.09 566.937 512.812 566.779 509.457 566.432Z" fill="white"/>
<path fill-rule="evenodd" clip-rule="evenodd" d="M48.2063 582.226C47.9094 582.226 47.602 582.201 47.2859 582.148C46.989 582.102 46.7168 582.034 46.4199 581.942L47.992 565.472C48.1483 563.792 48.4329 562.15 48.8368 560.554C49.1952 559.138 49.6448 557.756 50.1823 556.417L57.3734 556.213C57.3734 556.213 57.6931 582.226 48.2063 582.226Z" fill="#34466B"/>
<path d="M726.826 556.833C725.302 555.631 723.703 554.461 722.026 553.324C719.892 551.876 717.668 550.477 715.367 549.131C717.668 550.472 719.892 551.866 722.019 553.315C723.7 554.457 725.3 555.629 726.826 556.833Z" fill="white"/>
<path fill-rule="evenodd" clip-rule="evenodd" d="M725.589 566.936C705.083 566.936 690.733 548.683 690.733 548.683L711.568 546.996C712.856 547.692 714.122 548.403 715.368 549.13C717.669 550.476 719.892 551.875 722.026 553.323C723.704 554.46 725.302 555.63 726.827 556.832C730.238 559.526 733.271 562.376 735.978 565.405C734.589 565.815 733.085 566.158 731.469 566.431C729.46 566.777 727.498 566.936 725.589 566.936ZM610.354 578.414H685.557C688.146 578.414 690.724 579.244 692.914 580.782L706.058 590.013C709.083 592.139 711.106 595.427 711.586 599.001L714.936 623.939C715.879 630.951 710.734 636.891 703.719 636.891H623.296C618.503 636.891 613.964 634.062 611.714 629.673L596.685 600.337C594.5 596.073 594.871 591.102 597.637 587.543L601.393 582.711C603.511 579.985 606.789 578.414 610.354 578.414Z" fill="white"/>
<path d="M292.97 535.321H262.864L262.084 538.488C261.274 541.779 263.282 544.445 266.565 544.445H284.781C288.064 544.445 291.382 541.779 292.192 538.488" fill="#34466B"/>
<path fill-rule="evenodd" clip-rule="evenodd" d="M189.364 535.321H159.256L158.478 538.488C157.669 541.779 159.675 544.445 162.959 544.445H181.174C184.459 544.445 187.777 541.779 188.585 538.488L189.364 535.321Z" fill="#34466B"/>
<path d="M307.947 704.586L297.566 704.422L294.576 680.314L304.952 680.478L307.947 704.586Z" fill="#FFC4B8"/>
<path d="M244.757 704.34L235.275 699.041L242.361 676.667L251.843 681.966L244.757 704.34Z" fill="#FFC4B8"/>
<path fill-rule="evenodd" clip-rule="evenodd" d="M273.909 413.387C270.663 415.48 267.385 417.558 263.883 419.449C260.363 421.337 256.818 423.194 252.425 424.605C251.312 424.955 250.124 425.275 248.796 425.523C248.129 425.648 247.356 425.731 246.624 425.805C245.816 425.854 244.976 425.854 244.105 425.777C242.944 425.672 240.4 425.36 236.473 424.841L229.688 407.003C229.969 396.291 230.722 388.36 231.948 383.212L239.664 384.28C239.782 391.348 240.197 398.811 241.67 405.121C242.041 406.683 242.512 408.152 243.067 409.36C243.592 410.568 244.254 411.487 244.663 411.754C244.864 411.9 244.96 411.883 244.971 411.825L245.066 411.712C245.171 411.684 246.381 411.427 247.663 410.887C250.295 409.801 253.351 408.114 256.279 406.291C259.228 404.45 262.207 402.471 265.139 400.398C271 396.28 276.916 391.846 282.556 387.482L292.441 399.733C286.429 404.665 280.369 409.122 273.909 413.387Z" fill="#FFC4B8"/>
<path fill-rule="evenodd" clip-rule="evenodd" d="M295.622 394.945C290.888 405.617 272.677 416.673 262.579 421.301C259.596 422.668 259.968 426.682 258.203 424.939C258.203 424.939 250.422 410.637 250.422 407.707C250.422 404.776 252.993 406.53 255.113 404.574C262.698 397.576 278.573 382.068 288.455 380.356C301.439 378.109 300.041 384.98 295.622 394.945Z" fill="#23779A"/>
<path fill-rule="evenodd" clip-rule="evenodd" d="M251.509 405.853C250.506 404.37 246.356 408.252 245.036 409.855C243.719 411.458 247.343 417.354 248.441 420.449C249.537 423.546 247.383 426.766 250.722 427.247C252.498 427.502 257.485 426.851 258.452 425.561C260.715 422.549 253.908 409.397 251.509 405.853Z" fill="#1BB3BC"/>
<path d="M277.137 413.147C278.711 412.109 280.277 411.016 281.8 409.883L281.798 409.888C280.276 411.02 278.709 412.11 277.137 413.147Z" fill="#A2A2A2"/>
<path d="M275.342 414.302C276.287 409.358 279.152 403.525 283.515 399.001C282.909 402.215 282.32 405.842 281.8 409.882C280.278 411.015 278.711 412.108 277.137 413.146C276.54 413.54 275.941 413.926 275.342 414.302Z" fill="#9BC3D3"/>
<path d="M238.134 387.437L244.835 377.497L233.899 373.033C233.899 373.033 227.717 380.04 232.09 386.211L238.134 387.437Z" fill="#FFC4B8"/>
<path fill-rule="evenodd" clip-rule="evenodd" d="M247.646 366.786L237.594 366.453L233.898 373.032L244.834 377.495L247.646 366.786Z" fill="#FFC4B8"/>
<path d="M306.504 692.912H306.499L306.199 690.497H306.204L306.504 692.912Z" fill="black"/>
<path d="M248.196 693.51L248.191 693.506L249.225 690.24H249.23L248.196 693.51Z" fill="#CCCCCC"/>
<path fill-rule="evenodd" clip-rule="evenodd" d="M346.456 384.162C335.28 423.639 337.535 465.543 336.525 474.022C328.41 473.431 297.847 471.149 281.187 469.901C275.881 410.509 288.455 380.356 288.455 380.356C288.455 380.356 292.014 379.664 296.853 379.166C298.371 379.011 300.008 378.874 301.712 378.784C302.653 378.728 303.609 378.696 304.578 378.679C310.84 378.575 321.063 379.571 328.106 380.435C329.58 380.618 331.084 380.84 332.534 381.077C333.882 381.308 335.204 381.552 336.45 381.802C342.097 382.93 346.456 384.162 346.456 384.162Z" fill="#23779A"/>
<path d="M307.575 390.677C316.586 391.03 325.534 384.685 328.1 380.432L304.579 378.679C299.908 381.176 298.565 390.323 307.575 390.677Z" fill="#FFC4B8"/>
<path d="M338.77 426.643C334.79 422.343 333.654 404.917 334.648 401.097L340.994 409.281C340.074 415.012 339.369 420.625 338.834 426.013C338.813 426.223 338.791 426.434 338.77 426.643Z" fill="#9BC3D3"/>
<path d="M292.262 690.286L309.827 690.553C309.827 690.553 299.68 621.043 301.261 588.696C301.744 578.856 300.17 565.094 302.764 550.343C306.042 531.758 307.618 524.345 311.856 500.855C314.879 484.107 317.565 472.617 317.565 472.617L281.186 469.907C281.186 469.907 269.305 553.683 269.658 585.4C270.022 618.379 292.262 690.286 292.262 690.286Z" fill="#23779A"/>
<path fill-rule="evenodd" clip-rule="evenodd" d="M309.828 690.553L306.199 690.499L295.821 690.34L292.263 690.286C292.263 690.286 286.278 670.939 280.468 647.71C285.43 629.313 290.522 610.179 293.74 597.555C295.576 590.344 298.212 582.241 301.235 573.684C301.27 577.343 301.361 580.783 301.361 583.936C301.361 585.608 301.335 587.197 301.261 588.696C301.147 591.034 301.094 593.565 301.094 596.252C301.093 630.726 309.828 690.553 309.828 690.553ZM301.224 572.138C301.207 569.097 301.242 565.917 301.412 562.637C301.414 562.634 301.418 562.623 301.419 562.622C301.268 565.52 301.221 568.34 301.221 571.055C301.221 571.418 301.223 571.779 301.224 572.138ZM272.018 546.203C275.394 510.755 281.186 469.907 281.186 469.907L300.813 471.369C300.778 471.461 283.783 514.478 272.018 546.203ZM317.565 472.619C308.386 471.934 304.237 471.625 302.361 471.484L317.565 472.619Z" fill="#34466B"/>
<path d="M280.466 647.715C279.773 644.938 279.082 642.105 278.402 639.244C279.082 642.104 279.774 644.937 280.468 647.71C280.468 647.712 280.468 647.713 280.466 647.715ZM301.235 573.684C301.23 573.172 301.226 572.657 301.225 572.138C301.226 572.655 301.232 573.169 301.237 573.679C301.237 573.681 301.235 573.683 301.235 573.684Z" fill="#23779A"/>
<path d="M280.468 647.711C278.94 641.606 277.424 635.228 276.033 628.867C281.116 614.769 285.982 601.158 289.346 591.471C292.339 582.849 296.626 572.999 301.413 562.638C301.242 565.918 301.207 569.098 301.225 572.138C301.226 572.657 301.23 573.173 301.235 573.685C298.212 582.242 295.576 590.345 293.74 597.556C290.522 610.18 285.43 629.314 280.468 647.711Z" fill="#34466B"/>
<path d="M300.812 471.369C300.812 471.369 274.676 537.525 264.768 566.313C253.918 597.84 236.4 682.951 236.4 682.951L252.927 692.342C252.927 692.342 278.681 622.179 289.344 591.47C301.492 556.49 334.955 501.214 336.52 474.031C300.812 471.369 300.812 471.369 300.812 471.369Z" fill="#23779A"/>
<path fill-rule="evenodd" clip-rule="evenodd" d="M252.927 692.342L249.224 690.238L239.768 684.865L236.4 682.951C236.4 682.951 253.918 597.84 264.768 566.313C274.676 537.525 300.812 471.369 300.812 471.369C300.812 471.369 300.812 471.369 336.52 474.031C335.888 485.023 330.039 500.607 322.495 517.585C315.978 532.248 308.193 547.954 301.411 562.637C296.625 572.997 292.337 582.848 289.344 591.47C285.981 601.157 281.115 614.767 276.032 628.865C274.788 632.313 273.531 635.788 272.28 639.244C270.359 644.551 268.451 649.807 266.624 654.832C264.423 660.884 262.342 666.595 260.496 671.654C259.665 673.931 258.878 676.081 258.154 678.064C258.1 678.214 258.047 678.358 257.993 678.504C254.907 686.951 252.927 692.342 252.927 692.342Z" fill="#34466B"/>
<path fill-rule="evenodd" clip-rule="evenodd" d="M349.02 390.439C351.311 394.695 353.283 398.896 355.312 403.177C357.274 407.467 359.123 411.817 360.915 416.212C362.707 420.613 364.331 425.109 365.817 429.721L366.891 433.21L367.844 436.794C368.161 437.991 368.408 439.26 368.688 440.486L368.891 441.433L369.095 442.693C369.243 443.565 369.246 444.239 369.318 445.022C369.467 447.947 369.251 450.483 368.983 452.99C368.705 455.482 368.341 457.898 367.927 460.278C367.057 465.024 366.018 469.65 364.843 474.222C362.51 483.373 359.707 492.267 356.482 501.117L348.971 499.045C350.547 490.023 352.052 480.906 353.388 471.915C354.035 467.412 354.627 462.925 355.031 458.503C355.243 456.298 355.398 454.114 355.47 451.992C355.537 449.888 355.517 447.785 355.322 446.091C355.25 445.726 355.226 445.237 355.138 444.975L355.038 444.526L354.822 443.789C354.513 442.779 354.258 441.787 353.912 440.766L352.872 437.702L351.737 434.614C350.169 430.49 348.411 426.369 346.637 422.232C344.829 418.104 342.904 414.004 340.954 409.909C339.061 405.811 337 401.683 335.068 397.708L349.02 390.439Z" fill="#FFC4B8"/>
<path fill-rule="evenodd" clip-rule="evenodd" d="M346.452 384.163C353.886 386.496 363.748 417.421 367.641 430.59C370.128 432.823 368.877 436.908 368.877 436.908L353.71 443.612C350.146 441.921 348.033 438.169 349.345 436.36C341.409 421.345 335.165 410.135 332.167 401.173C327.73 387.911 334.986 380.566 346.452 384.163Z" fill="#23779A"/>
<path fill-rule="evenodd" clip-rule="evenodd" d="M350.021 439.935C348.482 440.849 353.175 445.663 354.693 447.078C356.21 448.492 361.227 444.799 364.378 443.891C367.529 442.981 370.608 445.33 371.29 442.021C371.652 440.261 371.306 435.234 370.078 434.188C367.215 431.744 353.697 437.752 350.021 439.935Z" fill="#1BB3BC"/>
<path fill-rule="evenodd" clip-rule="evenodd" d="M350.894 494.607L342.795 501.357L352.872 508.649C352.872 508.649 359.504 501.625 356.527 497.421L350.894 494.607Z" fill="#FFC4B8"/>
<path fill-rule="evenodd" clip-rule="evenodd" d="M338.172 510.803L348.142 515.672L352.875 508.649L342.794 501.355L338.172 510.803Z" fill="#FFC4B8"/>
<path d="M324.3 352.027C328.518 348.923 331.258 343.918 331.258 338.278C331.258 328.867 323.631 321.226 314.237 321.226C305.563 321.226 298.395 327.74 297.348 336.147C297.164 337.023 297.031 337.909 296.939 338.794L296.936 338.815C296.908 339.087 296.885 339.352 296.865 339.616L295.693 352.774L298.361 353.669L298.389 353.675C298.455 353.904 298.492 354.028 298.492 354.028L298.564 355.808L298.696 359.135C298.741 360.236 298.971 361.314 299.371 362.329C299.65 363.045 300.02 363.73 300.471 364.367C301.001 365.113 301.635 365.783 302.342 366.349C302.71 366.646 303.102 366.911 303.511 367.147C303.727 367.272 303.943 367.388 304.167 367.495C302.362 380.505 301.982 387.434 303.023 388.28C304.584 389.548 308.487 390.53 315.711 388.657C319.709 387.621 323.943 385.712 327.164 381.318C327.164 381.318 323.351 364.761 324.3 352.027Z" fill="#FFC4B8"/>
<path fill-rule="evenodd" clip-rule="evenodd" d="M315.652 388.411C319.661 387.541 323.884 385.465 327.105 381.071C327.105 381.071 322.981 363.331 324.379 350.438C324.379 350.438 314.997 373.352 315.652 388.411ZM298.369 353.743C299.303 354.017 300.222 353.282 300.161 352.31L299.768 346.042L298.369 353.743Z" fill="#F4A48D"/>
<path fill-rule="evenodd" clip-rule="evenodd" d="M319.58 320.616C311.907 320.35 312.849 313.827 312.849 313.827C304.637 314.094 301.137 317.155 301.137 317.155C294.54 322.346 297.156 332.759 297.156 332.759C298.162 324.901 310.324 328.251 315.085 329.04C317.03 330.928 316.279 335.537 317.265 339.422C317.283 339.492 319.399 344.75 319.399 344.75L319.401 344.756L319.521 345.302C319.556 345.213 319.592 345.124 319.63 345.034C320.91 342.036 323.517 340.262 325.451 341.069C327.387 341.877 327.917 344.961 326.638 347.959C326.192 349.004 325.066 349.9 324.383 350.59C323.852 354.992 323.951 359.081 324.326 362.592L326.31 362.677L333.447 329.135C333.978 324.645 331.955 322.596 328.718 321.614C326.198 320.849 322.942 320.733 319.58 320.616Z" fill="black"/>
<path d="M407.037 106.64C404.152 83.1707 384.185 65.0002 359.985 65.0002C333.803 65.0002 312.577 86.2692 312.577 112.507C312.577 116.811 313.148 120.982 314.219 124.947C313.817 124.953 313.418 124.967 313.021 124.99L312.574 124.953V125.02C298.996 126.042 288.292 137.408 288.292 151.279C288.292 165.149 298.996 176.515 312.574 177.537V177.616H485.181C495.761 177.616 504.34 169.017 504.34 158.413C504.34 147.81 495.762 139.214 485.182 139.214L441.451 135.601C441.65 134.292 441.754 132.951 441.754 131.587C441.754 117.043 429.989 105.253 415.476 105.253C412.524 105.253 409.685 105.741 407.037 106.64Z" fill="#CEDEE7"/>
<path fill-rule="evenodd" clip-rule="evenodd" d="M161.004 192.359C163.115 175.123 177.725 161.779 195.432 161.779C214.59 161.779 230.121 177.399 230.121 196.667C230.121 199.828 229.703 202.891 228.919 205.803C229.214 205.807 229.506 205.817 229.796 205.835L230.123 205.807V205.856C240.059 206.607 247.89 214.954 247.89 225.14C247.89 235.326 240.059 243.673 230.123 244.424V244.482H103.825C96.0835 244.482 89.8066 238.166 89.8066 230.38C89.8066 222.593 96.0831 216.28 103.825 216.28L135.823 213.627C135.677 212.665 135.601 211.681 135.601 210.679C135.601 199.999 144.209 191.34 154.829 191.34C156.989 191.34 159.066 191.698 161.004 192.359Z" fill="#CEDEE7"/>
<path fill-rule="evenodd" clip-rule="evenodd" d="M297.583 707.044L291.801 723.1L309.369 714.179L308.649 698.905L296.685 696.703L297.583 707.044Z" fill="black"/>
<path fill-rule="evenodd" clip-rule="evenodd" d="M234.502 700.828L221.885 713.747L243.489 713.907L247.338 697.117L235.91 694.384L234.502 700.828Z" fill="black"/>
</svg>
