<svg width="64" height="64" viewBox="0 0 64 64" fill="none" xmlns="http://www.w3.org/2000/svg">
<circle cx="32" cy="32" r="31" fill="white" stroke="#127277" stroke-width="2"/>
<path d="M27.4879 17.6143C27.4245 17.2647 27.1185 17 26.75 17C26.3354 17 26 17.335 26 17.749V18.498H21.5V17.749L21.4879 17.6143C21.4245 17.2647 21.1185 17 20.75 17C20.3354 17 20 17.335 20 17.749V18.498L19.7188 18.506C18.2006 18.6181 17 19.8866 17 21.431V28.2346L17.0081 28.4533C17.1204 29.9694 18.3913 31.1676 19.9377 31.1676H27.5623L27.7812 31.1596C29.2994 31.0475 30.5 29.779 30.5 28.2346V21.431L30.4919 21.2123C30.3796 19.6962 29.1087 18.498 27.5623 18.498H27.5V17.749L27.4879 17.6143ZM46.25 20.0544C46.6185 20.0544 46.9245 20.3191 46.9879 20.6687L47 20.8034V39.5278C47 39.8958 46.735 40.2014 46.3849 40.2647L46.25 40.2768H38.4588L38.2615 40.6659C38.1525 40.8777 38.0754 41.1298 38.0241 41.4461L37.9905 41.6957C37.7458 43.8944 36.4202 45.8429 34.4426 46.9093C34.3291 46.9707 34.2068 47 34.0867 47C33.8201 47 33.5615 46.8581 33.426 46.6065C33.229 46.2437 33.3652 45.7888 33.7292 45.5927C35.1994 44.7987 36.1783 43.4492 36.4536 41.8541L36.4993 41.5319C36.5688 40.9058 36.7051 40.4128 36.927 39.9813L37.1768 39.4899L38.273 37.2679L39.2363 35.2651C39.478 34.7501 39.5095 34.3991 39.3308 34.2206C39.1531 34.0425 38.8609 34.0171 38.65 34.1443L38.5522 34.2206L33.8179 38.9485C33.5249 39.2411 33.0503 39.2411 32.7573 38.9485C32.4969 38.6884 32.468 38.2851 32.6705 37.9932L32.7573 37.8894L33.4464 37.2012L33.4447 32.8703L29.8767 35.1568C29.561 35.3587 29.3347 35.6542 29.2219 36.0126L29.0849 36.4679L28.9359 37.014C28.6313 38.1917 28.3046 39.8672 28.2561 41.7607L28.25 42.2384V46.2247C28.25 46.6387 27.9146 46.9737 27.5 46.9737C27.1315 46.9737 26.8255 46.709 26.7621 46.3594L26.75 46.2247V42.2384C26.75 40.3425 27.0229 38.623 27.3209 37.3105L27.4845 36.6363L27.6441 36.0512L27.7908 35.5635C27.9805 34.9619 28.3513 34.4331 28.8473 34.0506L29.0674 33.8958L33.444 31.0907L33.4399 20.8034C33.4399 20.6044 33.519 20.4143 33.6597 20.2738C33.7722 20.1615 33.9165 20.0885 34.0718 20.0638L34.1899 20.0544H46.25ZM45.5 21.5524H34.9399L34.9458 35.7039L37.4917 33.1615C37.6997 32.9533 37.9517 32.8111 38.2204 32.7151C37.8809 32.5659 37.6403 32.4035 37.4952 32.29L37.3364 32.1521C37.0486 31.8537 37.0566 31.3798 37.3547 31.093C37.6191 30.8382 38.0246 30.8156 38.3126 31.0223L38.4503 31.1401L38.5515 31.2101L38.7211 31.3043C38.96 31.4218 39.3447 31.555 39.8963 31.5864L40.1788 31.5924L40.4584 31.5822C41.0471 31.5422 41.7654 31.3672 41.7654 30.7493C41.7654 30.4546 41.4266 30.2145 40.8869 29.9637L40.4988 29.7941L39.4508 29.3702L39.0408 29.1853C38.0934 28.7286 37.2463 28.079 37.2463 26.8815C37.2463 25.8256 38.0234 25.0078 39.182 24.743L39.4187 24.6975V24.1299C39.4187 23.7159 39.7542 23.3809 40.1687 23.3809C40.5372 23.3809 40.8432 23.6456 40.9066 23.9952L40.9187 24.1299V24.7517C41.3839 24.8496 41.7935 25.0032 42.0916 25.1352L42.3504 25.2572L42.5952 25.3894C42.949 25.603 43.0618 26.0609 42.8494 26.4149C42.6606 26.7295 42.2773 26.8547 41.9435 26.7306L41.8039 26.6624L41.6858 26.5991L41.4713 26.4969C41.129 26.3447 40.5786 26.1486 40.0156 26.1486C39.4004 26.1486 38.7463 26.4061 38.7463 26.8815C38.7463 27.3593 39.2755 27.6716 40.1207 28.0258L41.0142 28.3852L41.4234 28.561C42.3753 28.9934 43.2654 29.6001 43.2654 30.7493C43.2654 31.6882 42.6998 32.6793 41.1942 32.9906L40.9187 33.0383V34.1806C40.9924 34.6273 40.9271 35.1923 40.5957 35.8999L39.3366 38.5057L39.2026 38.7788H45.5V21.5524ZM29 24.4898V28.2346L28.9903 28.4018C28.9071 29.1147 28.2981 29.6697 27.5623 29.6697H19.9377L19.7704 29.66C19.0564 29.577 18.5 28.9695 18.5 28.2346V24.4898H29ZM19.9377 19.9959H20V20.7449L20.0121 20.8796C20.0755 21.2292 20.3815 21.4939 20.75 21.4939C21.1646 21.4939 21.5 21.1589 21.5 20.7449V19.9959H26V20.7449L26.0121 20.8796C26.0755 21.2292 26.3815 21.4939 26.75 21.4939C27.1646 21.4939 27.5 21.1589 27.5 20.7449V19.9959H27.5623L27.7296 20.0056C28.4436 20.0886 29 20.6961 29 21.431V22.9918H18.5V21.431L18.5097 21.2638C18.5929 20.5509 19.2019 19.9959 19.9377 19.9959Z" fill="#127277"/>
</svg>
