<svg width="64" height="64" viewBox="0 0 64 64" fill="none" xmlns="http://www.w3.org/2000/svg">
<circle cx="32" cy="32" r="31" fill="white" stroke="#127277" stroke-width="2"/>
<path d="M24.5 17H36.5C36.7039 17 36.8818 17.0865 37.0142 17.2205L37.1047 17.3293L44.4957 24.7203C44.6189 24.8306 44.7082 24.9773 44.7386 25.1456L44.75 25.2756L44.7383 25.3327L44.75 46.2493C44.75 46.4485 44.6709 46.6396 44.5303 46.7803C44.4178 46.8928 44.2734 46.9659 44.1181 46.9906L44 47H24.5C24.1315 47 23.8255 46.735 23.7621 46.3849L23.75 46.25V31.2002C23.75 30.7856 24.0854 30.4502 24.5 30.4502C24.8685 30.4502 25.1745 30.7152 25.2379 31.0653L25.25 31.2002V45.5H43.25L43.2386 26.0211L36.5322 26C36.1663 25.9987 35.8618 25.7352 35.7976 25.3876L35.7852 25.2537L35.7535 18.5H25.25V19.2881C25.25 19.7026 24.9146 20.0381 24.5 20.0381C24.1315 20.0381 23.8255 19.773 23.7621 19.423L23.75 19.2881V17.75C23.75 17.3354 24.0854 17 24.5 17ZM33.5 27.144C33.8685 27.144 34.1745 27.4091 34.2379 27.7591L34.25 27.894V29.1318C34.8899 29.2381 35.4714 29.4281 35.9279 29.6112L36.287 29.7644L36.5757 29.9014L36.9277 30.0906C37.2822 30.3044 37.395 30.7644 37.1812 31.1189C36.991 31.434 36.603 31.5581 36.2733 31.4332L35.9303 31.2544L35.679 31.1325C35.1443 30.8862 34.2246 30.5403 33.2729 30.5403C32.1494 30.5403 31.0112 31.042 31.0112 32.0015C31.0112 32.9508 31.9407 33.493 33.4112 34.102L34.4863 34.5331C34.6478 34.5983 34.8096 34.6651 34.97 34.7342L35.4457 34.9496C36.6944 35.5472 37.7495 36.3493 37.7495 37.7766C37.7495 39.4545 36.568 40.5462 34.5447 40.827L34.25 40.8616V42.0723C34.25 42.4868 33.9146 42.8223 33.5 42.8223C33.1315 42.8223 32.8255 42.5572 32.7621 42.2072L32.75 42.0723V40.8671C31.2339 40.7329 30.2944 40.2018 29.8461 39.8721L29.6738 39.7364L29.542 39.615C29.2534 39.3169 29.2622 38.8423 29.5596 38.5544C29.8265 38.2986 30.2312 38.2771 30.5184 38.4848L30.6646 38.6126L30.7803 38.701L30.9699 38.8232C31.3872 39.0686 32.1918 39.4062 33.4619 39.4062L33.6231 39.4045L33.9699 39.3886C34.988 39.3156 36.2495 38.9819 36.2495 37.7766C36.2495 37.1118 35.6071 36.6633 34.5554 36.1929L34.0417 35.9734L32.7715 35.4631L32.3031 35.2624C30.8314 34.6057 29.5112 33.7247 29.5112 32.0015C29.5112 30.5028 30.7241 29.3745 32.4823 29.111L32.75 29.078V27.894C32.75 27.4795 33.0854 27.144 33.5 27.144ZM29.75 26.75C29.75 26.3354 29.4146 26 29 26H20L19.8651 26.0121C19.515 26.0755 19.25 26.3815 19.25 26.75C19.25 27.1646 19.5854 27.5 20 27.5H29L29.1349 27.4879C29.485 27.4245 29.75 27.1185 29.75 26.75ZM37.2589 19.6046L37.2822 24.5022L42.172 24.5177L37.2589 19.6046ZM29.75 23.75C29.75 23.3354 29.4146 23 29 23H20L19.8651 23.0121C19.515 23.0755 19.25 23.3815 19.25 23.75C19.25 24.1646 19.5854 24.5 20 24.5H29L29.1349 24.4879C29.485 24.4245 29.75 24.1185 29.75 23.75Z" fill="#127277"/>
</svg>
