<svg width="24" height="25" viewBox="0 0 24 25" fill="none" xmlns="http://www.w3.org/2000/svg">
<path fill-rule="evenodd" clip-rule="evenodd" d="M20.9998 7.09927C20.9998 5.41915 19.6449 4.05701 17.9738 4.05701H6.02876C4.3563 4.05701 2.99976 5.42047 2.99976 7.10229V14.0816C2.99976 15.7537 4.34065 17.1111 5.99976 17.1267V19.6403C5.99976 20.0882 6.53833 20.3125 6.85331 19.9958L9.70686 17.1269H17.9708C19.6439 17.1269 20.9998 15.7637 20.9998 14.0816V7.09927ZM6.02876 5.06238H17.9738C19.0926 5.06238 19.9998 5.9744 19.9998 7.09927V14.0816C19.9998 15.2085 19.0916 16.1215 17.9708 16.1215H9.49976C9.36715 16.1215 9.23997 16.1745 9.1462 16.2687L6.99976 18.4267V16.6242C6.99976 16.3466 6.7759 16.1215 6.49976 16.1215H6.02876C4.90852 16.1215 3.99976 15.2081 3.99976 14.0816V7.10229C3.99976 5.97578 4.90852 5.06238 6.02876 5.06238ZM12 13.6077C12.2454 13.6077 12.4496 13.7855 12.4919 14.02L12.5 14.1104V14.6134C12.5 14.8911 12.2761 15.1161 12 15.1161C11.7545 15.1161 11.5503 14.9383 11.508 14.7038L11.5 14.6134V14.1104C11.5 13.8327 11.7238 13.6077 12 13.6077ZM12.4494 6.10809C10.8949 5.8309 9.50146 7.03134 9.50146 8.60181C9.50146 8.87943 9.72531 9.10449 10.0015 9.10449C10.2776 9.10449 10.5015 8.87943 10.5015 8.60181C10.5015 7.65167 11.338 6.93098 12.2751 7.09808C12.871 7.20388 13.3686 7.70997 13.4738 8.31974C13.5903 8.99173 13.2798 9.62955 12.72 9.94325L12.5646 10.0374C11.9097 10.4658 11.5005 11.1584 11.5005 11.9286V12.6022L11.5085 12.6926C11.5508 12.9271 11.755 13.1049 12.0005 13.1049C12.2766 13.1049 12.5005 12.8798 12.5005 12.6022V11.9286L12.5083 11.7955C12.5552 11.4002 12.8097 11.0435 13.2065 10.8216L13.3573 10.7301C14.1895 10.184 14.6387 9.18347 14.459 8.1475C14.2822 7.12245 13.4614 6.28779 12.4494 6.10809Z" fill="#EC0000"/>
</svg>
