<svg width="24" height="24" viewBox="0 0 24 24" fill="none" xmlns="http://www.w3.org/2000/svg">
<path d="M15.917 2C17.0674 2 18 2.93215 18 4.083V19.917C18 21.0678 17.0674 22 15.917 22H8.082C6.93165 22 6 21.0679 6 19.917V4.083C6 2.93206 6.93165 2 8.082 2H15.917ZM15.917 3H8.082C7.48404 3 7 3.48425 7 4.083V19.917C7 20.5158 7.48404 21 8.082 21H15.917C16.5153 21 17 20.5155 17 19.917V4.083C17 3.48454 16.5153 3 15.917 3ZM9.9995 18.5C9.9995 18.2239 9.77564 18 9.4995 18H8.4995L8.40962 18.0081C8.17638 18.0504 7.9995 18.2545 7.9995 18.5C7.9995 18.7761 8.22336 19 8.4995 19H9.4995L9.58938 18.9919C9.82262 18.9496 9.9995 18.7455 9.9995 18.5ZM12.4995 18C12.7756 18 12.9995 18.2239 12.9995 18.5C12.9995 18.7455 12.8226 18.9496 12.5894 18.9919L12.4995 19H11.4995C11.2234 19 10.9995 18.7761 10.9995 18.5C10.9995 18.2545 11.1764 18.0504 11.4096 18.0081L11.4995 18H12.4995ZM15.9995 18.5C15.9995 18.2239 15.7756 18 15.4995 18H14.4995L14.4096 18.0081C14.1764 18.0504 13.9995 18.2545 13.9995 18.5C13.9995 18.7761 14.2234 19 14.4995 19H15.4995L15.5894 18.9919C15.8226 18.9496 15.9995 18.7455 15.9995 18.5ZM9.4995 16C9.77564 16 9.9995 16.2239 9.9995 16.5C9.9995 16.7455 9.82262 16.9496 9.58938 16.9919L9.4995 17H8.4995C8.22336 17 7.9995 16.7761 7.9995 16.5C7.9995 16.2545 8.17638 16.0504 8.40962 16.0081L8.4995 16H9.4995ZM12.9995 16.5C12.9995 16.2239 12.7756 16 12.4995 16H11.4995L11.4096 16.0081C11.1764 16.0504 10.9995 16.2545 10.9995 16.5C10.9995 16.7761 11.2234 17 11.4995 17H12.4995L12.5894 16.9919C12.8226 16.9496 12.9995 16.7455 12.9995 16.5ZM15.4995 16C15.7756 16 15.9995 16.2239 15.9995 16.5C15.9995 16.7455 15.8226 16.9496 15.5894 16.9919L15.4995 17H14.4995C14.2234 17 13.9995 16.7761 13.9995 16.5C13.9995 16.2545 14.1764 16.0504 14.4096 16.0081L14.4995 16H15.4995ZM9.9995 14.5C9.9995 14.2239 9.77564 14 9.4995 14H8.4995L8.40962 14.0081C8.17638 14.0504 7.9995 14.2545 7.9995 14.5C7.9995 14.7761 8.22336 15 8.4995 15H9.4995L9.58938 14.9919C9.82262 14.9496 9.9995 14.7455 9.9995 14.5ZM12.4995 14C12.7756 14 12.9995 14.2239 12.9995 14.5C12.9995 14.7455 12.8226 14.9496 12.5894 14.9919L12.4995 15H11.4995C11.2234 15 10.9995 14.7761 10.9995 14.5C10.9995 14.2545 11.1764 14.0504 11.4096 14.0081L11.4995 14H12.4995ZM15.9995 14.5C15.9995 14.2239 15.7756 14 15.4995 14H14.4995L14.4096 14.0081C14.1764 14.0504 13.9995 14.2545 13.9995 14.5C13.9995 14.7761 14.2234 15 14.4995 15H15.4995L15.5894 14.9919C15.8226 14.9496 15.9995 14.7455 15.9995 14.5ZM15.4995 4C15.745 4 15.9491 4.17688 15.9914 4.41012L15.9995 4.5V10.5C15.9995 10.7455 15.8226 10.9496 15.5894 10.9919L15.4995 11H8.4995C8.25404 11 8.04989 10.8231 8.00756 10.5899L7.9995 10.5V4.5C7.9995 4.25454 8.17638 4.05039 8.40962 4.00806L8.4995 4H15.4995ZM8.9995 5V10H14.9995V5H8.9995Z" fill="#222222"/>
</svg>
