<svg width="24" height="24" viewBox="0 0 24 24" fill="none" xmlns="http://www.w3.org/2000/svg">
<path fill-rule="evenodd" clip-rule="evenodd" d="M19 7C19 6.44772 18.5523 6 18 6H3C2.44772 6 2 6.44772 2 7C2 7.55228 2.44772 8 3 8H18C18.5523 8 19 7.55228 19 7ZM21 11C21.5523 11 22 11.4477 22 12C22 12.5523 21.5523 13 21 13H3C2.44772 13 2 12.5523 2 12C2 11.4477 2.44772 11 3 11H21ZM15 16C15.5523 16 16 16.4477 16 17C16 17.5523 15.5523 18 15 18H3C2.44772 18 2 17.5523 2 17C2 16.4477 2.44772 16 3 16H15Z" fill="#EC0000"/>
</svg>
