<svg width="24" height="24" viewBox="0 0 24 24" fill="none" xmlns="http://www.w3.org/2000/svg">
<path fill-rule="evenodd" clip-rule="evenodd" d="M12 2.82654C17.5142 2.82654 22 7.14077 22 12.444C22 14.9187 21.0149 17.1706 19.4126 18.8766C19.3817 18.9225 19.3453 18.9619 19.3005 18.9952C17.4741 20.8766 14.8813 22.0614 12 22.0614C9.11871 22.0614 6.52594 20.8766 4.69946 18.9952C4.65466 18.9619 4.61829 18.9225 4.5874 18.8766C2.98511 17.1706 2 14.9187 2 12.444C2 7.14077 6.48584 2.82654 12 2.82654ZM15.5 16.5732C15.0547 16.5732 14.4319 16.6548 13.7253 16.8042L13.4565 16.8634L13.1216 16.9456L13.115 16.9472L13.115 16.9472C12.725 17.0449 12.3224 17.1456 12 17.1456C11.7277 17.1456 11.4761 17.0936 11.2473 17.0361L10.9233 16.9522C10.7176 16.8999 10.5104 16.8541 10.3017 16.8149L9.98779 16.761L9.7085 16.7159L9.69705 16.7141L9.69703 16.7141L9.69701 16.7141L9.69699 16.7141C9.3113 16.651 8.83552 16.5732 8.5 16.5732C6.96578 16.5732 5.61246 17.257 5.50665 18.06L5.5 18.1609V18.4144C7.13983 20.065 9.44458 21.0997 12 21.0997C14.4489 21.0997 16.6677 20.1495 18.2916 18.6175L18.5 18.4144V18.1609C18.5 17.256 17.2104 16.5732 15.5 16.5732ZM3 12.444C3 7.67142 7.0376 3.78828 12 3.78828C16.9624 3.78828 21 7.67142 21 12.444C21 14.3047 20.3804 16.0258 19.3373 17.4387C18.8813 16.35 17.4162 15.6114 15.5 15.6114C14.7607 15.6114 13.855 15.7833 13.2241 15.928L12.5468 16.0939C12.3329 16.144 12.1305 16.1839 12 16.1839C11.7947 16.1839 11.5762 16.1263 11.345 16.0653L11.345 16.0653L11.3442 16.0651L11.1777 16.0219L10.8368 15.9408C10.6086 15.8904 10.3784 15.8472 10.147 15.8115L9.60244 15.7234C9.23063 15.6646 8.83906 15.6114 8.5 15.6114C6.68115 15.6114 5.15924 16.3939 4.67542 17.4551C3.62488 16.0391 3 14.3121 3 12.444ZM11.9976 5.32717C13.1099 5.32717 14.2319 5.81461 14.9258 6.59885C15.4576 7.20008 15.7041 7.93576 15.6302 8.68843L15.605 8.87689L15.2183 11.8518C14.9648 13.4513 13.6714 14.5173 11.9976 14.5173C10.3909 14.5173 9.13506 13.5317 8.81728 12.0452L8.78369 11.8645L8.39307 8.85951C8.25684 8.05837 8.49805 7.24831 9.07422 6.5965C9.7666 5.81367 10.8867 5.32717 11.9976 5.32717ZM9.83643 7.21966C10.3438 6.64534 11.1719 6.28891 11.9976 6.28891C12.8252 6.28891 13.6553 6.64628 14.1641 7.22201C14.4351 7.52819 14.7339 8.03724 14.6152 8.74023L14.228 11.7199L14.1963 11.8841C13.963 12.905 13.1169 13.5555 11.9976 13.5555C10.8223 13.5555 9.94873 12.8347 9.77393 11.7325L9.38281 8.72239L9.36214 8.55445C9.31614 7.95232 9.58756 7.50076 9.83643 7.21966Z" fill="#EC0000"/>
</svg>
