<svg width="24" height="25" viewBox="0 0 24 25" fill="none" xmlns="http://www.w3.org/2000/svg">
<path fill-rule="evenodd" clip-rule="evenodd" d="M20.038 4.55969C21.0726 4.55969 21.9197 5.36451 21.9946 6.38504L22 6.53224V8.07851C22 8.32528 21.8231 8.53053 21.5899 8.57309L21.5 8.58119H19.5C19.2239 8.58119 19 8.35613 19 8.07851C19 7.83173 19.1769 7.62648 19.4101 7.58392L19.5 7.57582H21V6.53224C21 6.03628 20.6288 5.62745 20.1502 5.57158L20.038 5.56507H18V19.1376C18 19.3844 17.8231 19.5897 17.5899 19.6322L17.5 19.6403H6.5C6.25454 19.6403 6.05039 19.4625 6.00806 19.228L6 19.1376V5.56507H3.962C3.4685 5.56507 3.06202 5.93847 3.00647 6.41945L3 6.53224V7.57582H4.5C4.77614 7.57582 5 7.80088 5 8.07851C5 8.32528 4.82312 8.53053 4.58988 8.57309L4.5 8.58119H2.5C2.25454 8.58119 2.05039 8.40337 2.00806 8.16886L2 8.07851V6.53224C2 5.49249 2.80013 4.64042 3.81554 4.5651L3.962 4.55969H20.038ZM17 5.56507H7V15.1235C8.86405 15.1235 10.3874 16.5928 10.4868 18.4426L10.492 18.6352L13.526 18.6353C13.526 16.7709 14.9792 15.2473 16.8094 15.1478L17 15.1427V5.56507ZM7 18.6349V16.1288L7.16382 16.1342C8.46348 16.219 9.492 17.3065 9.492 18.6352L7 18.6349ZM17 16.148C15.6882 16.148 14.615 17.1745 14.5313 18.4718L14.526 18.6353L17 18.6349V16.148ZM14.7026 10.3618C14.5666 9.44208 14.0525 8.84108 13.211 8.84108C12.3924 8.84108 12.0634 9.30828 11.5821 10.531L11.4153 10.942C11.1466 11.5672 10.9662 11.7687 10.715 11.7687C10.4727 11.7687 10.259 11.4562 10.259 10.9634C10.259 10.7086 10.3219 10.4316 10.4283 10.1578C10.4412 10.1244 10.4542 10.0927 10.4668 10.0628L10.5382 9.90702L10.5938 9.80397C10.7367 9.56641 10.661 9.25736 10.4247 9.11369C10.1884 8.97003 9.88105 9.04614 9.73815 9.28371C9.72522 9.30522 9.71131 9.32942 9.69663 9.3562L9.60099 9.54658C9.56713 9.6196 9.53183 9.70183 9.49674 9.79221C9.42405 9.9794 9.36543 10.1698 9.32458 10.362L8.9398 10.3617L8.84992 10.3698C8.61668 10.4124 8.4398 10.6176 8.4398 10.8644C8.4398 11.142 8.66366 11.3671 8.9398 11.3671L9.29186 11.368C9.42427 12.1646 9.94873 12.7741 10.715 12.7741C11.603 12.7741 11.9757 12.2628 12.4759 10.9927L12.6406 10.5862L12.7541 10.3359C12.9324 9.96913 13.0615 9.84646 13.211 9.84646C13.5358 9.84646 13.739 10.1621 13.739 10.881C13.739 11.2525 13.6702 11.5496 13.559 11.7816L13.4937 11.9034L13.4463 11.9735L13.3734 12.0582C13.2352 12.2518 13.25 12.523 13.4206 12.7003C13.6126 12.8999 13.9292 12.9052 14.1276 12.7122C14.2256 12.6169 14.347 12.4537 14.46 12.2179C14.5784 11.9706 14.664 11.6874 14.7071 11.3685L15.0605 11.3671L15.1504 11.359C15.3836 11.3164 15.5605 11.1112 15.5605 10.8644C15.5605 10.5868 15.3366 10.3617 15.0605 10.3617L14.7026 10.3618Z" fill="#EC0000"/>
</svg>
