<svg width="24" height="24" viewBox="0 0 24 24" fill="none" xmlns="http://www.w3.org/2000/svg">
<path d="M9.00434 19.0041C8.73892 19.0056 8.48382 18.9013 8.29537 18.7141C8.10633 18.5263 8 18.2707 8 18.0041C8 17.7375 8.10633 17.4819 8.29537 17.2941L13.5877 12.0041L8.29537 6.71409C7.90382 6.32197 7.90382 5.68621 8.29537 5.29409C8.68692 4.90197 9.32176 4.90197 9.71331 5.29409L15.7046 11.2941C15.8937 11.4819 16 11.7375 16 12.0041C16 12.2707 15.8937 12.5263 15.7046 12.7141L9.71331 18.7141C9.52487 18.9013 9.26976 19.0056 9.00434 19.0041Z" fill="#222222"/>
</svg>
