<svg width="24" height="24" viewBox="0 0 24 24" fill="none" xmlns="http://www.w3.org/2000/svg">
<path d="M17.545 11.649C17.851 11.562 18.167 11.5 18.5 11.5C20.43 11.5 22 13.07 22 15C22 16.93 20.43 18.5 18.5 18.5C16.57 18.5 15 16.93 15 15C15 13.759 15.654 12.674 16.631 12.052L16.223 11.141C14.898 11.926 14 13.354 14 15C14 15.276 13.776 15.5 13.5 15.5H8.949C8.704 17.191 7.259 18.5 5.5 18.5C3.57 18.5 2 16.93 2 15C2 13.07 3.57 11.5 5.5 11.5C7.259 11.5 8.704 12.809 8.949 14.5H9.949C9.697 12.256 7.811 10.5 5.5 10.5H3.5C3.224 10.5 3 10.276 3 10C3 9.724 3.224 9.5 3.5 9.5H10.05C10.282 8.36 11.293 7.5 12.5 7.5H14.59L14.438 7.16C14.27 6.754 13.891 6.5 13.466 6.5H12.5C12.224 6.5 12 6.276 12 6C12 5.724 12.224 5.5 12.5 5.5H13.466C14.297 5.5 15.039 5.997 15.355 6.766L15.685 7.5H16.5C17.879 7.5 19 8.621 19 10C19 10.276 18.776 10.5 18.5 10.5C18.021 10.5 17.568 10.596 17.135 10.734L17.545 11.649ZM10.975 14.5H13.022C13.203 12.502 14.462 10.817 16.206 10.012C16.2131 10.008 16.2191 10.0028 16.2251 9.99755C16.2325 9.99102 16.24 9.98444 16.25 9.98C16.2702 9.97126 16.2912 9.96794 16.3126 9.96458C16.323 9.96294 16.3335 9.96129 16.344 9.959C16.84 9.745 17.366 9.589 17.925 9.53C17.727 8.933 17.163 8.5 16.5 8.5H12.5C11.673 8.5 11 9.173 11 10C11 10.276 10.776 10.5 10.5 10.5H8.652C9.94 11.405 10.825 12.848 10.975 14.5ZM16 15C16 16.379 17.121 17.5 18.5 17.5C19.879 17.5 21 16.379 21 15C21 13.621 19.879 12.5 18.5 12.5C18.313 12.5 18.131 12.524 17.955 12.563L18.956 14.796C19.069 15.048 18.956 15.344 18.704 15.456C18.638 15.486 18.568 15.5 18.5 15.5C18.31 15.5 18.127 15.39 18.044 15.204L17.045 12.976C16.415 13.43 16 14.165 16 15ZM5.5 17.5C6.708 17.5 7.717 16.64 7.949 15.5H5.5C5.224 15.5 5 15.276 5 15C5 14.724 5.224 14.5 5.5 14.5H7.949C7.717 13.36 6.708 12.5 5.5 12.5C4.121 12.5 3 13.621 3 15C3 16.379 4.121 17.5 5.5 17.5Z" fill="#222222"/>
</svg>
