<svg width="24" height="24" viewBox="0 0 24 24" fill="none" xmlns="http://www.w3.org/2000/svg">
<path d="M10.5343 2.08861C10.3394 1.95358 10.0701 1.97287 9.89648 2.14648L7.44922 4.59375L7.39135 4.66301C7.25632 4.85788 7.27561 5.12717 7.44922 5.30078C7.64453 5.49609 7.96094 5.49609 8.15625 5.30078L9.75 3.70703V8.57697L9.57843 8.61184C8.27686 8.9169 7.30273 10.0804 7.30273 11.4736C7.30273 13.0986 8.625 14.4209 10.25 14.4209C11.875 14.4209 13.1973 13.0986 13.1973 11.4736C13.1973 10.0198 12.1366 8.81616 10.75 8.57697V3.70703L12.3438 5.30078L12.4222 5.36487C12.5054 5.4198 12.6013 5.44727 12.6973 5.44727C12.8252 5.44727 12.9531 5.39844 13.0508 5.30078C13.2461 5.10547 13.2461 4.78906 13.0508 4.59375L10.6035 2.14648L10.5343 2.08861ZM7.0791 6.5791C7.0791 6.30273 6.85547 6.0791 6.5791 6.0791H2.5L2.41007 6.08715C2.1767 6.12945 2 6.33344 2 6.5791V16.3682L2.00805 16.4581C2.05035 16.6915 2.25434 16.8682 2.5 16.8682H10.5L10.5899 16.8601C10.8233 16.8178 11 16.6138 11 16.3682C11 16.0918 10.7764 15.8682 10.5 15.8682H5.80493L5.77121 15.6811C5.48643 14.3231 4.38469 13.2726 3 13.0632V9.88403L3.18702 9.85031C4.54488 9.56555 5.59552 8.46403 5.80493 7.0791H6.5791L6.66904 7.07105C6.9024 7.02875 7.0791 6.82476 7.0791 6.5791ZM20.6821 14.3184C19.832 13.4678 18.7017 13 17.5 13C16.2979 13 15.1675 13.4678 14.3179 14.3184C13.4678 15.168 13 16.2979 13 17.5C13 18.7021 13.4678 19.832 14.3179 20.6816C15.1675 21.5322 16.2979 22 17.5 22C18.7017 22 19.832 21.5322 20.6821 20.6816C21.5322 19.832 22 18.7021 22 17.5C22 16.2979 21.5322 15.168 20.6821 14.3184ZM15.0249 15.0254C15.686 14.3643 16.5649 14 17.5 14C18.4346 14 19.314 14.3643 19.9751 15.0254C20.6362 15.6865 21 16.5654 21 17.5C21 18.4346 20.6362 19.3135 19.9751 19.9746C18.6519 21.2969 16.3467 21.2959 15.0249 19.9746C14.3638 19.3135 14 18.4346 14 17.5C14 16.5654 14.3638 15.6865 15.0249 15.0254ZM17.5 15C17.7457 15 17.9497 15.1767 17.992 15.4101L18 15.5V17H19.5C19.7764 17 20 17.2236 20 17.5C20 17.7457 19.8233 17.9497 19.5899 17.992L19.5 18H17.5C17.2543 18 17.0503 17.8233 17.008 17.5899L17 17.5V15.5C17 15.2236 17.2236 15 17.5 15ZM3 14.0687L3.16597 14.1112C3.98387 14.3529 4.61651 15.0267 4.7995 15.8682H3V14.0687ZM10.25 9.52637C11.3237 9.52637 12.1973 10.4004 12.1973 11.4736C12.1973 12.5469 11.3237 13.4209 10.25 13.4209C9.17627 13.4209 8.30273 12.5469 8.30273 11.4736C8.30273 10.4004 9.17627 9.52637 10.25 9.52637ZM18.492 6.48917C18.4497 6.2558 18.2457 6.0791 18 6.0791H13.9209L13.831 6.08715C13.5976 6.12945 13.4209 6.33344 13.4209 6.5791C13.4209 6.85547 13.6445 7.0791 13.9209 7.0791H14.6951L14.7288 7.26615C15.0136 8.62421 16.1153 9.67462 17.5 9.88403V11.1084L17.508 11.1983C17.5503 11.4317 17.7543 11.6084 18 11.6084C18.2764 11.6084 18.5 11.3848 18.5 11.1084V6.5791L18.492 6.48917ZM17.5 7.0791V8.8786L17.334 8.83609C16.5161 8.59432 15.8835 7.92053 15.7005 7.0791H17.5ZM3 7.0791H4.7995L4.75698 7.24507C4.51522 8.06297 3.84143 8.69561 3 8.8786V7.0791Z" fill="#222222"/>
</svg>
