<svg width="24" height="25" viewBox="0 0 24 25" fill="none" xmlns="http://www.w3.org/2000/svg">
<path fill-rule="evenodd" clip-rule="evenodd" d="M18.9697 4.05701C20.5809 4.05701 21.9025 5.32781 21.9948 6.92439L22 7.10308V9.05345C22 10.6634 20.7514 11.9858 19.1763 12.0931L19 12.1V14.6134C19 14.8167 18.8779 15.0003 18.6914 15.0778C18.6299 15.1039 18.5645 15.1161 18.5 15.1161C18.3961 15.1161 18.2934 15.0835 18.2075 15.0211L18.1465 14.9689L16 12.8108V14.0803C16 15.7002 14.736 17.0289 13.1475 17.1217L12.9697 17.1269H8.70703L5.85352 19.9957C5.75781 20.092 5.62988 20.143 5.5 20.143C5.43555 20.143 5.37012 20.1307 5.30859 20.1047C5.14872 20.0382 5.03619 19.8938 5.00731 19.726L5 19.6403V17.1269C3.40196 17.1108 2.09631 15.8453 2.00509 14.258L2 14.0803V12.13C2 10.5105 3.26401 9.1819 4.85249 9.08906L5.03027 9.08388H8.00336L8 9.05345V7.10308C8 5.48367 9.26401 4.15503 10.8525 4.06219L11.0303 4.05701H18.9697ZM8.18164 10.0893H5.03027C3.962 10.0893 3.08326 10.9235 3.00558 11.9779L3 12.13V14.0803C3 15.1548 3.83019 16.0378 4.87902 16.1159L5.03027 16.1215H5.5C5.74566 16.1215 5.94965 16.2992 5.99195 16.5338L6 16.6242V18.4268L8.14648 16.2688C8.22148 16.1934 8.31773 16.1444 8.42123 16.1278L8.5 16.1215H12.9697C14.038 16.1215 14.9167 15.2873 14.9944 14.2325L15 14.0803V12.1H11.0303C10.8574 12.1 10.6885 12.084 10.5234 12.0567L10.3615 12.0185C10.254 11.9946 10.147 11.97 10.044 11.935L9.95309 11.8997L9.86359 11.8615C9.77325 11.8241 9.68384 11.7861 9.59821 11.7404L9.50956 11.6892L9.42279 11.635C9.34412 11.5857 9.26715 11.5349 9.19354 11.4786C9.13782 11.436 9.08508 11.3909 9.03247 11.3444C8.96417 11.2841 8.89893 11.2213 8.8363 11.1548C8.78766 11.1032 8.74078 11.0506 8.69574 10.9955L8.61198 10.8865L8.53302 10.7733L8.53211 10.772L8.53209 10.772L8.53206 10.7719C8.49278 10.7135 8.45388 10.6558 8.41858 10.5943L8.35168 10.4674L8.24689 10.2421L8.18164 10.0893ZM7 13.6081C7 13.3302 6.77637 13.1054 6.5 13.1054H5.5L5.41007 13.1135C5.1767 13.156 5 13.3611 5 13.6081C5 13.8859 5.22363 14.1108 5.5 14.1108H6.5L6.58993 14.1027C6.8233 14.0601 7 13.8551 7 13.6081ZM12.5 13.1054C12.7764 13.1054 13 13.3302 13 13.6081C13 13.8551 12.8233 14.0601 12.5899 14.1027L12.5 14.1108H11.5C11.2236 14.1108 11 13.8859 11 13.6081C11 13.3611 11.1767 13.156 11.4101 13.1135L11.5 13.1054H12.5ZM10 13.6081C10 13.3302 9.77637 13.1054 9.5 13.1054H8.5L8.41007 13.1135C8.1767 13.156 8 13.3611 8 13.6081C8 13.8859 8.22363 14.1108 8.5 14.1108H9.5L9.58993 14.1027C9.8233 14.0601 10 13.8551 10 13.6081ZM18.9697 5.06238H11.0303C9.962 5.06238 9.08326 5.89658 9.00558 6.95101L9 7.10308V9.05345C9 9.19974 9.01562 9.34014 9.0459 9.47121C9.22107 10.3123 9.86652 10.9245 10.6748 11.0643L10.8504 11.087L11.0303 11.0946H15.5C15.6062 11.0946 15.7087 11.1286 15.7935 11.1904L15.8535 11.2419L18 13.3999V11.5973C18 11.3503 18.1767 11.1453 18.4101 11.1027L18.5 11.0946H18.9697C20.038 11.0946 20.9167 10.2604 20.9944 9.20558L21 9.05345V7.10308C21 6.02906 20.1698 5.14605 19.121 5.06799L18.9697 5.06238ZM19 8.5812C19 8.30334 18.7764 8.07851 18.5 8.07851H17.5L17.4101 8.0866C17.1767 8.12913 17 8.33422 17 8.5812C17 8.85905 17.2236 9.08388 17.5 9.08388H18.5L18.5899 9.07579C18.8233 9.03327 19 8.82818 19 8.5812ZM12.5 8.07851C12.7764 8.07851 13 8.30334 13 8.5812C13 8.82818 12.8233 9.03327 12.5899 9.07579L12.5 9.08388H11.5C11.2236 9.08388 11 8.85905 11 8.5812C11 8.33422 11.1767 8.12913 11.4101 8.0866L11.5 8.07851H12.5ZM16 8.5812C16 8.30334 15.7764 8.07851 15.5 8.07851H14.5L14.4101 8.0866C14.1767 8.12913 14 8.33422 14 8.5812C14 8.85905 14.2236 9.08388 14.5 9.08388H15.5L15.5899 9.07579C15.8233 9.03327 16 8.82818 16 8.5812Z" fill="#EC0000"/>
</svg>
