<svg width="24" height="24" viewBox="0 0 24 24" fill="none" xmlns="http://www.w3.org/2000/svg">
<path d="M21.992 5.41007C21.9497 5.1767 21.7457 5 21.5 5H2.5L2.41007 5.00805C2.1767 5.05035 2 5.25434 2 5.5V17.5L2.00805 17.5899C2.05035 17.8233 2.25434 18 2.5 18H21.5L21.5899 17.992C21.8233 17.9497 22 17.7457 22 17.5V5.5L21.992 5.41007ZM6.44946 6H17.5505L17.5808 6.19862C17.8844 7.90566 19.2643 9.22965 21 9.44946V13.5505L20.8013 13.5808C19.094 13.8844 17.7703 15.2646 17.5505 17H6.44946L6.41925 16.8014C6.11563 15.0943 4.73573 13.7704 3 13.5505V9.44946L3.19866 9.41924C4.90595 9.11555 6.2297 7.73544 6.44946 6ZM3 14.5505L3.1858 14.5881C4.34901 14.8617 5.24803 15.8102 5.44946 17H3V14.5505ZM18.5881 16.8142C18.8617 15.651 19.8102 14.752 21 14.5505V17H18.5505L18.5881 16.8142ZM14.25 7.5459C15.7666 7.5459 17 8.7793 17 10.2959C17 12.6584 15.4301 14.1864 14.0769 15.0646L13.7572 15.263C13.6004 15.3561 13.4487 15.44 13.3053 15.5151L13.0305 15.6536L12.7832 15.7691L12.5689 15.8622L12.3214 15.9612L12.1582 16.02C12.1064 16.0371 12.0537 16.0459 12 16.0459C11.9463 16.0459 11.8936 16.0371 11.8418 16.02L11.6069 15.9335L11.3284 15.8184L11.097 15.7142L10.8352 15.5872C10.6518 15.4949 10.4519 15.3871 10.2428 15.263L9.92309 15.0646C8.56995 14.1864 7 12.6584 7 10.2959C7 8.7793 8.2334 7.5459 9.75 7.5459C10.6787 7.5459 11.502 8.00879 12 8.71631C12.498 8.00879 13.3213 7.5459 14.25 7.5459ZM12.5 10.2959C12.5 10.5723 12.2764 10.7959 12 10.7959C11.7236 10.7959 11.5 10.5723 11.5 10.2959C11.5 9.33105 10.7148 8.5459 9.75 8.5459C8.78516 8.5459 8 9.33105 8 10.2959C8 12.5472 9.85852 13.923 11.0904 14.5875L11.3727 14.7334L11.6234 14.8524L11.8347 14.9452L11.999 15.0122L12.2637 14.9014L12.4957 14.795L12.7632 14.662L13.0587 14.5019C14.2862 13.8068 16 12.4504 16 10.2959C16 9.33105 15.2148 8.5459 14.25 8.5459C13.2852 8.5459 12.5 9.33105 12.5 10.2959ZM21 6V8.44946L20.8142 8.41192C19.651 8.13826 18.752 7.18982 18.5505 6H21ZM3 6H5.44946L5.41192 6.1858C5.13826 7.34901 4.18982 8.24803 3 8.44946V6Z" fill="#222222"/>
</svg>
