<svg width="24" height="24" viewBox="0 0 24 24" fill="none" xmlns="http://www.w3.org/2000/svg">
<path d="M18.0706 3C18.7996 3 19.3906 3.59098 19.3906 4.32L19.3912 8.5402C20.1788 7.54364 20.609 6.29804 20.5907 5.00712C20.5867 4.731 20.8074 4.50398 21.0835 4.5C21.3596 4.49612 21.5866 4.71677 21.5906 4.99288C21.6168 6.8366 20.8673 8.60195 19.5329 9.86234L19.39 9.991L19.3906 13.39C19.3906 14.3899 18.9934 15.3488 18.2864 16.0558C17.5794 16.7628 16.6205 17.16 15.6206 17.16L14.5287 17.1592C14.7031 17.8029 14.788 18.4675 14.7806 19.1288C14.7815 19.4856 14.7563 19.8418 14.7053 20.1946L15.7497 20.546C16.0115 20.6339 16.1525 20.9173 16.0646 21.1791C15.9865 21.4118 15.7539 21.5491 15.5193 21.515L15.4315 21.494L14.1591 21.0693C14.1156 21.0718 14.0711 21.0685 14.0264 21.059C13.7563 21.0015 13.584 20.7359 13.6416 20.4658C13.7351 20.0271 13.7817 19.5797 13.7806 19.1245C13.7864 18.6021 13.7267 18.0816 13.6032 17.5749L13.5214 17.2726C13.5101 17.2349 13.5036 17.1968 13.5014 17.1591L11.0899 17.1594L11.0835 17.2142L11.0709 17.269C10.896 17.8732 10.8083 18.4992 10.8106 19.1312C10.8098 19.4676 10.8358 19.8033 10.8883 20.1353L10.933 20.377C10.9529 20.4354 10.9613 20.4909 10.9607 20.5454C10.9722 20.7863 10.8082 21.0071 10.5648 21.059C10.529 21.0666 10.4933 21.0702 10.4581 21.0701L9.18972 21.494C8.92794 21.5819 8.64448 21.4409 8.55661 21.1791C8.4785 20.9464 8.58122 20.6966 8.78887 20.5822L8.87151 20.546L9.88724 20.2036C9.8354 19.8482 9.80976 19.4896 9.81062 19.1318C9.80844 18.5283 9.87817 17.927 10.018 17.3408L10.066 17.159L6.55062 17.16C6.20053 17.16 5.86478 17.0209 5.61724 16.7734C5.36969 16.5258 5.23062 16.1901 5.23062 15.84L5.23017 10.019C3.78851 8.75065 2.97331 6.91433 3.00067 4.99288C3.0046 4.71677 3.23162 4.49612 3.50773 4.5C3.78385 4.50398 4.0045 4.731 4.00057 5.00712C3.98196 6.31418 4.42323 7.57479 5.22975 8.57747L5.23062 4.32C5.23062 3.59098 5.8216 3 6.55062 3H18.0706ZM18.0706 4H6.55062C6.37389 4 6.23062 4.14327 6.23062 4.32V15.84C6.23062 15.9249 6.26433 16.0063 6.32434 16.0663C6.38435 16.1263 6.46575 16.16 6.55062 16.16L14.7308 16.1594C14.8884 15.5729 14.8839 14.694 14.6017 13.4649C14.5434 13.1928 14.6269 12.9098 14.8237 12.7131C15.0204 12.5163 15.3035 12.4328 15.5795 12.492C16.7667 12.7569 17.6558 12.7619 18.2824 12.611L18.39 12.582L18.3906 4.32C18.3906 4.14327 18.2473 4 18.0706 4ZM15.697 13.8314C15.8646 14.777 15.8708 15.5465 15.756 16.1556L15.6206 16.16C16.3553 16.16 17.0598 15.8682 17.5793 15.3487C18.046 14.8819 18.329 14.2658 18.3817 13.6127C17.7433 13.7432 16.9423 13.75 15.9693 13.5871L15.6386 13.5265L15.697 13.8314ZM14.8896 8.31C15.1351 8.3095 15.3396 8.48596 15.3824 8.71912L15.3906 8.80898C15.4174 10.4661 14.1083 11.8341 12.4307 11.8799C11.6355 11.8642 10.8794 11.5323 10.3296 10.9576C9.82552 10.4309 9.5329 9.73993 9.50251 9.01601L9.50112 8.80754C9.50705 8.56723 9.68188 8.36936 9.91125 8.32797L9.99959 8.32L14.8896 8.31ZM10.5467 9.31982C10.6247 9.67269 10.7981 10.0008 11.0521 10.2663C11.418 10.6487 11.9213 10.8696 12.4268 10.8802C13.3671 10.8542 14.1408 10.1892 14.3407 9.31078L10.5467 9.31982ZM9.73062 5.14C10.4928 5.14 11.1106 5.75785 11.1106 6.52C11.1106 6.79614 10.8868 7.02 10.6106 7.02C10.3652 7.02 10.161 6.84312 10.1187 6.60988L10.1029 6.44342C10.0675 6.27026 9.91425 6.14 9.73062 6.14C9.54698 6.14 9.39377 6.27026 9.35834 6.44342L9.34256 6.60988C9.30022 6.84312 9.09608 7.02 8.85062 7.02C8.57447 7.02 8.35062 6.79614 8.35062 6.52C8.35062 5.75785 8.96846 5.14 9.73062 5.14ZM16.2681 6.46007C16.1972 5.75377 15.609 5.2123 14.8992 5.20007C14.179 5.21701 13.5959 5.74107 13.5049 6.43493C13.4689 6.70872 13.6618 6.95981 13.9355 6.99575C14.1789 7.02769 14.4043 6.87889 14.4767 6.65313L14.5131 6.49066C14.567 6.32344 14.7216 6.20422 14.9027 6.19985C15.062 6.20297 15.2106 6.32181 15.2589 6.48666L15.2901 6.64855C15.3555 6.8764 15.5763 7.03201 15.8205 7.0075C16.0953 6.97993 16.2957 6.73484 16.2681 6.46007Z" fill="#257FA4"/>
</svg>
