<svg width="24" height="24" viewBox="0 0 24 24" fill="none" xmlns="http://www.w3.org/2000/svg">
<path d="M16.7627 4.94285C17.5112 5.60265 17.9668 6.53291 18.03 7.55996L18.0292 8.01145L18.0917 9.09529C18.1169 9.14832 18.1332 9.20672 18.1383 9.26871C18.2753 10.9234 19.1433 12.4307 20.5058 13.3797C20.7324 13.5375 20.7881 13.8491 20.6303 14.0757C20.5079 14.2514 20.2932 14.3244 20.0972 14.2748C20.3153 14.8557 20.2593 15.7434 20.0366 16.9127C19.9602 17.3139 19.8638 17.7362 19.752 18.1707C19.684 18.4353 19.6128 18.6947 19.5404 18.9448L19.4314 19.3123L19.346 19.5824L20.3001 19.9063C20.5326 19.9849 20.6694 20.2178 20.6348 20.4524L20.6137 20.5401C20.5351 20.7726 20.3021 20.9094 20.0676 20.8748L19.9799 20.8536L18.5599 20.3736C18.2983 20.2852 18.1579 20.0014 18.2463 19.7398C18.262 19.6934 18.2839 19.6508 18.3106 19.6126L18.3169 19.5374L18.3359 19.4613L18.5798 18.6671C18.6494 18.4262 18.7181 18.1761 18.7836 17.9216C18.8903 17.5064 18.9821 17.1044 19.0542 16.7256C19.0822 16.5787 19.1065 16.4371 19.1273 16.3015L19.1793 15.913C19.2702 15.1127 19.2222 14.59 19.0925 14.5199C18.9504 14.4433 18.7685 14.4188 18.5466 14.4485L18.3989 14.4751L18.519 16.5885C18.5411 16.9388 18.4217 17.2832 18.1876 17.5447C17.9535 17.8062 17.6243 17.9628 17.2786 17.9791L11.7815 18.2935C11.7383 18.4808 11.6917 18.6712 11.642 18.8641C11.5739 19.1281 11.5027 19.3871 11.4304 19.6367L11.32 20.0074L12.2431 20.3273C12.4751 20.4074 12.6104 20.6412 12.5744 20.8755L12.5527 20.9631C12.4726 21.1951 12.2388 21.3304 12.0045 21.2943L11.9169 21.2726L10.4969 20.7826C10.2359 20.6925 10.0973 20.4079 10.1874 20.1469C10.2075 20.0884 10.2375 20.036 10.2747 19.991L10.4698 19.3585L10.5733 18.9916L10.6736 18.6145C10.6963 18.5265 10.7183 18.4392 10.7395 18.3525L5.78143 18.639C5.43117 18.661 5.08672 18.5416 4.82526 18.3075C4.5638 18.0734 4.4072 17.7442 4.39082 17.3986L4.2766 15.4125C3.91843 16.1589 3.44355 16.8522 2.86263 17.4642C2.67251 17.6645 2.35603 17.6727 2.15576 17.4826C1.95549 17.2925 1.94726 16.976 2.13737 16.7757C3.37436 15.4727 4.06201 13.748 4.06608 11.9588L4.06017 11.6529L3.73064 5.89532C3.69393 5.17225 4.24232 4.55263 4.9645 4.50122L14.0384 4.01096C15.0341 3.94781 16.0142 4.28304 16.7627 4.94285ZM13.177 5.05842L5.03219 5.49895L4.95904 5.51326C4.81918 5.5575 4.72157 5.69128 4.72918 5.84131L5.38944 17.3463C5.39338 17.4292 5.43043 17.5071 5.49231 17.5625C5.55418 17.6179 5.63569 17.6462 5.72135 17.6408L10.9594 17.3401L11.0272 16.9319L11.075 16.5583L11.1042 16.2229C11.1413 15.6452 11.0899 15.2779 10.9825 15.2199C10.8115 15.1276 10.5831 15.1103 10.2973 15.1714C9.99244 15.2365 9.64923 15.3855 9.29543 15.5937L9.14634 15.6843L9.0088 15.7731L8.77387 15.9377L8.60155 16.0729C8.39008 16.2504 8.07469 16.223 7.89711 16.0115C7.71952 15.8 7.74699 15.4847 7.95845 15.3071L8.11976 15.1798L8.38357 14.9896C8.51179 14.9016 8.64717 14.8149 8.78827 14.7318C9.2269 14.4737 9.66341 14.2843 10.0883 14.1935C10.5886 14.0866 11.0535 14.1219 11.4575 14.34C12.1711 14.7252 12.2507 15.7274 11.9859 17.2805L17.2263 16.9805C17.3093 16.9766 17.3872 16.9395 17.4426 16.8777C17.498 16.8158 17.5262 16.7343 17.5208 16.6485L17.42 14.8904L17.4082 14.8983C17.2535 14.99 17.1141 15.0817 16.9961 15.1651L16.8855 15.2455L16.7128 15.3818C16.5019 15.5601 16.1864 15.5336 16.0081 15.3227C15.8497 15.1353 15.853 14.8652 16.0038 14.6823L16.0672 14.6181L16.1089 14.5837L16.3059 14.4319C16.4873 14.2976 16.6864 14.1636 16.8984 14.038C17.0522 13.9469 17.2057 13.8642 17.3585 13.7914L17.053 8.42028C16.4247 8.27201 15.4983 8.3097 14.2094 8.67785C13.947 8.73667 13.6724 8.66476 13.4726 8.48489C13.2727 8.30502 13.1724 8.03948 13.207 7.74653C13.406 6.57087 13.3732 5.71509 13.2011 5.13107L13.177 5.05842ZM18.3422 13.468C18.5906 13.4276 18.8294 13.4244 19.0555 13.4637C18.8417 13.2532 18.644 13.0279 18.463 12.7904L18.2876 12.549L18.3422 13.468ZM12.7947 11.6326C12.9203 11.3866 13.2214 11.2891 13.4674 11.4147C13.7133 11.5402 13.8109 11.8414 13.6853 12.0873C13.3643 12.716 12.7553 13.147 12.0557 13.2406C11.3561 13.3342 10.6551 13.0785 10.1802 12.5564C9.99433 12.3522 10.0093 12.0359 10.2135 11.8501C10.3951 11.6849 10.6651 11.6784 10.8534 11.8224L11.0205 11.9814C11.2676 12.194 11.5956 12.2933 11.923 12.2494C12.2972 12.1994 12.623 11.9688 12.7947 11.6326ZM10.09 10.36C10.09 9.9347 9.74526 9.58996 9.32 9.58996C8.89474 9.58996 8.55 9.9347 8.55 10.36C8.55 10.7852 8.89474 11.13 9.32 11.13C9.74526 11.13 10.09 10.7852 10.09 10.36ZM9.32 10.13C9.44703 10.13 9.55 10.2329 9.55 10.36C9.55 10.487 9.44703 10.59 9.32 10.59C9.19298 10.59 9.09 10.487 9.09 10.36C9.09 10.2329 9.19298 10.13 9.32 10.13ZM14.56 9.81996C14.56 9.3947 14.2153 9.04996 13.79 9.04996C13.3647 9.04996 13.02 9.3947 13.02 9.81996C13.02 10.2452 13.3647 10.59 13.79 10.59C14.2153 10.59 14.56 10.2452 14.56 9.81996ZM13.79 9.58996C13.917 9.58996 14.02 9.69294 14.02 9.81996C14.02 9.94699 13.917 10.05 13.79 10.05C13.663 10.05 13.56 9.94699 13.56 9.81996C13.56 9.69294 13.663 9.58996 13.79 9.58996ZM14.2028 5.00615C14.3525 5.61122 14.3901 6.37823 14.2794 7.3154L14.2369 7.6341L14.5238 7.56322C15.5304 7.3288 16.3564 7.29072 17.012 7.3942L16.9779 7.19812C16.8566 6.61843 16.551 6.08926 16.1014 5.693C15.6575 5.30163 15.1025 5.06583 14.5176 5.01434L14.2971 5.00373L14.2028 5.00615Z" fill="#222222"/>
</svg>
