<svg width="24" height="24" viewBox="0 0 24 24" fill="none" xmlns="http://www.w3.org/2000/svg">
<path d="M16.2727 3.41268C16.2058 3.01638 15.6946 2.84864 15.4084 3.16643L13.7223 5.039L12.2403 3.18845L12.1753 3.12107C11.9664 2.94134 11.641 2.96334 11.4606 3.18743L9.96874 5.04017L8.28157 3.16643L8.21641 3.10579C8.10099 3.01609 7.95411 2.98344 7.81562 3.00992L7.72769 3.03528L7.65153 3.07291C7.50676 3.1605 7.41 3.31945 7.41 3.50101V9.06101L7.41806 9.15088C7.46039 9.38413 7.66454 9.56101 7.91 9.56101L8.10239 9.56112C8.09887 9.59651 8.09911 9.63282 8.10345 9.6696L8.50344 13.0596L8.53221 13.2452C8.81385 14.7757 10.1331 15.8988 11.6861 15.9318L12.0433 15.9312C13.6259 15.8914 14.9817 14.6799 15.186 13.0637L15.5964 9.68122L15.6 9.62027L15.5965 9.56064L15.78 9.56101L15.8699 9.55295C16.1031 9.51061 16.28 9.30647 16.28 9.06101V3.50101L16.2727 3.41268ZM15.4508 17.0414L15.7071 17.0448C17.9798 17.1169 19.67 18.2255 19.67 19.791V20.391C19.67 21.2194 18.9984 21.891 18.17 21.891H5.51C4.68157 21.891 4.01 21.2194 4.01007 20.3993L4 19.791C4 18.2155 5.95865 17.041 8.21727 17.0417C8.64645 17.0652 9.07391 17.1123 9.49107 17.1816L10.2734 17.326C10.5148 17.3737 10.7486 17.4268 10.9833 17.4884C11.2634 17.5852 11.5553 17.6436 11.7653 17.664C12.2087 17.6152 12.6465 17.5245 13.0949 17.3869C13.8656 17.1878 14.6554 17.072 15.4508 17.0414ZM15.4796 18.041L15.0481 18.0672C14.4743 18.1143 13.9082 18.2095 13.3672 18.3488C12.8806 18.4988 12.3809 18.6023 11.789 18.66C11.4031 18.6361 11.0222 18.5599 10.6951 18.4451C10.4813 18.39 10.2459 18.3382 9.98684 18.2891L9.33395 18.1693C8.94773 18.1048 8.56199 18.0619 8.19 18.041C6.43905 18.041 4.99993 18.9039 4.99993 19.7827L5.01 20.391C5.01 20.6671 5.23386 20.891 5.51 20.891H18.17C18.4461 20.891 18.67 20.6671 18.67 20.391V19.791C18.67 18.8858 17.4802 18.1059 15.6964 18.0448L15.4796 18.041ZM14.603 9.561L14.1936 12.9408L14.1668 13.1051C13.9604 14.1321 13.0732 14.889 12.0237 14.9304L11.7013 14.931C10.5663 14.8911 9.63695 14.0535 9.49606 12.9383L9.097 9.561H14.603ZM10.3794 6.12459L11.8489 4.29956L13.3097 6.12356L13.3798 6.19526C13.5812 6.36367 13.8881 6.34931 14.0716 6.14558L15.28 4.80352V8.56101H8.41V4.80352L9.61843 6.14558L9.69244 6.21301C9.90279 6.36933 10.2078 6.33776 10.3794 6.12459Z" fill="#222222"/>
</svg>
