<svg width="24" height="24" viewBox="0 0 24 24" fill="none" xmlns="http://www.w3.org/2000/svg">
<path d="M17.0187 3.5004C18.7604 3.5004 20.289 4.8104 20.1347 6.40846L19.7857 9.10287C19.5696 10.4791 18.4542 11.4101 17.0187 11.4101C15.6468 11.4101 14.5693 10.5585 14.2872 9.26802L14.2538 9.08936L13.9325 6.59331C13.6483 4.90229 15.2185 3.5004 17.0187 3.5004ZM18.5681 12.4397C20.2384 12.4397 21.3043 13.2615 21.3869 14.5164L21.3921 14.6755V15.8579C21.3921 17.0565 21.0788 18.232 20.487 19.2715C20.8689 19.3485 21.246 19.4323 21.6175 19.5213C21.8859 19.5857 22.051 19.8539 21.9861 20.1204C21.9213 20.3869 21.6512 20.5508 21.3828 20.4864C18.5174 19.7995 15.2971 19.434 11.9561 19.434C8.64842 19.434 5.46005 19.7921 2.61617 20.4659C2.34757 20.5295 2.07787 20.3649 2.01377 20.0983C1.94967 19.8316 2.11545 19.5638 2.38405 19.5002C2.7542 19.4125 3.12988 19.33 3.51063 19.2528C2.97818 18.3131 2.67364 17.2614 2.62267 16.1823L2.61501 15.8579V14.6755C2.61501 13.3851 3.61413 12.5117 5.2334 12.4439L5.43901 12.4397L5.5734 12.4579L5.77575 12.5121L6.18077 12.6124L6.39781 12.6615L6.65493 12.7134L6.85841 12.7463C6.91588 12.7539 6.96227 12.758 6.99546 12.7584C7.048 12.7587 7.13096 12.7503 7.23709 12.7343L7.47806 12.6922L7.85546 12.6117L8.26966 12.5115L8.47573 12.4573L8.60801 12.4397C10.2704 12.4397 11.2957 13.2555 11.375 14.5157L11.38 14.6755L11.38 18.4454L11.9561 18.4412C12.1806 18.4412 12.4045 18.4428 12.6279 18.446L12.6271 14.6755C12.6271 13.3788 13.5861 12.5112 15.1956 12.4439L15.4001 12.4397L15.5325 12.4574L16.0042 12.5771L16.3901 12.6641L16.6568 12.7157C16.8175 12.7438 16.9412 12.7588 17.0103 12.7584C17.044 12.7581 17.0907 12.7539 17.1483 12.7463L17.3521 12.7134L17.6093 12.6615L17.8264 12.6124L18.3413 12.4831L18.4337 12.4579L18.5681 12.4397ZM18.634 13.433L18.2209 13.5391L17.8228 13.6315C17.4778 13.7063 17.2109 13.7493 17.0186 13.7511C16.8526 13.7523 16.6322 13.7233 16.3561 13.6702L15.9271 13.5791L15.4589 13.4652C15.4144 13.4538 15.373 13.443 15.3353 13.4329C14.2334 13.4488 13.6892 13.8726 13.6321 14.5528L13.6271 14.6755L13.628 18.4712C15.638 18.5438 17.5918 18.7467 19.4396 19.071C20.0093 18.194 20.3349 17.183 20.3852 16.1424L20.3921 15.8579V14.6755C20.3921 13.9389 19.8144 13.4504 18.634 13.433ZM8.40681 13.5012L8.08048 13.5791L7.82399 13.6355C7.46543 13.7105 7.18769 13.7525 6.98722 13.7511C6.83441 13.7497 6.63304 13.7219 6.38199 13.6725L5.95033 13.5785L5.4942 13.4652C5.4507 13.4538 5.41015 13.443 5.37313 13.433C4.25829 13.4494 3.68106 13.8861 3.62037 14.555L3.61501 14.6755V15.8579C3.61501 16.9374 3.91177 17.9953 4.47057 18.9191L4.5583 19.0561C6.41023 18.7354 8.36739 18.5363 10.3803 18.4679L10.38 14.6755C10.38 13.9239 9.83868 13.4498 8.67282 13.4329L8.40681 13.5012ZM8.66291 15.1301C8.93906 15.1301 9.16291 15.3539 9.16291 15.6301C9.16291 15.8755 8.98604 16.0797 8.75279 16.122L8.66291 16.1301H7.55091C7.27477 16.1301 7.05091 15.9062 7.05091 15.6301C7.05091 15.3846 7.22779 15.1805 7.46104 15.1381L7.55091 15.1301H8.66291ZM19.1746 15.6301C19.1746 15.3539 18.9508 15.1301 18.6746 15.1301H17.5626L17.4727 15.1381C17.2395 15.1805 17.0626 15.3846 17.0626 15.6301C17.0626 15.9062 17.2865 16.1301 17.5626 16.1301H18.6746L18.7645 16.122C18.9977 16.0797 19.1746 15.8755 19.1746 15.6301ZM10.1131 6.40843C10.2664 4.81012 8.73849 3.5004 6.99721 3.5004C5.19697 3.5004 3.62677 4.90229 3.91104 6.59331L4.23225 9.08936L4.26573 9.26802C4.54775 10.5585 5.62534 11.4101 6.99721 11.4101C8.43204 11.4101 9.54812 10.4788 9.76424 9.10287L10.1131 6.40843ZM17.0187 4.49321C15.8328 4.49321 14.8348 5.34015 14.9062 6.32009L15.2437 8.94989C15.3835 9.83965 16.074 10.4173 17.0187 10.4173C17.9095 10.4173 18.5756 9.90497 18.7658 9.1146L18.7958 8.9632L19.1235 6.42987C19.294 5.41606 18.258 4.49321 17.0187 4.49321ZM4.88472 6.32009C4.81329 5.34015 5.81132 4.49321 6.99721 4.49321C8.2362 4.49321 9.27178 5.41594 9.10198 6.4302L8.77428 8.9632L8.74427 9.11454C8.55413 9.90464 7.88742 10.4173 6.99721 10.4173C6.05248 10.4173 5.362 9.83965 5.22224 8.94989L4.88472 6.32009Z" fill="#222222"/>
</svg>
