<svg width="24" height="24" viewBox="0 0 24 24" fill="none" xmlns="http://www.w3.org/2000/svg">
<path d="M4.9292 4.93003C8.82812 1.02886 15.1719 1.02886 19.0708 4.93003C20.96 6.81956 22 9.33241 22 12.0045C22 14.6766 20.96 17.1895 19.0708 19.079C17.1216 21.0291 14.5605 22.0042 12 22.0042C9.43945 22.0042 6.87842 21.0291 4.9292 19.079C3.04004 17.1895 2 14.6766 2 12.0045C2 9.33241 3.04004 6.81956 4.9292 4.93003ZM12 3.00391C9.69531 3.00391 7.39062 3.88122 5.63623 5.63681C3.93604 7.3377 3 9.59839 3 12.0037C3 14.4089 3.93604 16.6696 5.63623 18.3705C9.14502 21.8817 14.855 21.8817 18.3638 18.3705C20.064 16.6696 21 14.4089 21 12.0037C21 9.59839 20.064 7.3377 18.3638 5.63681C16.6094 3.88122 14.3047 3.00391 12 3.00391ZM17.2998 13.5586C17.0444 13.4541 16.7524 13.582 16.6509 13.8398C15.8906 15.7598 14.0649 17 12 17C9.93457 17 8.10889 15.7598 7.34863 13.8398C7.24707 13.582 6.95605 13.4541 6.69971 13.5586C6.44287 13.6602 6.31738 13.9512 6.41895 14.207C7.33105 16.5117 9.52197 18 12 18C14.478 18 16.6685 16.5117 17.5806 14.207C17.6821 13.9512 17.5566 13.6602 17.2998 13.5586ZM9 8C9.55127 8 10 8.44824 10 9C10 9.55176 9.55127 10 9 10C8.44873 10 8 9.55176 8 9C8 8.44824 8.44873 8 9 8ZM16 9C16 8.44824 15.5513 8 15 8C14.4487 8 14 8.44824 14 9C14 9.55176 14.4487 10 15 10C15.5513 10 16 9.55176 16 9Z" fill="#222222"/>
</svg>
