<svg width="24" height="24" viewBox="0 0 24 24" fill="none" xmlns="http://www.w3.org/2000/svg">
<path d="M17.24 2.99969H6.76L6.69481 3.00396L6.63061 3.01672C6.5287 3.04403 6.43685 3.10323 6.36955 3.18737L2.40355 8.14537C2.10646 8.51728 1.97379 8.97458 2.0049 9.42188L2 9.49219C2 9.56536 2.01572 9.63486 2.0438 9.69653C2.107 9.9814 2.23857 10.2541 2.43816 10.4887L10.744 20.4195C11.0675 20.8002 11.5215 20.9937 11.9766 20.9995L12 21L12.1742 20.9908C12.5778 20.9484 12.9684 20.7579 13.256 20.4195L21.5645 10.4855C21.7637 10.2514 21.8948 9.97877 21.9574 9.69445C21.9848 9.63261 22 9.56418 22 9.49219L21.9956 9.43015C22.0279 8.98032 21.8955 8.51971 21.5967 8.14563L17.6156 3.16976L17.5711 3.12503C17.513 3.07369 17.4439 3.03669 17.3692 3.01694L17.2879 3.00199L17.24 2.99969ZM3.326 9.99169H11.5V19.7647L3.326 9.99169ZM20.674 9.99169L12.5 19.7637V9.99169H20.674ZM3.18466 8.76976L6.782 4.27069L11.03 8.99169L3.05698 8.99164C3.08734 8.91322 3.12989 8.83832 3.18466 8.76976ZM17.217 4.27169L20.8155 8.77002C20.8703 8.83853 20.9128 8.91338 20.9431 8.99173L12.969 8.99169L17.217 4.27169ZM7.882 3.99869H16.117L11.9997 8.57455L7.882 3.99869Z" fill="#222222"/>
</svg>
