<svg width="24" height="24" viewBox="0 0 24 24" fill="none" xmlns="http://www.w3.org/2000/svg">
<path d="M12 2C17.5231 2 22 6.47686 22 12C22 17.5231 17.5231 22 12 22C6.47686 22 2 17.5231 2 12C2 9.23843 3.11921 6.73843 4.92882 4.92882C6.73843 3.11921 9.23843 2 12 2ZM12 3C9.51457 3 7.26457 4.00729 5.63593 5.63593C4.00729 7.26457 3 9.51457 3 12C3 16.9709 7.02914 21 12 21C16.9709 21 21 16.9709 21 12C21 9.51457 19.9927 7.26457 18.3641 5.63593C16.7354 4.00729 14.4854 3 12 3ZM12.9919 6.91012C12.9496 6.67688 12.7455 6.5 12.5 6.5C12.2239 6.5 12 6.72386 12 7V12.001H7L6.91012 12.0091C6.67688 12.0514 6.5 12.2555 6.5 12.501C6.5 12.7771 6.72386 13.001 7 13.001H12.5L12.5899 12.9929C12.8231 12.9506 13 12.7465 13 12.501V7L12.9919 6.91012Z" fill="#257FA4"/>
</svg>
