<svg width="24" height="24" viewBox="0 0 24 24" fill="none" xmlns="http://www.w3.org/2000/svg">
<path d="M20.9979 15.5107L20.9989 15.5054L20.9996 15.5032L21 15.5L21.001 13.6016C21.001 12.7314 20.417 11.9561 19.5723 11.7129L18.989 11.5547C18.9899 11.5466 18.9921 11.5389 18.9943 11.5312C18.9971 11.5211 19 11.511 19 11.5C19 7.36426 15.6357 4 11.5 4H5.00293C3.89844 4 3 4.89844 3 6.00293V11.0921C2.41925 11.2992 2 11.849 2 12.5V17.5C2 18.8789 3.12109 20 4.5 20C5.31482 20 6.03265 19.6027 6.48932 18.9979L6.49177 18.9982L6.49459 18.9989L6.5 19H17.5L17.5054 18.9989L17.5079 18.9982L17.5107 18.9979C17.9673 19.6027 18.6852 20 19.5 20C20.8789 20 22 18.8789 22 17.5C22 16.6852 21.6027 15.9673 20.9979 15.5107ZM17.989 11.2837L11.4922 9.52246C10.6133 9.28418 10 8.48145 10 7.57129V5H11.5C15.011 5 17.8735 7.80035 17.989 11.2837ZM3 17.5C3 16.6729 3.67285 16 4.5 16C5.32715 16 6 16.6729 6 17.5C6 18.3271 5.32715 19 4.5 19C3.67285 19 3 18.3271 3 17.5ZM6.94946 18C6.98236 17.8384 7 17.6713 7 17.5C7 16.1211 5.87891 15 4.5 15C3.93494 15 3.41907 15.1954 3 15.5125V12.5C3 12.2246 3.22461 12 3.5 12C3.77637 12 4 11.7764 4 11.5V6.00293C4 5.4502 4.4502 5 5.00293 5H9V7.57129C9 8.93262 9.91699 10.1318 11.2305 10.4873L19.3027 12.6758C19.7139 12.7939 20.001 13.1748 20.001 13.6016L20.0002 15.0505C19.8386 15.0176 19.6713 15 19.5 15C18.1211 15 17 16.1211 17 17.5C17 17.6713 17.0176 17.8384 17.0505 18H6.94946ZM18 17.5C18 16.6729 18.6729 16 19.5 16C20.3271 16 21 16.6729 21 17.5C21 18.3271 20.3271 19 19.5 19C18.6729 19 18 18.3271 18 17.5Z" fill="#222222"/>
</svg>
