<svg width="24" height="24" viewBox="0 0 24 24" fill="none" xmlns="http://www.w3.org/2000/svg">
<path d="M12.9972 4.00003C14.3543 4.00003 15.4315 4.46975 15.4315 4.46975C16.3613 4.83565 17.173 5.40415 17.8203 6.11777L17.864 6.15892L17.9024 6.20529C18.7928 7.22588 19.3482 8.53244 19.4141 9.98336L19.4207 10.2754L19.4238 11.0504C20.5109 11.271 21.3444 12.1982 21.4213 13.3298L21.4271 13.501L21.4251 13.5107L21.4234 15.511C22.0282 15.9677 22.4256 16.6855 22.4256 17.5C22.4256 18.8784 21.304 20 19.9256 20C19.1111 20 18.3933 19.6026 17.9365 18.9978L17.9256 19L6.07471 19L6.06378 18.9978C5.60706 19.6026 4.88922 20 4.07471 20C2.75143 20 1.66484 18.9663 1.58004 17.6641L1.57471 17.5V10.5C1.57471 9.89904 1.93194 9.38434 2.44367 9.14583L2.57471 9.09207V6.10397C2.57471 4.99426 3.43827 4.08245 4.52867 4.00526L4.67871 3.99997L12.9972 4.00003ZM4.07471 16C3.24756 16 2.57471 16.6728 2.57471 17.5C2.57471 18.3271 3.24756 19 4.07471 19C4.90185 19 5.57471 18.3271 5.57471 17.5C5.57471 16.6728 4.90185 16 4.07471 16ZM18.4256 17.5C18.4256 18.3272 19.0985 19 19.9256 19C20.7528 19 21.4256 18.3272 21.4256 17.5C21.4256 16.6729 20.7528 16 19.9256 16C19.0985 16 18.4256 16.6729 18.4256 17.5ZM12.9256 5.00003L4.67871 4.99997C4.11042 4.99997 3.64123 5.43127 3.5812 5.98382L3.57471 6.10397V9.49996C3.57471 9.74562 3.39801 9.94962 3.16464 9.99192L3.07471 9.99996C2.82948 9.99996 2.62515 10.177 2.58277 10.4102L2.57471 10.5V15.5127C2.99384 15.1955 3.50977 15 4.07471 15C5.45312 15 6.57471 16.1215 6.57471 17.5C6.57471 17.6141 6.56687 17.7264 6.55187 17.8365L6.52411 18L17.4762 18C17.4433 17.8384 17.4256 17.6712 17.4256 17.5C17.4256 16.1216 18.5472 15 19.9256 15C20.0393 15 20.1513 15.0079 20.2609 15.0228L20.4238 15.0504L20.4264 13.4942C20.4228 12.7183 19.8281 12.0794 19.0696 12.0069L18.9256 12H16.4549C15.3866 12 14.5088 11.1707 14.4312 10.1224L14.4256 9.97122V8.05521C14.4256 7.01968 15.198 6.16947 16.1953 6.0289C15.3555 5.43722 14.3363 5.0612 13.2095 5.00686L12.9256 5.00003ZM17.2321 7.00003H16.4808C15.9376 7.00003 15.4892 7.41219 15.4318 7.94036L15.4256 8.05521V9.97122C15.4256 10.5008 15.828 10.938 16.3429 10.994L16.4549 11H18.4236L18.4207 10.2774C18.4207 9.11122 18.0301 8.058 17.3853 7.19562L17.2321 7.00003Z" fill="#222222"/>
</svg>
