<svg width="24" height="24" viewBox="0 0 24 24" fill="none" xmlns="http://www.w3.org/2000/svg">
<path d="M18.079 5.00008C19.1128 5.00008 20.0533 5.40039 20.7539 6.05443C20.7898 6.07593 20.823 6.10358 20.8529 6.13609C20.8731 6.15803 20.891 6.18129 20.9065 6.20556C21.5316 6.85552 21.9344 7.7211 21.9927 8.67959L22 8.92108V15.1091C22 17.1911 20.3653 18.8908 18.3092 18.995L18.109 19.0001H5.891C3.80902 19.0001 2.10926 17.3654 2.00506 15.3093L2 15.1091V8.92108C2 6.82359 3.64783 5.11022 5.71926 5.00518L5.921 5.00008H18.079ZM14.52 12.6421L13.3275 13.7411C12.6155 14.3752 11.5629 14.4126 10.8056 13.8483L10.6673 13.7355L9.48 12.6421L3.99619 17.2928C4.46366 17.6987 5.06281 17.957 5.72111 17.9952L5.891 18.0001H18.109C18.8344 18.0001 19.4973 17.733 20.0048 17.2919L14.52 12.6421ZM3.00769 8.70757L3 8.92108V15.1091C3 15.6195 3.13225 16.0991 3.36435 16.5153L8.739 11.9591L3.56547 7.1937C3.2495 7.62379 3.04846 8.14352 3.00769 8.70757ZM20.4375 7.19775L15.262 11.9601L20.6362 16.5143C20.842 16.1448 20.9692 15.7255 20.9951 15.279L21 15.1091V8.92108C21 8.34826 20.835 7.81387 20.5499 7.36288L20.4375 7.19775ZM5.921 6.00008C5.31553 6.00008 4.753 6.18443 4.2865 6.50005L11.3385 12.9943C11.6845 13.3025 12.1915 13.3281 12.5597 13.0755L12.6564 12.9998L19.7165 6.50208C19.3078 6.22483 18.8252 6.04842 18.3044 6.00865L18.079 6.00008H5.921Z" fill="#257FA4"/>
</svg>
