<svg width="24" height="24" viewBox="0 0 24 24" fill="none" xmlns="http://www.w3.org/2000/svg">
<path d="M22.0006 12.0001C22.0006 6.48193 17.5187 2.00008 12.0006 2.00008C6.48245 2.00008 2.0006 6.48193 2.0006 12.0001C2.0006 13.7415 2.44795 15.4187 3.28564 16.8941L2.01953 21.3638C1.91306 21.7396 2.25939 22.0869 2.63553 21.9815L7.1184 20.7252C8.6006 21.5566 10.2666 22.0001 12.0006 22.0001C17.5187 22.0001 22.0006 17.5182 22.0006 12.0001ZM3.0006 12.0001C3.0006 7.03422 7.03474 3.00008 12.0006 3.00008C16.9665 3.00008 21.0006 7.03422 21.0006 12.0001C21.0006 16.9659 16.9665 21.0001 12.0006 21.0001C10.3737 21.0001 8.81536 20.567 7.43943 19.7563C7.32214 19.6872 7.18175 19.6689 7.05067 19.7056L3.22486 20.7778L4.30567 16.9623C4.34319 16.8299 4.32444 16.6878 4.25383 16.5696C3.43773 15.2037 3.0006 13.6346 3.0006 12.0001ZM9.6771 6.18968C10.2948 6.18968 10.848 6.57446 11.0607 7.15227L11.4915 8.30974C11.7683 9.05083 11.4094 9.87836 10.68 10.1856L9.68819 10.6028C10.5044 11.9724 12.0337 13.503 13.3976 14.3136L13.8153 13.3206C14.1224 12.5914 14.9499 12.2325 15.6905 12.5091L16.8468 12.9395C17.4266 13.1529 17.8111 13.7053 17.8111 14.3237V16.1287C17.8111 17.0578 17.0582 17.8107 16.1291 17.8107C10.6398 17.8107 6.1901 13.3607 6.1901 7.87068C6.1901 6.94231 6.94317 6.18968 7.8721 6.18968H9.6771ZM7.8721 7.18968C7.49533 7.18968 7.1901 7.49473 7.1901 7.87068C7.1901 12.8084 11.1921 16.8107 16.1291 16.8107C16.506 16.8107 16.8111 16.5055 16.8111 16.1287V14.3237C16.8111 14.124 16.6875 13.9464 16.4997 13.8773L15.3412 13.4461C15.1032 13.3572 14.8362 13.473 14.737 13.7086L14.106 15.2086C13.9949 15.4726 13.6852 15.5895 13.4273 15.4648L13.3943 15.4488C11.5798 14.5606 9.41688 12.3902 8.53619 10.5738C8.41115 10.3159 8.52804 10.0059 8.79222 9.89479L10.292 9.26388C10.5278 9.1646 10.6436 8.89756 10.5545 8.65908L10.1229 7.49942C10.0545 7.31367 9.87624 7.18968 9.6771 7.18968H7.8721Z" fill="#257FA4"/>
</svg>
