<svg width="24" height="24" viewBox="0 0 24 24" fill="none" xmlns="http://www.w3.org/2000/svg">
<path d="M18.3886 8.11158C18.2683 4.71574 15.4632 1.99983 12.0201 1.99983C8.50139 1.99983 5.64866 4.83796 5.64866 8.33896L5.64846 9.568C3.87263 9.79273 2.5 11.3008 2.5 13.1278C2.5 15.11 4.11546 16.7166 6.10864 16.7166C6.26984 16.7166 6.41326 16.6409 6.50503 16.5238C6.59511 16.4337 6.65078 16.3095 6.65078 16.1724V8.33896L6.65526 8.11875C6.77134 5.2704 9.129 2.99671 12.0201 2.99671C14.9863 2.99671 17.3905 5.38835 17.3905 8.33896L17.3903 15.7869L17.3845 16.011C17.3034 17.5712 16.38 18.9483 15.0179 19.6369L15.0171 19.0092C15.0171 18.7339 14.7928 18.5108 14.516 18.5108H11.7702C10.8013 18.5108 10.0165 19.2919 10.0165 20.2553C10.0165 21.2187 10.8013 21.9998 11.7702 21.9998H14.516C14.7928 21.9998 15.0171 21.7767 15.0171 21.5014L15.0181 20.729C16.7467 20.05 17.9993 18.5111 18.315 16.6919C20.108 16.4833 21.5 14.9669 21.5 13.1276C21.5 11.3151 20.1481 9.81606 18.3928 9.57328L18.3926 8.33896L18.3886 8.11158ZM11.7702 19.5076H14.015V21.003H11.7702C11.3549 21.003 11.0186 20.6683 11.0186 20.2553C11.0186 19.8423 11.3549 19.5076 11.7702 19.5076ZM5.64833 10.5762V15.6794C4.42818 15.4633 3.50212 14.4032 3.50212 13.1278C3.50212 11.8525 4.42818 10.7924 5.64833 10.5762ZM20.4979 13.1276C20.4979 14.3884 19.592 15.4392 18.3924 15.6716V10.5836C19.592 10.8161 20.4979 11.8669 20.4979 13.1276Z" fill="#257FA4"/>
</svg>
