<svg width="48" height="49" viewBox="0 0 48 49" fill="none" xmlns="http://www.w3.org/2000/svg">
<path d="M26.2394 4.7647C27.1136 4.25975 28.2125 4.50035 28.8045 5.29252L28.9318 5.48503L30.2223 7.72264H32.8075C33.8177 7.72264 34.6505 8.4843 34.7643 9.46314L34.7775 9.69264V12.2787L37.0193 13.5716C37.8927 14.0783 38.2326 15.1551 37.8394 16.0577L37.7356 16.2626L36.4442 18.4996L37.7339 20.7357C38.2429 21.6105 38.0011 22.7151 37.21 23.3025L37.0177 23.4286L34.7775 24.7226V27.3066C34.7775 28.3172 34.0173 29.1496 33.0373 29.2634L32.8075 29.2766L31.976 29.2761L31.9765 43.5004C31.9765 44.2554 31.1843 44.7174 30.5412 44.4015L30.3958 44.3145L24.0006 39.7528L17.6074 44.3145C16.9927 44.753 16.1565 44.3764 16.0402 43.6693L16.0265 43.5004L16.026 29.2761L15.1935 29.2766C14.1845 29.2766 13.3508 28.5161 13.2368 27.5364L13.2235 27.3066V24.7214L10.9866 23.4293C10.1113 22.9253 9.76842 21.8474 10.1617 20.9436L10.2656 20.7384L11.5589 18.4997L10.2672 16.2656C9.75836 15.3911 10.0016 14.2881 10.7935 13.6973L10.9859 13.5704L13.2235 12.2798V9.69264C13.2235 8.68394 13.9855 7.84992 14.9641 7.73592L15.1935 7.72264H17.7788L19.0716 5.48448C19.577 4.60954 20.6501 4.2702 21.5571 4.66112L21.7632 4.76439L24.0015 6.05539L26.2394 4.7647ZM29.976 29.7021L28.9299 31.5176C28.4215 32.3912 27.3471 32.7318 26.4448 32.3387L26.2399 32.2349L24.0015 30.9439L21.7649 32.2339C20.8884 32.7417 19.7871 32.4996 19.1983 31.7076L19.0718 31.5152L18.026 29.7081L18.0265 41.5585L23.4197 37.7104C23.7176 37.4979 24.1029 37.4675 24.4257 37.6193L24.5813 37.7103L29.9765 41.5588L29.976 29.7021ZM24.9898 7.79421C24.4564 8.10563 23.8099 8.14455 23.2513 7.91279L23.0179 7.79689L20.7884 6.51097L19.5031 8.73602C19.1914 9.27961 18.6422 9.63637 18.0284 9.70894L17.7955 9.72264H15.2235V12.2966C15.2235 12.9199 14.9277 13.5038 14.4336 13.8743L14.2392 14.0029L12.0119 15.2875L13.3011 17.5173C13.6061 18.0493 13.6443 18.689 13.4144 19.2498L13.2995 19.4848L12.0128 21.7123L14.2413 22.9996C14.7735 23.3083 15.1264 23.8442 15.2063 24.4441L15.2235 24.7046V27.2766H17.7955C18.424 27.2766 19.0089 27.5741 19.3747 28.0679L19.5013 28.2621L20.7883 30.4883L23.0177 29.2025C23.5491 28.8958 24.1921 28.8575 24.7512 29.0874L24.9852 29.2024L27.2147 30.4883L28.4966 28.2677C28.8075 27.7218 29.3586 27.3633 29.9726 27.2904L30.2055 27.2766H32.7775V24.7046C32.7775 24.0787 33.0742 23.4955 33.5688 23.1267L33.7634 22.9987L35.9888 21.7132L34.702 19.482C34.397 18.95 34.3588 18.3103 34.5886 17.7496L34.7035 17.5147L35.9897 15.2866L33.7643 14.0031C33.2213 13.6902 32.864 13.1404 32.7913 12.5286L32.7775 12.2966V9.72264H30.2055C29.5797 9.72264 28.9942 9.42599 28.6266 8.93239L28.4993 8.73825L27.2147 6.51097L24.9898 7.79421ZM24.0011 11.5C27.8674 11.5 31.0011 14.6338 31.0011 18.5C31.0011 22.3663 27.8674 25.5 24.0011 25.5C20.1349 25.5 17.0011 22.3663 17.0011 18.5C17.0011 14.6338 20.1349 11.5 24.0011 11.5ZM19.0011 18.5C19.0011 21.2618 21.2394 23.5 24.0011 23.5C26.7629 23.5 29.0011 21.2618 29.0011 18.5C29.0011 15.7383 26.7629 13.5 24.0011 13.5C21.2394 13.5 19.0011 15.7383 19.0011 18.5Z" fill="#9E3667"/>
</svg>
