<svg width="112" height="34" viewBox="0 0 112 34" fill="none" xmlns="http://www.w3.org/2000/svg">
<path d="M14.7269 9.12848C14.6959 8.41054 14.4992 7.69804 14.1348 7.05417L10.918 1.37379C10.6722 0.940193 10.5033 0.476089 10.4093 0L10.2746 0.2375C9.47842 1.64289 9.47842 3.3762 10.2746 4.78159L12.8481 9.32567C13.6443 10.7311 13.6443 12.4644 12.8481 13.8698L12.7134 14.1073C12.6194 13.6312 12.4494 13.1671 12.2047 12.7335L9.8482 8.57395L8.34345 5.91788C8.09871 5.48428 7.92879 5.02018 7.83474 4.54409L7.70008 4.78159C6.9071 6.18371 6.90389 7.90721 7.6926 9.31151L10.2746 13.8708C11.0708 15.2762 11.0708 17.0095 10.2746 18.4149L10.14 18.6524C10.0459 18.1763 9.87598 17.7122 9.63125 17.2786L6.41442 11.5983C5.98266 10.8367 5.78602 9.97934 5.82235 9.12957C2.37682 10.0469 0 11.9937 0 14.2489C0 17.3865 4.59974 19.9293 10.2746 19.9293C15.9495 19.9293 20.5492 17.3865 20.5492 14.2489C20.5492 11.9937 18.1724 10.0458 14.7279 9.12848M24.4287 18.8278C24.4671 18.0216 24.5826 17.4704 24.7952 16.8407C25.8757 17.3516 27.2661 17.6077 28.3273 17.6077C30.1228 17.6077 31.1252 17.0183 31.1252 15.8569C31.1252 14.6956 30.3921 14.1846 28.5774 13.3784L27.5931 12.9459C25.7784 12.1386 24.5441 11.096 24.5441 9.01082C24.5441 6.76874 26.0691 5.33176 29.1951 5.33176C30.4498 5.33176 31.6264 5.50934 32.7272 5.90263C32.6695 6.68921 32.5338 7.2993 32.3414 7.86908C31.2994 7.47579 30.0651 7.2993 29.1759 7.2993C27.4969 7.2993 26.7253 7.96822 26.7253 9.01082C26.7253 10.0534 27.4777 10.6243 28.8296 11.2148L29.8716 11.6669C32.3222 12.7291 33.3449 13.8512 33.3449 15.7589C33.3449 18.0216 31.666 19.5752 28.385 19.5752C26.8023 19.5752 25.5091 19.3388 24.4287 18.8278ZM43.7083 9.42372V19.2614H41.7589L41.6435 18.0805C41.1027 18.9466 40.2723 19.4968 38.9215 19.4968C36.3747 19.4968 34.6766 17.6087 34.6766 14.3034C34.6766 10.998 36.4912 8.87355 40.0607 8.87355C41.4501 8.87355 42.5882 9.03043 43.7083 9.42372ZM41.5858 17.0183V10.8411C41.1423 10.7627 40.6592 10.7234 40.0618 10.7234C37.8613 10.7234 36.8396 12.1016 36.8396 14.3045C36.8396 16.3112 37.6305 17.7275 39.5221 17.7275C40.3525 17.7275 41.0279 17.4519 41.5869 17.0194M54.5749 12.6518V19.2625H52.4525V13.0265C52.4525 11.4719 51.9502 10.7245 49.8277 10.7245C49.3265 10.7245 48.728 10.7834 48.1488 10.8814V19.2625H46.0263V9.42263C47.3772 9.08817 48.8627 8.87246 49.8854 8.87246C53.4368 8.87246 54.5749 10.268 54.5749 12.6485M60.4614 17.6458C61.0791 17.6458 61.6584 17.5281 62.1211 17.3505C62.0634 17.941 61.9865 18.6099 61.87 19.1808C61.2918 19.4172 60.6741 19.4957 60.0756 19.4957C58.0109 19.4957 56.6985 18.5326 56.6985 16.1315V5.80349C57.3547 5.58778 58.1648 5.48864 58.822 5.48864V9.20692H62.1799C62.1414 9.87584 62.0837 10.4859 61.9875 11.0568H58.822V15.8765C58.822 17.1555 59.4387 17.6469 60.4625 17.6469M71.8496 9.42372V19.2614H69.9003L69.7849 18.0805C69.2441 18.9466 68.4148 19.4968 67.0639 19.4968C64.5161 19.4968 62.8179 17.6087 62.8179 14.3034C62.8179 10.998 64.6326 8.87355 68.2021 8.87355C69.5914 8.87355 70.7296 9.03043 71.8496 9.42372ZM69.7261 17.0183V10.8411C69.2826 10.7627 68.8006 10.7234 68.2021 10.7234C66.0016 10.7234 64.9789 12.1016 64.9789 14.3045C64.9789 16.3112 65.7708 17.7275 67.6624 17.7275C68.4917 17.7275 69.1672 17.4519 69.7272 17.0194M82.7152 12.6518V19.2625H80.5928V13.0265C80.5928 11.4719 80.0916 10.7245 77.968 10.7245C77.4668 10.7245 76.8683 10.7834 76.2891 10.8814V19.2625H74.1666V9.42263C75.5175 9.08817 77.003 8.87246 78.0257 8.87246C81.5771 8.87246 82.7152 10.268 82.7152 12.6485M93.4847 5.48755V19.2593H91.5353L91.4199 17.9999C90.8802 18.9248 90.0498 19.4946 88.6594 19.4946C86.1127 19.4946 84.4145 17.6066 84.4145 14.3012C84.4145 10.9958 86.2292 8.87137 89.7987 8.87137C90.3576 8.87137 90.8792 8.9302 91.3814 9.02825V5.78279C92.0376 5.54638 92.79 5.48755 93.4847 5.48755ZM91.3814 16.9769V10.9174C90.8214 10.7997 90.2433 10.7202 89.6833 10.7202C87.58 10.7202 86.5765 12.058 86.5765 14.3012C86.5765 16.3079 87.3674 17.7242 89.259 17.7242C90.1086 17.7242 90.8033 17.429 91.3825 16.9769M104.159 15.0496H97.3855C97.6559 16.8004 98.6594 17.6458 100.55 17.6458C101.708 17.6458 102.886 17.3898 103.946 16.8984C103.869 17.4682 103.753 18.2167 103.618 18.8649C102.653 19.3181 101.63 19.4946 100.492 19.4946C96.9409 19.4946 95.2235 17.4878 95.2235 14.1247C95.2235 11.193 96.5551 8.87246 99.9322 8.87246C102.962 8.87246 104.274 10.8988 104.274 13.3773C104.274 13.9874 104.236 14.4788 104.159 15.0496ZM97.3459 13.239H102.132C102.132 11.6255 101.283 10.682 99.8157 10.682C98.3484 10.682 97.5201 11.5678 97.3459 13.239ZM111.589 8.9509C111.589 9.60021 111.512 10.3879 111.396 10.8008C110.895 10.742 110.393 10.7223 109.794 10.7223C109.274 10.7223 108.752 10.7616 108.232 10.84V19.2603H106.108V9.42263C107.016 9.10778 108.54 8.87246 109.737 8.87246C110.393 8.87246 111.127 8.89098 111.59 8.9509" fill="white"/>
<path d="M28.8601 33.9992C27.526 33.9992 26.4955 33.5708 25.7673 32.7147C25.0398 31.8579 24.6757 30.6967 24.6757 29.231C24.6757 27.7654 25.0499 26.5491 25.7997 25.7143C26.5488 24.8796 27.6037 24.4629 28.9638 24.4629C29.7431 24.4629 30.3886 24.5685 30.8995 24.7805C30.8908 25.0541 30.839 25.3322 30.7433 25.6153C30.1885 25.4033 29.5956 25.2977 28.963 25.2977C27.9319 25.2977 27.1158 25.6337 26.5135 26.3041C25.9112 26.9753 25.6104 27.9378 25.6104 29.1914C25.6104 30.4451 25.9112 31.4097 26.5135 32.1125C27.1158 32.8145 27.9362 33.1659 28.976 33.1659C29.669 33.1659 30.2835 33.0419 30.821 32.7947C30.8124 33.0507 30.7642 33.3602 30.6778 33.7219C30.1756 33.9075 29.5689 33.9999 28.8587 33.9999L28.8601 33.9992Z" fill="white"/>
<path d="M34.9804 33.9728C33.9751 33.9728 33.2044 33.6485 32.6676 32.9993C32.13 32.3501 31.8616 31.5051 31.8616 30.4627C31.8616 29.3235 32.143 28.4315 32.7064 27.7867C33.2692 27.1419 34.0535 26.8198 35.0581 26.8198C36.0627 26.8198 36.8341 27.1426 37.3709 27.7867C37.9077 28.4315 38.1768 29.2795 38.1768 30.3299C38.1768 31.4691 37.8976 32.3611 37.3385 33.0059C36.7794 33.6507 35.9936 33.9728 34.9804 33.9728ZM35.0322 33.1783C35.7683 33.1783 36.3253 32.9333 36.7017 32.4433C37.0787 31.9533 37.2673 31.2711 37.2673 30.3967C37.2673 29.5223 37.0744 28.829 36.6887 28.3434C36.303 27.8578 35.7511 27.615 35.0322 27.615C34.3133 27.615 33.7261 27.86 33.3498 28.35C32.9734 28.8401 32.7842 29.5223 32.7842 30.3967C32.7842 31.2711 32.977 31.9863 33.3627 32.4631C33.7477 32.9399 34.3047 33.1783 35.0322 33.1783Z" fill="white"/>
<path d="M41.9835 26.8198C43.0492 26.8198 43.8048 27.034 44.251 27.4624C44.6971 27.8908 44.9202 28.5334 44.9202 29.3895V33.8136H44.0106V29.5487C44.0106 28.8687 43.8631 28.3764 43.5688 28.072C43.2745 27.7676 42.7369 27.615 41.9576 27.615C41.4467 27.615 40.9264 27.6766 40.3982 27.8006V33.8143H39.5016V27.191C40.4198 26.9438 41.2474 26.8198 41.9835 26.8198Z" fill="white"/>
<path d="M48.4678 33.973C47.5841 33.973 46.848 33.8006 46.2586 33.4566C46.2673 33.1478 46.3104 32.8873 46.3889 32.6754C46.9782 33.0194 47.6669 33.1918 48.4549 33.1918C49.5206 33.1918 50.0531 32.8206 50.0531 32.079C50.0531 31.7701 49.9466 31.5251 49.7343 31.3439C49.522 31.1627 49.1824 30.9933 48.7146 30.8341L48.1166 30.6221C47.51 30.4189 47.0574 30.1607 46.7588 29.8475C46.4601 29.5342 46.3104 29.1301 46.3104 28.6356C46.3104 28.0524 46.5184 27.605 46.9343 27.291C47.3503 26.9778 47.9303 26.8208 48.6758 26.8208C49.481 26.8208 50.1697 26.936 50.7417 27.1656C50.7245 27.4216 50.6813 27.6732 50.6115 27.9204C50.0221 27.6996 49.3853 27.5896 48.7017 27.5896C47.6878 27.5896 47.1812 27.9299 47.1812 28.61C47.1812 28.9276 47.2934 29.1792 47.5194 29.3648C47.7446 29.5504 48.0735 29.7184 48.5067 29.868L49.1306 30.08C49.7717 30.3008 50.2351 30.5634 50.5208 30.8679C50.8065 31.1723 50.9497 31.5677 50.9497 32.0533C50.9497 32.6453 50.7309 33.1126 50.2934 33.4573C49.8559 33.8021 49.2471 33.9738 48.4678 33.9738V33.973Z" fill="white"/>
<path d="M56.7446 26.9792H57.6413V33.8138H56.7965L56.7576 33.0055C56.2381 33.6503 55.5235 33.9723 54.6139 33.9723C53.8519 33.9723 53.2625 33.7625 52.8466 33.3429C52.4307 32.9233 52.2227 32.2946 52.2227 31.4554V26.9785H53.1193V31.2302C53.1193 32.5286 53.7123 33.1778 54.8996 33.1778C55.6098 33.1778 56.2251 32.9262 56.7446 32.423V26.9792Z" fill="white"/>
<path d="M66.4636 26.8198C67.425 26.8198 68.1223 27.0362 68.5555 27.469C68.9887 27.9018 69.2053 28.5422 69.2053 29.3895V33.8136H68.2957V29.5223C68.2957 28.8775 68.1439 28.3984 67.8409 28.0852C67.5372 27.772 67.0522 27.615 66.3851 27.615C65.7699 27.615 65.159 27.7522 64.5531 28.0258C64.6912 28.3618 64.761 28.7806 64.761 29.2839V33.8143H63.8514V29.4034C63.8514 28.7858 63.7104 28.3332 63.429 28.0456C63.1477 27.7588 62.6339 27.615 61.8891 27.615C61.3436 27.615 60.8061 27.6766 60.2779 27.8006V33.8143H59.3813V27.191C60.2995 26.9438 61.1659 26.8198 61.9798 26.8198C62.9325 26.8198 63.6341 27.0098 64.0846 27.3891C64.8812 27.0098 65.6742 26.8198 66.4629 26.8198H66.4636Z" fill="white"/>
<path d="M76.2609 29.893C76.2609 30.1666 76.2436 30.4226 76.2091 30.661H71.3496C71.4015 31.4826 71.6353 32.1068 72.0513 32.5352C72.4672 32.9636 73.0515 33.1778 73.8049 33.1778C74.6109 33.1778 75.3384 32.9878 75.9882 32.6079C75.9536 32.9438 75.9062 33.2307 75.845 33.4691C75.2736 33.805 74.5886 33.9723 73.792 33.9723C72.7003 33.9723 71.8706 33.6591 71.3036 33.0319C70.7358 32.4054 70.4523 31.5134 70.4523 30.3558C70.4523 29.3054 70.7013 28.453 71.1992 27.7994C71.6972 27.1458 72.4528 26.8193 73.4667 26.8193C74.4022 26.8193 75.1016 27.104 75.5651 27.6739C76.0285 28.2432 76.2602 28.9833 76.2602 29.8922L76.2609 29.893ZM73.4286 27.6013C72.7874 27.6013 72.2938 27.8023 71.9469 28.2036C71.6008 28.6056 71.4015 29.1682 71.3489 29.8922H75.3513V29.8394C75.3513 29.1594 75.1866 28.6166 74.8577 28.2102C74.5281 27.8038 74.0517 27.6006 73.4286 27.6006V27.6013Z" fill="white"/>
<path d="M79.9381 26.8198C80.4317 26.8198 80.8001 26.8374 81.0426 26.8726C81.0426 27.1903 81.0124 27.4551 80.952 27.6671C80.7095 27.6319 80.3806 27.6143 79.9647 27.6143C79.4883 27.6143 79.0249 27.6715 78.5744 27.7867V33.8136H77.6778V27.191C78.3621 26.9438 79.1156 26.8198 79.9388 26.8198H79.9381Z" fill="white"/>
</svg>
